<?xml version="1.0" encoding="UTF-8" standalone="no"?>
<svg
   xmlns:dc="http://purl.org/dc/elements/1.1/"
   xmlns:cc="http://creativecommons.org/ns#"
   xmlns:rdf="http://www.w3.org/1999/02/22-rdf-syntax-ns#"
   xmlns:svg="http://www.w3.org/2000/svg"
   xmlns="http://www.w3.org/2000/svg"
   xmlns:sodipodi="http://sodipodi.sourceforge.net/DTD/sodipodi-0.dtd"
   xmlns:inkscape="http://www.inkscape.org/namespaces/inkscape"
   width="959"
   height="593"
   version="1.1"
   id="svg6113"
   sodipodi:docname="USA.svg"
   inkscape:version="0.92.4 (5da689c313, 2019-01-14)">
  <metadata
     id="metadata6117">
    <rdf:RDF>
      <cc:Work
         rdf:about="">
        <dc:format>image/svg+xml</dc:format>
        <dc:type
           rdf:resource="http://purl.org/dc/dcmitype/StillImage" />
      </cc:Work>
    </rdf:RDF>
  </metadata>
  <sodipodi:namedview
     pagecolor="#ffffff"
     bordercolor="#666666"
     borderopacity="1"
     objecttolerance="10"
     gridtolerance="10"
     guidetolerance="10"
     inkscape:pageopacity="0"
     inkscape:pageshadow="2"
     inkscape:window-width="2560"
     inkscape:window-height="1377"
     id="namedview6115"
     showgrid="false"
     inkscape:zoom="15.892074"
     inkscape:cx="820.00431"
     inkscape:cy="318.56946"
     inkscape:window-x="-8"
     inkscape:window-y="-8"
     inkscape:window-maximized="1"
     inkscape:current-layer="svg6113" />
  <title
     id="title5734">Blank map of the United States, territories not included</title>
  <defs
     id="defs5738">
    <style
       type="text/css"
       id="style5736">
.state {fill:#D0D0D0}                        /* default color for all states not specified below */
.borders {stroke:#282828; stroke-width:2}    /* color and width of borders between states */

/* Individual states can be colored as follows:
.ks,.mt,.pa {fill:#0000FF}
.ca,.de {fill:#FF0000}
In this example, Kansas, Montana and Pennsylvania are colored blue, and California and Delaware are colored red.
Place this code in the empty space below. */



</style>
  </defs>
  <path
     style="fill:#d0d0d0"
     inkscape:connector-curvature="0"
     d="m 643,467.4 0.4,-7.3 -0.9,-1.2 -1.7,-0.7 -2.5,-2.8 0.5,-2.9 48.8,-5.1 -0.7,-2.2 -1.5,-1.5 -0.5,-1.4 0.6,-6.3 -2.4,-5.7 0.5,-2.6 0.3,-3.7 2.2,-3.8 -0.2,-1.1 -1.7,-1 v -3.2 l -1.8,-1.9 -2.9,-6.1 -12.9,-45.8 -45.7,4 1.3,2 -1.3,67 4.4,33.2 0.9,-0.5 1.3,0.1 0.6,0.4 0.8,-0.1 2,-3.8 v -2.3 l 1.1,-1.1 1.4,0.5 3.4,6.4 v 0.9 l -3.3,2.2 3.5,-0.4 4.9,-1.6 z"
     id="AL"
     class="al">
    <title
       id="title5740">Alabama</title>
  </path>
  <path
     style="fill:#d0d0d0"
     inkscape:connector-curvature="0"
     d="m 15.8,572 h 2.4 l 0.7,0.7 -1,1.2 -1.9,0.2 -2.5,1.3 -3.7,-0.1 2.2,-0.9 0.3,-1.1 2.5,-0.3 z m 8.3,-1.7 1.3,0.5 h 0.9 l 0.5,1.2 0.3,-0.6 0.9,0.2 1.1,1.5 v 0.5 l -4.2,1.9 -2.4,-0.1 -1,-0.5 -1.1,0.7 h -2 l -1.1,-1.4 4.7,-0.5 z m 5.4,-0.1 1,0.1 0.7,0.7 v 1 L 29.9,572.1 29,571 Z m 2.5,0.3 1.3,-0.1 -0.1,1 -1.1,0.6 z m 0.3,2.2 3.4,-0.1 0.2,1.1 -1.3,0.1 -0.3,-0.5 -0.8,0.6 -0.4,-0.6 -0.9,-0.2 z m 166.3,7.6 2.1,0.1 -1,1.9 -1.1,-0.1 -0.4,-0.8 0.5,-1.3 m -1.1,-2.9 0.6,-1.3 -0.2,-2.3 2.4,-0.5 4.5,4.4 1.3,3.4 1.9,1.6 0.3,5.1 H 207 l -1.3,-2.3 -3.1,-2.4 H 202 l 1.1,2.8 1.7,0.2 0.2,2.1 -0.9,0.1 -4.1,-4.4 -0.1,-0.9 1.9,-1 v -1 l -0.5,-0.8 -1.6,-0.6 -1.7,-1.3 1.4,0.1 0.5,-0.4 -0.6,-0.9 -0.6,0.5 z m -3.6,-9.1 1.3,0.1 2.4,2.5 -0.2,0.8 -0.8,-0.1 -0.1,1.8 0.5,0.5 v 1.5 l -0.8,0.3 -0.4,1.2 -0.8,-0.4 -0.4,-2.2 1.1,-1.4 -2.1,-2.2 0.1,-1.2 z m 1.5,-1.5 1.9,0.2 2.5,0.1 3.4,3.2 -0.2,0.5 -1.1,0.6 -1.1,-0.2 -0.1,-0.7 -1.2,-1.6 -0.3,0.7 1,1.3 -0.2,1.2 -0.8,-0.1 -1.3,0.2 -0.1,-1.7 -2.6,-2.8 z m -12.7,-8.9 0.9,-0.4 h 1.6 l 0.7,-0.5 4.1,2.2 0.1,1.5 -0.5,0.5 h -0.8 l -1.4,-0.7 1.1,1.3 h 1.8 l 0.5,2 H 190 l -2.2,-1.5 -1.1,-0.2 0.6,1.3 0.1,0.9 0.8,-0.6 1.7,1.2 1.3,-0.1 -0.2,0.8 1.9,4.3 v 3.4 l 0.4,2.1 -0.8,0.3 -1.2,-2 -0.5,-1.5 -1.6,-1.6 -0.2,-2.7 -0.6,-1.7 h -0.7 l 0.3,1.1 v 0.5 l -1.4,1 0.1,-3.3 -1.6,-1.6 -1.3,-2.3 -1.2,-1.2 z m 7.2,-2.3 1.1,1.8 2.4,-0.1 1,2.1 -0.6,0.6 2,3.2 v 1.3 l -1.2,0.8 v 0.7 l -2,1.9 -0.5,-1.4 -0.1,-1.3 0.6,-0.7 v -1.1 l -1.5,-1.9 -0.5,-3.7 -0.9,-1.5 z m -56.7,-18.3 -4,4.1 v 1.6 l 2.1,-0.8 0.8,-1.9 2.2,-2.4 z m -31.6,16.6 v 0.6 l 1.8,1.2 0.2,-1.4 0.6,0.9 3.5,0.1 0.7,-0.6 0.2,-1.8 -0.5,-0.7 h -1.4 v -0.8 l 0.4,-0.6 v -0.4 l -1.5,-0.3 -3.3,3.6 z m -8.1,6.2 1.5,5.8 h 2.1 l 2.4,-2.5 0.3,1.2 6.3,-4 0.7,-1 -1,-1.1 v -0.7 l 0.5,-1.3 -0.9,-0.1 -2,1 V 556 l -2.7,-0.6 -2.4,0.3 -0.2,3.4 -0.8,-2 -1.5,-0.1 -1,0.6 z m -2.2,8.2 0.1,-0.7 2.1,-1.3 0.6,0.3 1.3,0.2 1.3,1.2 -2.2,-0.2 -0.4,-0.6 -1,0.6 z m -5.2,3.3 -1.1,0.8 1.5,1.4 0.8,-0.7 -0.1,-1.3 z m -6.3,-7.9 1.4,0.1 0.4,0.6 -1.8,0.1 z M 66,575.4 v 0.5 l 0.7,0.1 -0.1,-0.6 z m -0.4,-3.2 -1,1 v 0.5 l 0.7,1.1 1,-1 -0.7,-0.1 z m -2,-0.8 -0.3,1 -1.3,0.1 -0.4,0.2 v 1.3 l -0.5,0.9 h 0.6 l 0.7,-0.9 0.8,-0.1 0.9,-1 0.2,-1.3 z m -4.4,-2 -0.2,1.8 1.4,0.8 1.2,-0.6 v -1 l 1.7,-0.3 -0.1,-0.6 -0.9,-0.2 -0.7,0.6 -0.9,-0.5 z m -4.9,-0.1 1,0.7 -0.3,1.2 -1.4,-1.1 z m -4.2,1.3 1.4,0.1 -0.7,0.8 z m -3.5,3 1.8,1.1 -1.7,0.1 z m -25.4,-31.2 1.2,0.6 -0.8,0.6 z m -0.7,-6.3 0.4,1.2 0.8,-1.2 z m 24.3,-19.3 1.5,-0.1 0.9,0.4 1.1,-0.5 1.3,-0.1 1.6,0.8 0.8,1.9 -0.1,0.9 -1.2,2 -2.4,-0.2 -2.1,-1.8 -1,-0.4 -1.1,-2 z m -21.1,-14.4 0.1,1.9 2,2 v 0.5 L 25,506.6 23.3,505.8 23,504.7 22.7,503.1 Z M 42,479.1 v 1.2 l 1.9,1.8 h 2.3 l 0.6,1.1 v 1.6 l 2.1,1.9 1.8,1.2 -0.1,0.7 -0.7,1.1 -1.4,-1.2 -2.1,0.1 -0.8,-0.8 -0.9,-2.1 -1.5,-2.2 -2.6,-0.1 -1,-0.7 1,-2.1 z m 16.8,-4.5 h 1 l 0.1,1.1 h -1 z m 16.2,19.7 0.9,0.1 v 1.2 l -1.7,-0.5 z m 127.8,77.7 -1.2,0.4 -0.1,1.1 h 1.2 z m -157.6,-4.5 -1.3,-0.4 -4.1,0.6 -2.8,1.4 -0.1,1.9 1.9,0.7 1.5,-0.9 1.7,-0.1 4.7,1.4 0.1,-1.3 -1.6,-1.1 z m 2.1,2.3 -0.4,-1.4 1.2,0.2 0.1,1.4 H 50 l 0.4,-2.5 0.3,2.4 2.5,-0.1 3.2,-3.3 0.8,0.1 -0.7,1.3 1.4,0.9 4.2,-0.2 2.6,-1.2 1.4,-0.1 0.3,1.5 0.6,-0.5 0.4,-1.4 5.9,0.2 1.9,-1.6 -1.3,-1.1 0.6,-1.2 2.6,0.2 -0.2,-1.2 2.5,0.2 0.7,-1.1 1.1,0.2 4.6,-1.9 0.2,-1.7 5.6,-2.4 2,-1.9 1.2,-0.6 1.3,0.8 2.3,-0.9 1.1,-1.9 0.5,-1.3 1.7,-0.9 1.5,-0.7 0.4,-1.4 -1.1,-1.7 -2.2,-0.2 -0.2,-1.3 0.8,-1.6 1.4,-0.2 1.3,-1.5 1.9,-0.1 3.4,-3.2 0.4,-1.4 1.5,-2.3 3.8,-4.1 2.5,-0.9 1.9,-0.9 2.1,0.8 1.4,2.6 H 121 l -1.4,-1.5 -3,2 -1.7,0.1 -0.2,3.1 -3.1,4.9 0.6,2 h 2.3 l -0.6,1 -1.4,0.1 -2.4,1.8 v 0.9 l 1.9,1 3.4,-0.6 1.4,-1.7 1.4,0.1 3,-1.7 0.5,-2.3 1.6,-0.1 6.3,0.8 1,-1.1 1,-4.5 -1.6,1.1 0.6,-2.2 -1.6,-1.4 0.8,-1.5 0.1,1.5 h 3.4 l 0.7,-1 1.6,-0.1 -0.3,1.7 1.9,0.1 -1.9,1.3 4.1,1.1 -3.5,0.4 -1.3,1.2 0.9,1.4 4.6,-1.7 2.3,1.7 0.7,-0.9 0.6,1.4 4,2.3 h 2.9 l 3.9,-0.5 4.3,1.1 2,1.9 4.5,0.4 1.8,-1.5 0.8,2.4 -1.8,0.7 1.2,1.2 7.4,3.8 1.4,2.5 5.4,4.1 3.3,-2 -0.6,-2.2 -3.5,-2 3.1,1.2 0.5,-0.7 0.9,1.3 v 2.7 l 2.1,-0.6 2.1,1.8 -2.5,-9.8 1.2,1.3 1.4,6 2.2,2.5 2.4,-0.4 1.8,3.5 h 0.9 l 0.6,5.6 3.4,0.5 1.6,2.2 1.8,1.1 0.4,2.8 -1.8,2.6 2.9,1.6 1.2,-2.4 -0.2,3.1 -0.8,0.9 1.4,1.7 0.7,-2.4 -0.2,-1.2 0.8,0.2 0.6,2.3 -1,1.4 0.6,2.6 0.5,0.4 0.3,-1.6 0.7,0.6 -0.3,2 1.2,0.2 -0.4,0.9 1.7,-0.1 v -1 h -1 l 0.1,-1.7 -0.8,-0.6 1.7,-0.3 0.5,-0.8 v -1.6 l 0.5,1.3 -0.6,1.8 1.2,3.9 1.8,0.1 2.2,-4.2 0.1,-1.9 -1.3,-4 -0.1,-1.2 0.5,-1.2 -0.7,-0.7 -1.7,0.1 -2.5,-2 h -1.7 l -2,-1.4 h -1.5 l -0.5,-1.6 -1.4,-0.3 -0.2,-1.5 -1,-0.5 0.1,-1.7 -5.1,-7.4 -1.8,-1.5 V 554 l -4.3,-3.5 -0.7,-1.1 -1.6,-2 -1.9,-0.6 v -2.2 l -1.2,-1.3 -1.7,-0.7 -2.1,1.3 -1.6,2.1 -0.4,2.4 -1.5,0.1 -2.5,2.7 -0.8,-0.3 v -2.5 l -2.4,-2.2 -2.3,-2 -0.5,-2 -2.5,-1.3 0.2,-2.2 -2.8,-0.1 -0.7,1.1 h -1.2 l -0.7,-0.7 -1.2,0.8 -1.8,-1.2 v -85.8 l -6.9,-4.1 -1.8,-0.5 -2.2,1.1 -2.2,0.1 -2.3,-1.6 -4.3,-0.6 -5.8,-3.6 -5.7,-0.4 -2,0.5 -0.2,-1.8 -1.8,-0.7 1.1,-1 -0.2,-0.9 -3.2,-1.1 h -2.4 l -0.4,0.4 -0.9,-0.6 0.1,-2.6 -0.8,-0.9 -2.5,2.9 -0.8,-0.1 v -0.8 l 1.7,-0.8 v -0.8 l -1.9,-2.4 -1.1,-0.1 -4.5,3.1 h -3.9 l 0.4,-0.9 -1.8,-0.1 -5.2,3.4 h -1.8 l -0.6,-0.8 -2.7,1.5 -3.6,3.7 -2.8,2.7 -1.5,1.2 -2.6,0.1 -2.2,-0.4 -2.3,-1.3 v 0 l -2.8,3.9 -0.1,2.4 2.6,2.4 2.1,4.5 0.2,5.3 2.9,2 3.4,0.4 0.7,0.8 -1.5,2.3 0.7,2.7 -1.7,-2.6 v -2.4 l -1.5,-0.3 0.1,1.2 0.7,2.1 2.9,3.7 h -1.4 l -2.2,1.1 -6.2,-2.5 -0.1,-2 1.4,-1.3 v -1.4 l -2.1,-0.5 -2.3,0.2 -4.8,0.2 1.5,2.3 -1.9,-1.8 -8.4,1.2 -0.8,1.5 4.9,4.7 -0.8,1.4 -0.3,2 -0.7,0.8 -0.1,1.9 4.4,3.6 4.1,0.2 4.6,1.9 h 2 l 0.8,-0.6 3.8,0.1 0.1,-0.8 1.2,1.1 0.1,2 -2.5,-0.1 0.1,3.3 0.5,3.2 -2.9,2.7 -1.9,-0.1 -2,-0.8 -1,0.1 -3.1,2.1 -1.7,0.2 -1.4,-2.8 H 66 l -2.2,2 -0.5,1.8 -3.3,1.8 -5.3,4.3 -0.3,3.1 0.7,2.2 1,1.2 1,-0.4 0.9,1 -0.8,0.6 -1.5,0.9 1.1,1.5 -2.6,1.1 0.8,2.2 1.7,2.3 0.8,4.1 4,1.5 2.6,-0.8 1.7,-1.1 0.5,2.1 0.3,4.4 -1.9,1.4 v 4.4 l -0.6,0.9 h -1.7 l 1.7,1.2 2.1,-0.1 0.4,-1 4.6,-0.6 2,2.6 1.3,-0.7 1.3,5.1 1,0.5 1,-0.7 0.1,-2.4 0.9,-1 0.7,1.1 0.2,1.6 1.6,0.4 4.7,-1.2 0.2,1.2 -2,1.1 -1.6,1.7 -2.8,7 -4.3,2 -1.4,1.5 -0.3,1.4 -1,-0.6 -9.3,3.3 -1.8,4.1 -1.3,-0.4 0.5,-1.1 -1.5,-1.4 -3.5,-0.2 -5.3,3.2 -2.2,1.3 h -2.3 l -0.5,2.4 z"
     id="AK"
     class="ak">
    <title
       id="title5743">Alaska</title>
  </path>
  <path
     style="fill:#d0d0d0"
     inkscape:connector-curvature="0"
     d="m 139.6,387.6 3,-2.2 0.8,-2.4 -1,-1.6 -1.8,-0.2 -1.1,-1.6 1.1,-6.9 1.6,-0.3 2.4,-3.2 1.6,-7 2.4,-3.6 4.8,-1.7 1.3,-1.3 -0.4,-1.9 -2.3,-2.5 -1.2,-5.8 -1.4,-1.8 -1.3,-3.4 0.9,-2.1 1.4,-3 0.5,-2.9 -0.5,-4.9 1,-13.6 3.5,-0.6 3.7,1.4 1.2,2.7 h 2 l 2.4,-2.9 3.4,-17.5 46.2,8.2 40,6 -17.4,124.1 -37.3,-5.4 -64.2,-37.5 0.5,-2.9 2,-1.8 z"
     id="AZ"
     class="az">
    <title
       id="title5746">Arizona</title>
  </path>
  <path
     style="fill:#d0d0d0"
     inkscape:connector-curvature="0"
     d="m 584.2,367 0.9,-2.2 1.2,0.5 0.7,-1 -0.8,-0.7 0.3,-1.5 -1.1,-0.9 0.6,-1 -0.1,-1.5 -1.1,-0.1 0.8,-0.8 1.3,0.8 0.3,-1.4 -0.4,-1.1 0.1,-0.7 2,0.6 -0.4,-1.5 1.6,-1.3 -0.5,-0.9 -1.1,0.1 -0.6,-0.9 0.9,-0.9 1.6,-0.2 0.5,-0.8 1.4,-0.2 -0.1,-0.8 -0.9,-0.9 v -0.5 h 1.5 l 0.4,-0.7 -1.4,-1 -0.1,-0.6 -11.2,0.8 2.8,-5.1 1.7,-1.5 v -2.2 l -1.6,-2.5 -39.8,2 -39.1,0.7 4.1,24.4 -0.7,39 2.6,2.3 2.8,-1.3 3.2,0.8 0.2,11.9 52.3,-1.3 1.2,-1.5 0.5,-3 -1.5,-2.3 -0.5,-2.2 0.9,-0.7 v -0.8 l -1.7,-1.1 -0.1,-0.7 1.6,-0.9 -1.2,-1.1 1.7,-7.1 3.4,-1.6 v -0.8 l -1.1,-1.4 2.9,-5.4 h 1.9 l 1.5,-1.2 -0.3,-5.2 3.1,-4.5 1.8,-0.6 -0.5,-3.1 z"
     id="AR"
     class="ar">
    <title
       id="title5749">Arkansas</title>
  </path>
  <path
     style="fill:#d0d0d0"
     inkscape:connector-curvature="0"
     d="m 69.4,365.6 3.4,5.2 -1.4,0.1 -1.8,-1.9 z m 1.9,-9.8 1.8,4.1 2.6,1 0.7,-0.6 -1.3,-2.5 -2.6,-2.4 z m -19.9,-19 v 2.4 l 2,1.2 4.4,-0.2 1,-1 -3.1,-0.2 z m -5.9,0.1 3.3,0.5 1.4,2.2 h -3.8 z m 47.9,45.5 -1,-3 0.2,-3 -0.4,-7.9 -1.8,-4.8 -1.2,-1.4 -0.6,-1.5 -7,-8.6 -3.6,0.1 -2,-1.9 1.1,-1.8 -0.7,-3.7 -2.2,-1.2 -3.9,-0.6 -2.8,-1.3 -1.5,-1.9 -4.5,-6.6 -2.7,-2.2 -3.7,-0.5 -3.1,-2.3 -4.7,-1.5 -2.8,-0.3 -2.5,-2.5 0.2,-2.8 0.8,-4.8 1.8,-5.1 -1.4,-1.6 -4,-9.4 -2.7,-3.7 -0.4,-3 -1.6,-2.3 0.2,-2.5 -2,-5 -2.9,-2.7 0.6,-7.1 2.4,-0.8 1.8,-3.1 -0.4,-3.2 -1,-0.9 h -2.5 l -2.5,-3.3 -1.5,-3.5 v -7.5 l 1.2,-4.2 0.2,-2.1 2.5,0.2 -0.1,1.6 -0.8,0.7 v 2.5 l 3.7,3.2 v -4.7 l -1.4,-3.4 0.5,-1.1 -1,-1.7 2.8,-1.5 -1.9,-3 -1.4,0.5 -1.5,3.8 0.5,1.3 -0.8,1 -0.9,-0.1 -5.4,-6.1 0.7,-5.6 -1.1,-3.9 -6.5,-12.8 0.8,-10.7 2.3,-3.6 0.2,-6.4 -5.5,-11.1 0.3,-5.2 6.9,-7.5 1.7,-2.4 -0.1,-1.4 4,-9.2 0.1,-8.4 0.9,-2.5 66.1,18.6 -16.4,63.1 1.1,3.5 70.4,105 -0.9,2.1 1.3,3.4 1.4,1.8 1.2,5.8 2.3,2.5 0.4,1.9 -1.3,1.3 -4.8,1.7 -2.4,3.6 -1.6,7 -2.4,3.2 -1.6,0.3 -1.1,6.9 1.1,1.6 1.8,0.2 1,1.6 -0.8,2.4 -3,2.2 -2.2,-0.1 z"
     id="CA"
     class="ca">
    <title
       id="title5752">California</title>
  </path>
  <path
     style="fill:#d0d0d0"
     inkscape:connector-curvature="0"
     d="m 374.6,323.3 -16.5,-1 -51.7,-4.8 -52.6,-6.5 11.5,-88.3 44.9,5.7 37.5,3.4 33.1,2.4 -1.4,22.1 z"
     id="CO"
     class="co">
    <title
       id="title5755">Colorado</title>
  </path>
  <path
     style="fill:#d0d0d0"
     inkscape:connector-curvature="0"
     d="m 873.5,178.9 0.4,-1.1 -3.2,-12.3 -0.1,-0.3 -14.9,3.4 v 0.7 l -0.9,0.3 -0.5,-0.7 -10.5,2.4 2.8,16.3 1.8,1.5 -3.5,3.4 1.7,2.2 5.4,-4.5 1.7,-1.3 h 0.8 l 2.4,-3.1 1.4,0.1 2.9,-1.1 h 2.1 l 5.3,-2.7 2.8,-0.9 1,-1 1.5,0.5 z"
     id="CT"
     class="ct">
    <title
       id="title5758">Connecticut</title>
  </path>
  <path
     style="fill:#d0d0d0"
     inkscape:connector-curvature="0"
     d="m 822.2,226.6 -1.6,0.3 -1.5,1.1 -1.2,2.1 7.6,27.1 10.9,-2.3 -2.2,-7.6 -1.1,0.5 -3.3,-2.6 -0.5,-1.7 -1.8,-1 -0.2,-3.7 -2.1,-2.2 -1.1,-0.8 -1.2,-1.1 -0.4,-3.2 0.3,-2.1 1,-2.2 z"
     id="DE"
     class="de">
    <title
       id="title5761">Delaware</title>
  </path>
  <path
     style="fill:#d0d0d0"
     inkscape:connector-curvature="0"
     d="m 751.7,445.1 -4,-0.7 -1.7,-0.9 -2.2,1.4 v 2.5 l 1.4,2.1 -0.5,4.3 -2.1,0.6 -1,-1.1 -0.6,-3.2 -50.1,3.3 -3.3,-6 -48.8,5.1 -0.5,2.9 2.5,2.8 1.7,0.7 0.9,1.2 -0.4,7.3 -1.1,0.6 0.5,0.4 1,-0.3 0.7,-0.8 10.5,-2.7 9.2,-0.5 8.1,1.9 8.5,5 2.4,0.8 2.2,2 -0.1,2.7 h 2.4 l 1.9,-1 2.5,0.1 2,-0.8 2.9,-2 3.1,-2.9 1.1,-0.4 0.6,0.5 h 1.4 l 0.5,-0.8 -0.5,-1.2 -0.6,-0.6 0.2,-0.8 2,-1.1 5,-0.4 0.8,1 1,0.1 2.3,1 3,1.8 1.2,1.7 1.1,1.2 2.8,1.4 v 2.4 l 2.8,1.9 1,0.1 1.6,1.4 0.7,1.6 1,0.2 0.8,2.1 0.7,0.6 1,-1.1 2.9,0.1 0.5,1.4 1.1,0.9 v 1.3 l 2.9,2.2 0.2,9.6 -1.8,5.8 1,1.2 -0.2,3.4 -0.8,1.4 0.7,1.2 2.3,2.3 0.3,1.5 0.8,1 -0.4,-1.9 1.3,-0.6 0.8,-3.6 -3,-1.2 0.1,-0.6 2.6,-0.4 0.9,2.6 1.1,0.6 0.1,-2 1.1,0.3 0.6,0.8 -0.1,0.7 -2.9,4.2 -0.2,1.1 -1.7,1.9 v 1.1 l 3.7,3.8 5.3,7.9 1.8,2.1 v 1.8 l 2.8,4.6 2.3,0.6 0.7,-1.2 -2.1,0.3 -3,-4.5 0.2,-1.4 1.5,-0.8 v -1.5 l -0.6,-1.3 0.9,-0.9 0.4,0.9 0.7,0.5 v 4 l -1.2,-0.6 -0.8,0.9 1.4,1.6 1,2.6 1.2,-0.6 2.3,1.2 2.1,2.2 1.6,5.1 3.1,4.8 0.8,-1.3 2.8,-0.5 3.2,1.3 0.3,1.7 3.3,3.8 0.1,1.1 2.2,2.7 -0.7,0.5 v 2.7 l 2.7,1.4 h 1.5 l 2.7,-1.8 1.5,0.3 1.1,0.4 2.3,-1.7 0.2,-0.7 1.2,0.3 2.4,-1.7 1.3,-2.3 -0.7,-3.2 -0.2,-1.3 1.1,-4 0.6,-0.2 0.6,1.6 0.8,-1.8 -0.8,-7.2 -0.4,-10.5 -1,-6.8 -0.7,-1.7 -6.6,-11.1 -5.2,-9.1 -2.2,-3.3 -1.3,-3.6 -0.2,-3.4 0.9,-0.3 v -0.9 l -1.1,-2.2 -4,-4 -7.6,-9.7 -5.7,-10.4 -4.3,-10.7 -0.6,-3.7 -1.2,-1 -0.5,-3.8 z m 9.2,134.5 1.7,-0.1 -0.7,-1 z m 7.3,-1.1 v -0.7 l 1.6,-0.2 3.7,-3.3 1.5,-0.6 2.4,-0.9 0.3,1.3 1.7,0.8 -2.6,1.2 h -2.4 l -3.9,2.5 z m 17.2,-7.6 -3,1.4 -1,1.3 1.1,0.1 z m 3.8,-2.9 -1.1,0.3 -1.4,2 1.1,-0.2 1.5,-1.6 z m 8.3,-15.7 -1.7,5.6 -0.8,1 -1,2.6 -1.2,1.6 -0.7,1.7 -1.9,2.2 v 0.9 l 2.7,-2.8 2.4,-3.5 0.6,-2 2.1,-4.9 z"
     id="FL"
     class="fl">
    <title
       id="title5764">Florida</title>
  </path>
  <path
     style="fill:#d0d0d0"
     inkscape:connector-curvature="0"
     d="m 761.8,414.1 v 1.4 l -4.2,6.2 -1.2,0.2 1.5,0.5 v 2 l -0.9,1.1 -0.6,6 -2.3,6.2 0.5,2 0.7,5.1 -3.6,0.3 -4,-0.7 -1.7,-0.9 -2.2,1.4 v 2.5 l 1.4,2.1 -0.5,4.3 -2.1,0.6 -1,-1.1 -0.6,-3.2 -50.1,3.3 -3.3,-6 -0.7,-2.2 -1.5,-1.5 -0.5,-1.4 0.6,-6.3 -2.4,-5.7 0.5,-2.6 0.3,-3.7 2.2,-3.8 -0.2,-1.1 -1.7,-1 v -3.2 l -1.8,-1.9 -2.9,-6.1 -12.9,-45.8 22.9,-2.9 21.4,-3 -0.1,1.9 -1.9,1 -1.4,3.2 0.2,1.3 6.1,3.8 2.6,-0.3 3.1,4 0.4,1.7 4.2,5.1 2.6,1.7 1.4,0.2 2.2,1.6 1.1,2.2 2,1.6 1.8,0.5 2.7,2.7 0.1,1.4 2.6,2.8 5,2.3 3.6,6.7 0.3,2.7 3.9,2.1 2.5,4.8 0.8,3.1 4.2,0.4 z"
     id="GA"
     class="ga">
    <title
       id="title5767">Georgia</title>
  </path>
  <path
     style="fill:#d0d0d0"
     inkscape:connector-curvature="0"
     d="m 317,553.7 -0.2,3.2 1.7,1.9 0.1,1.2 -4.8,4.5 -0.1,1.2 1.9,3.2 1.7,4.2 v 2.6 l -0.5,1.2 0.1,3.4 4.1,2.1 1.1,1.1 1.2,-1.1 2.1,-3.6 4.5,-2.9 3.3,-0.5 2.5,-1 1.7,-1.2 3.2,-3.5 -2.8,-1.1 -1.4,-1.4 0.1,-1.7 -0.5,-0.6 h -2 l 0.2,-2.5 -0.7,-1.2 -2.6,-2.3 -4.5,-1.9 -2.8,-0.2 -3.3,-2.7 -1.2,-0.6 z m -15.3,-17 -1.1,1.5 -0.1,1.7 2.7,2.4 1.9,0.5 0.6,1 0.4,3 3.6,0.2 5.3,-2.6 -0.1,-2.5 -1.4,-0.5 -3.5,-2.6 -1.8,-0.3 -2.9,1.3 -1.5,-2.7 z m -1.5,11.5 0.9,-1.4 2.5,-0.3 0.6,1.8 z m -7,-8.7 1.7,4 3.1,-0.6 0.3,-2 -1.4,-1.5 z m -4.1,-6.7 -1.1,2.4 h 5 l 4.8,1.6 2.5,-1.6 0.2,-1.5 -4.8,0.2 z m -16,-10.6 -1.9,2.1 -2.9,0.6 0.8,2.2 2.2,2.8 0.1,1 2.1,-0.3 2.3,0.1 1.7,1.2 3.5,-0.8 v -0.7 l -1,-0.8 -0.5,-2.1 -0.8,-0.3 -0.5,1 -1.2,-1.3 0.2,-1.4 -1.8,-3.3 -1.1,-0.7 z m -31.8,-12.4 -4.2,2.9 0.2,2.3 2.4,1.2 1.9,1.3 2.7,0.4 2.6,-2.2 -0.2,-1.9 0.8,-1.7 v -1.4 l -1,-0.9 z m -10.8,4.8 -0.3,1.2 -1.9,0.9 -0.6,1.8 1,0.8 1.1,-1.5 1.9,-0.6 0.4,-2.6 z"
     id="HI"
     class="hi">
    <title
       id="title5770">Hawaii</title>
  </path>
  <path
     style="fill:#d0d0d0"
     inkscape:connector-curvature="0"
     d="m 165.3,183.1 -24.4,-5.4 8.5,-37.3 2.9,-5.8 0.4,-2.1 0.8,-0.9 -0.9,-2 -2.9,-1.2 0.2,-4.2 4,-5.8 2.5,-0.8 1.6,-2.3 -0.1,-1.6 1.8,-1.6 3.2,-5.5 4.2,-4.8 -0.5,-3.2 -3.5,-3.1 -1.6,-3.6 1.1,-4.3 -0.7,-4 12.7,-56.1 14.2,3 -4.8,22 3.7,7.4 -1.6,4.8 3.6,4.8 1.9,0.7 3.9,8.3 v 2.1 l 2.3,3 h 0.9 l 1.4,2.1 h 3.2 v 1.6 l -7.1,17 -0.5,4.1 1.4,0.5 1.6,2.6 2.8,-1.4 3.6,-2.4 1.9,1.9 0.5,2.5 -0.5,3.2 2.5,9.7 2.6,3.5 2.3,1.4 0.4,3 v 4.1 l 2.3,2.3 1.6,-2.3 6.9,1.6 2.1,-1.2 9,1.7 2.8,-3.3 1.8,-0.6 1.2,1.8 1.6,4.1 0.9,0.1 -8.5,54.8 -47.9,-8.2 z"
     id="ID"
     class="id">
    <title
       id="title5773">Idaho</title>
  </path>
  <path
     style="fill:#d0d0d0"
     inkscape:connector-curvature="0"
     d="m 623.5,265.9 -1,5.2 v 2 l 2.4,3.5 v 0.7 l -0.3,0.9 0.9,1.9 -0.3,2.4 -1.6,1.8 -1.3,4.2 -3.8,5.3 -0.1,7 h -1 l 0.9,1.9 v 0.9 l -2.2,2.7 0.1,1.1 1.5,2.2 -0.1,0.9 -3.7,0.6 -0.6,1.2 -1.2,-0.6 -1,0.5 -0.4,3.3 1.7,1.8 -0.4,2.4 -1.5,0.3 -6.9,-3 -4,3.7 0.3,1.8 h -2.8 l -1.4,-1.5 -1.8,-3.8 v -1.9 l 0.8,-0.6 0.1,-1.3 -1.7,-1.9 -0.9,-2.5 -2.7,-4.1 -4.8,-1.3 -7.4,-7.1 -0.4,-2.4 2.8,-7.6 -0.4,-1.9 1.2,-1.1 v -1.3 l -2.8,-1.5 -3,-0.7 -3.4,1.2 -1.3,-2.3 0.6,-1.9 -0.7,-2.4 -8.6,-8.4 -2.2,-1.5 -2.5,-5.9 -1.2,-5.4 1.4,-3.7 0.7,-0.7 0.1,-2.3 -0.7,-0.9 1,-1.5 1.8,-0.6 0.9,-0.3 1,-1.2 v -2.4 l 1.7,-2.4 0.5,-0.5 0.1,-3.5 -0.9,-1.4 -1,-0.3 -1.1,-1.6 1,-4 3,-0.8 h 2.4 l 4.2,-1.8 1.7,-2.2 0.1,-2.4 1.1,-1.3 1.3,-3.2 -0.1,-2.6 -2.8,-3.5 h -1.2 l -0.9,-1.1 0.2,-1.6 -1.7,-1.7 -2.5,-1.3 0.5,-0.6 45.9,-2.8 0.1,4.6 3.4,4.6 1.2,4.1 1.6,3.2 z"
     id="IL"
     class="il">
    <title
       id="title5776">Illinois</title>
  </path>
  <path
     style="fill:#d0d0d0"
     inkscape:connector-curvature="0"
     d="m 629.2,214.8 -5.1,2.3 -4.7,-1.4 4.1,50.2 -1,5.2 v 2 l 2.4,3.5 v 0.7 l -0.3,0.9 0.9,1.9 -0.3,2.4 -1.6,1.8 -1.3,4.2 -3.8,5.3 -0.1,7 h -1 l 0.9,1.9 1.1,0.8 0.6,-1 -0.7,-1.7 4.6,-0.5 0.2,1.2 1.1,0.2 0.4,-0.9 -0.6,-1.3 0.3,-0.8 1.3,0.8 1.7,-0.4 1.7,0.6 3.4,2.1 1.8,-2.8 3.5,-2.2 3,3.3 1.6,-2.1 0.3,-2.7 3.8,-2.3 0.2,1.3 1.9,1.2 3,-0.2 1.2,-0.7 0.1,-3.4 2.5,-3.7 4.6,-4.4 -0.1,-1.7 1.2,-3.8 2.2,1 6.7,-4.5 -0.4,-1.7 -1.5,-2.1 1,-1.9 -6.6,-57.2 -0.1,-1.4 -32.4,3.4 z"
     id="IN"
     class="in">
    <title
       id="title5779">Indiana</title>
  </path>
  <path
     style="fill:#d0d0d0"
     inkscape:connector-curvature="0"
     d="m 556.9,183 2.1,1.6 0.6,1.1 -1.6,3.3 -0.1,2.5 2,5.5 2.7,1.5 3.3,0.7 1.3,2.8 -0.5,0.6 2.5,1.3 1.7,1.7 -0.2,1.6 0.9,1.1 h 1.2 l 2.8,3.5 0.1,2.6 -1.3,3.2 -1.1,1.3 -0.1,2.4 -1.7,2.2 -4.2,1.8 h -2.4 l -3,0.8 -1,4 1.1,1.6 1,0.3 0.9,1.4 -0.1,3.5 -0.5,0.5 -1.7,2.4 v 2.4 l -1,1.2 -0.9,0.3 -1.8,0.6 -1,1.5 0.7,0.9 -0.1,2.3 -0.7,0.7 -1.5,-0.8 -1.1,-1.1 -0.6,-1.6 -1.7,-1.3 -14.3,0.8 -27.2,1.2 -25.9,-0.1 -1.8,-4.4 0.7,-2.2 -0.8,-3.3 0.2,-2.9 -1.3,-0.7 -0.4,-6.1 -2.8,-5 -0.2,-3.7 -2.2,-4.3 -1.3,-3.7 v -1.4 l -0.6,-1.7 v -2.3 l -0.5,-0.9 -0.7,-1.7 -0.3,-1.3 -1.3,-1.2 1,-4.3 1.7,-5.1 -0.7,-2 -1.3,-0.4 -0.4,-1.6 1,-0.5 0.1,-1.1 -1.3,-1.5 0.1,-1.6 2.2,0.1 h 28.2 l 36.3,-0.9 18.6,-0.7 z"
     id="IA"
     class="ia">
    <title
       id="title5782">Iowa</title>
  </path>
  <path
     style="fill:#d0d0d0"
     inkscape:connector-curvature="0"
     d="m 459.1,259.5 -43.7,-1.2 -36,-2 -4.8,67 67.7,2.9 62,0.1 -0.5,-48.1 -3.2,-0.7 -2.6,-4.7 -2.5,-2.5 0.5,-2.3 2.7,-2.6 0.1,-1.2 -1.5,-2.1 -0.9,1 -2,-0.6 -2.9,-3 z"
     id="KS"
     class="ks">
    <title
       id="title5785">Kansas</title>
  </path>
  <path
     style="fill:#d0d0d0"
     inkscape:connector-curvature="0"
     d="m 692.1,322.5 -20.5,1.4 -5.2,0.8 -17.4,1 -2.6,0.8 -22.6,2 -0.7,-0.6 h -3.7 l 1.2,3.2 -0.6,0.9 -23.3,1.5 1,-2.7 1.4,0.9 0.7,-0.4 1.2,-4.1 -1,-1 1,-2 0.2,-0.9 -1.3,-0.8 -0.3,-1.8 4,-3.7 6.9,3 1.5,-0.3 0.4,-2.4 -1.7,-1.8 0.4,-3.3 1,-0.5 1.2,0.6 0.6,-1.2 3.7,-0.6 0.1,-0.9 -1.5,-2.2 -0.1,-1.1 2.2,-2.7 v -0.9 l 1.1,0.8 0.6,-1 -0.7,-1.7 4.6,-0.5 0.2,1.2 1.1,0.2 0.4,-0.9 -0.6,-1.3 0.3,-0.8 1.3,0.8 1.7,-0.4 1.7,0.6 3.4,2.1 1.8,-2.8 3.5,-2.2 3,3.3 1.6,-2.1 0.3,-2.7 3.8,-2.3 0.2,1.3 1.9,1.2 3,-0.2 1.2,-0.7 0.1,-3.4 2.5,-3.7 4.6,-4.4 -0.1,-1.7 1.2,-3.8 2.2,1 6.7,-4.5 -0.4,-1.7 -1.5,-2.1 1,-1.9 1.3,0.5 2.2,0.1 1.9,-0.8 2.9,1.2 2.2,3.4 v 1 l 4.1,0.7 2.3,-0.2 1.9,2.1 2.2,0.2 v -1 l 1.9,-0.8 3,0.8 1.2,0.8 1.3,-0.7 h 0.9 l 0.6,-1.7 3.4,-1.8 0.5,0.8 0.8,2.9 3.5,1.4 1.2,2.1 -0.1,1.1 0.6,1 -0.6,3.6 1.9,1.6 0.8,1.1 1,0.6 -0.1,0.9 4.4,5.6 h 1.4 l 1.5,1.8 1.2,0.3 1.4,-0.1 -4.9,6.6 -2.9,1 -3,3 -0.4,2.2 -2.1,1.3 -0.1,1.7 -1.4,1.4 -1.8,0.5 -0.5,1.9 -1,0.4 -6.9,4.2 z m -98,11.3 -0.7,-0.7 0.2,-1 h 1.1 l 0.7,0.7 -0.3,1 z"
     id="KY"
     class="ky">
    <title
       id="title5788">Kentucky</title>
  </path>
  <path
     style="fill:#d0d0d0"
     inkscape:connector-curvature="0"
     d="m 602.5,472.8 -1.2,-1.8 0.3,-1.3 -4.8,-6.8 0.9,-4.6 1,-1.4 0.1,-1.4 -36,2 1.7,-11.9 2.4,-4.8 6,-8.4 -1.8,-2.5 h 2 v -3.3 l -2.4,-2.5 0.5,-1.7 -1.2,-1 -1.6,-7.1 0.6,-1.4 -52.3,1.3 0.5,19.9 0.7,3.4 2.6,2.8 0.7,5.4 3.8,4.6 0.8,4.3 h 1 l -0.1,7.3 -3.3,6.4 1.3,2.3 -1.3,1.5 0.7,3 -0.1,4.3 -2.2,3.5 -0.1,0.8 -1.7,1.2 1,1.8 1.2,1.1 1.6,-1.3 5.3,-0.9 6.1,-0.1 9.6,3.8 8,1 1.5,-1.4 1.8,-0.2 4.8,2.2 1.6,-0.4 1.1,-1.5 -4.2,-1.8 -2.2,1 -1.1,-0.2 -1.4,-2 3.3,-2.2 1.6,-0.1 v 1.7 l 1.5,-0.1 3.4,-0.3 0.4,2.3 1.1,0.4 0.6,1.9 4.8,1 1.7,1.6 v 0.7 h -1.2 l -1.5,1.7 1.7,1.2 5.4,1 2.7,2.8 4.4,-1 -3.7,0.2 -0.1,-0.6 2.8,-0.7 0.2,-1.8 1.2,-0.3 V 494 l 1.1,0.1 v 1.6 l 2.5,0.1 0.8,-1.9 0.9,0.3 0.2,2.5 1.2,0.2 -1.8,2 2.6,-0.9 2,-1.1 2.9,-3.3 h -0.7 l -1.3,1.2 -0.4,-0.1 -0.5,-0.8 0.9,-1.2 v -2.3 l 1.1,-0.8 0.7,0.7 1,-0.8 1,-0.1 0.6,1.3 -0.6,1.9 h 2.4 l 5.1,1.7 0.5,1.3 1.6,1.4 2.8,0.1 1.3,0.7 1.8,-1 0.9,-1.7 v -1.7 h -1.4 l -1.2,-1.4 -1.1,-1.1 -3.2,-0.9 -2.6,0.2 -4.2,-2.4 v -2.3 l 1.3,-1 2.4,0.6 -3.1,-1.6 0.2,-0.8 h 3.6 l 2.6,-3.5 -2.6,-1.8 0.8,-1.5 -1.2,-0.8 h -0.8 l -2,2.1 v 2.1 l -0.6,0.7 -1.1,-0.1 -1.6,-1.4 h -1.3 V 477 l 0.6,-0.7 0.8,0.7 1.7,-1.6 0.7,-1.6 0.8,-0.3 z m -10.3,-2.7 1.9,1 0.8,1.1 2.5,0.1 1.5,0.8 0.2,1.4 -0.4,0.6 -0.9,-1.5 -1.4,1.2 -0.9,1.4 -2.8,0.8 -1.6,0.1 -3.7,-1 0.1,-1.7 2,-2 1.1,-2.4 z m -4.7,1.2 v 1.1 l -1.8,2 h -1.2 v -2.2 l 1.6,-1.5 z"
     id="LA"
     class="la">
    <title
       id="title5791">Louisiana</title>
  </path>
  <path
     style="fill:#d0d0d0"
     inkscape:connector-curvature="0"
     d="m 875,128.7 0.6,4 3.2,2 0.8,2.2 2.3,1.4 1.4,-0.3 1,-3 -0.8,-2.9 1.6,-0.9 0.5,-2.8 -0.6,-1.3 3.3,-1.9 -2.2,-2.3 0.9,-2.4 1.4,-2.2 0.5,3.2 1.6,-2 1.3,0.9 1.2,-0.8 v -1.7 l 3.2,-1.3 0.3,-2.9 2.5,-0.2 2.7,-3.7 v -0.7 l -0.9,-0.5 -0.1,-3.3 0.6,-1.1 0.2,1.6 1,-0.5 -0.2,-3.2 -0.9,0.3 -0.1,1.2 -1.2,-1.4 0.9,-1.4 0.6,0.1 1.1,-0.4 0.5,2.8 2,-0.3 2.9,0.7 v -1 l -1.1,-1.2 1.3,0.1 0.1,-2.3 0.6,0.8 0.3,1.9 2.1,1.5 0.2,-1 0.9,-0.2 -0.3,-0.8 0.8,-0.6 -0.1,-1.6 -1.6,-0.2 -2,0.7 1.4,-1.6 0.7,-0.8 1.3,-0.2 0.4,1.3 1.7,1.6 0.4,-2.1 2.3,-1.2 -0.9,-1.3 0.1,-1.7 1.1,0.5 h 0.7 l 1.7,-1.4 0.4,-2.3 2.2,0.3 0.1,-0.7 0.2,-1.6 0.5,1.4 1.5,-1 2.3,-4.1 -0.1,-2.2 -1.4,-2 -3,-3.2 H 921 l -0.8,2.2 -2.9,-3 0.3,-0.8 v -1.5 l -1.6,-4.5 -0.8,-0.2 -0.7,0.4 h -4.8 l -0.3,-3.6 -8.1,-26 -7.3,-3.7 -2.9,-0.1 -6.7,6.6 -2.7,-1 -1,-3.9 H 878 l -6.9,19.5 0.7,6.2 -1.7,2.4 -0.4,4.6 1.3,3.7 0.8,0.2 v 1.6 l -1.6,4.5 -1.5,1.4 -1.3,2.2 -0.4,7.8 -2.4,-1 -1.5,0.4 z m 34.6,-24.7 -1,0.8 v 1.3 l 0.7,-0.8 0.9,0.8 0.4,-0.5 1.1,0.2 -1,-0.8 0.4,-0.8 z m -1.7,2.6 -1,1.1 0.5,0.4 -0.1,1 h 1.1 v -1.8 z m -3,-1.6 0.9,1.3 1,0.5 0.3,-1 V 104 l -1.3,-0.7 -0.4,1.2 z m -1,5 -1.7,-1.7 1.6,-2.4 0.8,0.3 0.2,1.1 1,0.8 v 1.1 l -1,1 z"
     id="ME"
     class="me">
    <title
       id="title5794">Maine</title>
  </path>
  <path
     style="fill:#d0d0d0"
     inkscape:connector-curvature="0"
     d="m 822.9,269.3 v -1.7 h -0.8 v 1.8 z m 11.8,-3.9 1.2,-2.2 0.1,-2.5 -0.6,-0.6 -0.7,0.9 -0.2,2.1 -0.8,1.4 -0.3,1.1 -4.6,1.6 -0.7,0.8 -1.3,0.2 -0.4,0.9 -1.3,0.6 -0.3,-2.5 0.4,-0.7 -0.8,-0.5 0.2,-1.5 -1.6,1 v -2 l 1.2,-0.3 -1.9,-0.4 -0.7,-0.8 0.4,-1.3 -0.8,-0.6 -0.7,1.6 0.5,0.8 -0.7,0.6 -1.1,0.5 -2,-1 -0.2,-1.2 -1,-1.1 -1.4,-1.7 1.5,-0.8 -1,-0.6 v -0.9 l 0.6,-1 1.7,-0.3 -1.4,-0.6 -0.1,-0.7 -1.3,-0.1 -0.4,1.1 -0.6,0.3 0.1,-3.4 1,-1 0.8,0.7 0.1,-1.6 -1,-0.9 -0.9,1.1 -1,1.4 -0.6,-1 0.2,-2.4 0.9,-1 0.9,0.9 1.2,-0.7 -0.4,-1.7 -1,1 -0.9,-2.1 -0.2,-1.7 1.1,-2.4 1.1,-1.4 1.4,-0.2 -0.5,-0.8 0.5,-0.6 -0.3,-0.7 0.2,-2.1 -1.5,0.4 -0.8,1.1 1,1.3 -2.6,3.6 -0.9,-0.4 -0.7,0.9 -0.6,2.2 -1.8,0.5 1.3,0.6 1.3,1.3 -0.2,0.7 0.9,1.2 -1.1,1 0.5,0.3 -0.5,1.3 v 2.1 l -0.5,1.3 0.9,1.1 0.7,3.4 1.3,1.4 1.6,1.4 0.4,2.8 1.6,2 0.4,1.4 v 1 h -0.7 l -1.5,-1.2 -0.4,0.2 -1.2,-0.2 -1.7,-1.4 -1.4,-0.3 -1,0.5 -1.2,-0.3 -0.4,0.2 -1.7,-0.8 -1,-1 -1,-1.3 -0.6,-0.2 -0.8,0.7 -1.6,1.3 -1.1,-0.8 -0.4,-2.3 0.8,-2.1 -0.3,-0.5 0.3,-0.4 -0.7,-1 1,-0.1 1,-0.9 0.4,-1.8 1.7,-2.6 -2.6,-1.8 -1,1.7 -0.6,-0.6 h -1 l -0.6,-0.1 -0.4,-0.4 0.1,-0.5 -1.7,-0.6 -0.8,0.3 -1.2,-0.1 -0.7,-0.7 -0.5,-0.2 -0.2,-0.7 0.6,-0.8 v -0.9 l -1.2,-0.2 -1,-0.9 -0.9,0.1 -1.6,-0.3 -0.9,-0.4 0.2,-1.6 -1,-0.5 -0.2,-0.7 h -0.7 l -0.8,-1.2 0.2,-1 -2.6,0.4 -2.2,-1.6 -1.4,0.3 -0.9,1.4 h -1.3 l -1.7,2.9 -3.3,0.4 -1.9,-1 -2.6,3.8 -2.2,-0.3 -3.1,3.9 -0.9,1.6 -1.8,1.6 -1.7,-11.4 60.5,-11.8 7.6,27.1 10.9,-2.3 v 5.3 l -0.1,3.1 -1,1.8 z m -13.4,-1.8 -1.3,0.9 0.8,1.8 1.7,0.8 -0.4,-1.6 z"
     id="MD"
     class="md">
    <title
       id="title5797">Maryland</title>
  </path>
  <path
     style="fill:#d0d0d0"
     inkscape:connector-curvature="0"
     d="m 899.9,174.2 h 3.4 l 0.9,-0.6 0.1,-1.3 -1.9,-1.8 0.4,1 -1.5,1.5 H 899 l 0.1,0.8 z m -9,1.8 -1.2,-0.6 1,-0.8 0.6,-2.1 1.2,-1 0.8,-0.2 0.6,0.9 1.1,0.2 0.6,-0.6 0.5,1.9 -1.3,0.3 -2.8,0.7 z m -34.9,-23.4 18.4,-3.8 1,-1.5 0.3,-1.7 1.9,-0.6 0.5,-1.1 1.7,-1.1 1.3,0.3 1.7,3.3 1,0.4 1.1,-1.3 0.8,1.3 v 1.1 l -3,2.4 0.2,0.8 -0.9,1 0.4,0.8 -1.3,0.3 0.9,1.2 -0.8,0.7 0.6,1 0.9,-0.2 0.3,-0.8 1.1,0.6 h 1.8 l 2.5,2.6 0.2,2.6 1.8,0.1 0.8,1.1 0.6,2 1,0.7 h 1.9 l 1.9,-0.1 0.8,-0.9 1.6,-1.2 1.1,-0.3 -1.2,-2.1 -0.3,0.9 -1.5,-3.6 h -0.8 l -0.4,0.9 -1.2,-1 1.3,-1.1 1.8,0.4 2.3,2.1 1.3,2.7 1.2,3.3 -1,2.8 v -1.8 l -0.7,-1 -3.5,2.3 -0.9,-0.3 -1.6,1 -0.1,1.2 -2.2,1.2 -2,2.1 -2,1.9 h -1.2 l 3.3,-3.3 0.5,-1.9 -0.5,-0.6 -0.3,-1.3 -0.9,-0.1 -0.1,1.3 -1,1.2 h -1.2 l -0.3,1.1 0.4,1.2 -1.2,1.1 -1.1,-0.2 -0.4,1 -1.4,-3 -1.3,-1.1 -2.6,-1.3 -0.6,-2.2 h -0.8 l -0.7,-2.6 -6.5,2 -0.1,-0.3 -14.9,3.4 v 0.7 l -0.9,0.3 -0.5,-0.7 -10.5,2.4 -0.7,-1 0.5,-15 z"
     id="MA"
     class="ma">
    <title
       id="title5800">Massachusetts</title>
  </path>
  <path
     style="fill:#d0d0d0"
     inkscape:connector-curvature="0"
     d="m 663.3,209.8 0.1,1.4 21.4,-3.5 0.5,-1.2 3.9,-5.9 v -4.3 l 0.8,-2.1 2.2,-0.8 2,-7.8 1,-0.5 1,0.6 -0.2,0.6 -1.1,0.8 0.3,0.9 0.8,0.4 1.9,-1.4 0.4,-9.8 -1.6,-2.3 -1.2,-3.7 v -2.5 l -2.3,-4.4 v -1.8 l -1.2,-3.3 -2.3,-3 -2.9,-1 -4.8,3 -2.5,4.6 -0.2,0.9 -3,3.5 -1.5,-0.2 -2.9,-2.8 -0.1,-3.4 1.5,-1.9 2,-0.2 1.2,-1.7 0.2,-4 0.8,-0.8 1.1,-0.1 0.9,-1.7 -0.2,-9.6 -0.3,-1.3 -1.2,-1.2 -1.7,-1 -0.1,-1.8 0.7,-0.6 1.8,0.8 -0.3,-1.7 -1.9,-2.7 -0.7,-1.6 -1.1,-1.1 h -2.2 l -8.1,-2.9 -1.4,-1.7 -3.1,-0.3 -1.2,0.3 -4.4,-2.3 h -1.4 l 0.5,1 -2.7,-0.1 0.1,0.6 0.6,0.6 -2.5,2.1 0.1,1.8 1.5,2.3 1.5,0.2 v 0.6 l -1.5,0.5 -2.1,-0.1 -2.8,2.5 0.1,2.5 0.4,5.8 -2.2,3.4 0.8,-4.5 -0.8,-0.6 -0.9,5.3 -1,-2.3 0.5,-2.3 -0.5,-1 0.6,-1.3 -0.6,-1.1 1,-1 v -1.2 l -1.3,0.6 -1.3,3.1 -0.7,0.7 -1.3,2.4 -1.7,-0.2 -0.1,1.2 h -1.6 l 0.2,1.5 0.2,2 -3,1.2 0.1,1.3 1,1.7 -0.1,5.2 -1.3,4.4 -1.7,2.5 1.2,1.4 0.8,3.5 -1,2.5 -0.2,2.1 1.7,3.4 2.5,4.9 1.2,1.9 1.6,6.9 -0.1,8.8 -0.9,3.9 -2,3.2 -0.9,3.7 -2,3 -1.2,1 z m -95.8,-96.8 3,3.8 17,3.8 1.4,1 4,0.8 0.7,0.5 2.8,-0.2 4.9,0.8 1.4,1.5 -1,1 0.8,0.8 3.8,0.7 1.2,1.2 0.1,4.4 -1.3,2.8 2,0.1 1,-0.8 0.9,0.8 -1.1,3.1 1,1.6 1.2,0.3 0.8,-1.8 2.9,-4.6 1.6,-6 2.3,-2 -0.5,-1.6 0.5,-0.9 1,1.6 -0.3,2.2 2.9,-2.2 0.2,-2.3 2.1,0.6 0.8,-1.6 0.7,0.6 -0.7,1.5 -1,0.5 -1,2 1.4,1.8 1.1,-0.5 -0.5,-0.7 1,-1.5 1.9,-1.7 h 0.8 l 0.2,-2.6 2,-1.8 7.9,-0.5 1.9,-3.1 3.8,-0.3 3.8,1.2 4.2,2.7 0.7,-0.2 -0.2,-3.5 0.7,-0.2 4.5,1.1 1.5,-0.2 2.9,-0.7 1.7,0.4 1.8,0.1 v -1.1 l -0.7,-0.9 -1.5,-0.2 -1.1,-0.8 0.5,-1.4 -0.8,-0.3 -2.6,0.1 -0.1,-1 1.1,-0.8 0.6,0.8 0.5,-1.8 -0.7,-0.7 0.7,-0.2 -1.4,-1.3 0.3,-1.3 0.1,-1.9 h -1.3 l -1.5,1 -1.9,0.1 -0.5,1.8 -1.9,0.2 -0.3,-1.2 -2.2,0.1 -1,1.2 -0.7,-0.1 -0.2,-0.8 -2.6,0.4 -0.1,-4.8 1,-2 -0.7,-0.1 -1.8,1.1 h -2.2 l -3.8,2.7 -6.2,0.3 -4.1,0.8 -1.9,1.5 -1.4,1.3 -2.5,1.7 -0.3,0.8 -0.6,-1.7 -1.3,-0.6 v 0.6 l 0.7,0.7 v 1.3 l -1.5,-0.6 h -0.6 l -0.3,1.2 -2,-1.9 -1.3,-0.2 -1.3,1.5 -3.2,-0.1 -0.5,-1.4 -2,-1.9 -1.3,-1.6 v -0.7 l -1.1,-1.4 -2.6,-1.2 -3.3,-0.1 -1.1,-0.9 h -1.4 l -0.7,0.4 -2.2,2.2 -0.7,1.1 -1,-0.7 0.2,-1 0.8,-2.1 3.2,-5 0.8,-0.2 1.7,-1.9 0.7,-1.6 3,-0.6 0.8,-0.6 -0.1,-1 -0.5,-0.5 -4.5,0.2 -2,0.5 -2.6,1.2 -1.2,1.2 -1.7,2.2 -1.8,1 -3.3,3.4 -0.4,1.6 -7.4,4.6 -4,0.5 -1.8,0.4 -2.3,3 -1.8,0.7 -4.4,2.3 z m 100.7,3.8 3.8,0.1 0.6,-0.5 -0.2,-2 -1.7,-1.8 -1.9,0.1 -0.1,0.5 1.1,0.4 -1.6,0.8 -0.3,1 -0.6,-0.6 -0.4,0.8 z m -75.1,-41.9 -2.3,0.2 -2.7,1.9 -7.1,5.3 0.8,1 1.8,0.3 2.8,-2 -1.1,-0.5 2.3,-1.6 h 1 l 3,-1.9 -0.1,-0.9 z m 41.1,62.8 v 1 l 2.1,1.6 -0.2,-2.4 z m -0.7,2.8 1.1,0.1 v 0.9 h -1 z m 21.4,-21.3 v 0.9 l 0.8,-0.2 v -0.5 z m 4.7,3.1 -0.1,-1.1 -1.6,-0.2 -0.6,-0.4 h -0.9 l -0.4,0.3 0.9,0.4 1.1,1.1 z m -18,1.2 -0.1,1.1 -0.3,0.7 0.2,2.2 0.4,0.3 0.7,0.1 0.5,-0.9 0.1,-1.6 -0.3,-0.6 -0.1,-1.1 z"
     id="MI"
     class="mi">
    <title
       id="title5803">Michigan</title>
  </path>
  <path
     style="fill:#d0d0d0"
     inkscape:connector-curvature="0"
     d="m 464.7,68.6 -1.1,2.8 0.8,1.4 -0.3,5.1 -0.5,1.1 2.7,9.1 1.3,2.5 0.7,14 1,2.7 -0.4,5.8 2.9,7.4 0.3,5.8 -0.1,2.1 -0.1,2.2 -0.9,2 -3.1,1.9 -0.3,1.2 1.7,2.5 0.4,1.8 2.6,0.6 1.5,1.9 -0.2,39.5 h 28.2 l 36.3,-0.9 18.6,-0.7 -1.1,-4.5 -0.2,-3 -2.2,-3 -2.8,-0.7 -5.2,-3.6 -0.6,-3.3 -6.3,-3.1 -0.2,-1.3 h -3.3 l -2.2,-2.6 -2,-1.3 0.7,-5.1 -0.9,-1.6 0.5,-5.4 1,-1.8 -0.3,-2.7 -1.2,-1.3 -1.8,-0.3 v -1.7 l 2.8,-5.8 5.9,-3.9 -0.4,-13 0.9,0.4 0.6,-0.5 0.1,-1.1 0.9,-0.6 1.4,1.2 0.7,-0.1 v 0 l -1.2,-2.2 4.3,-3.1 3.1,-3.7 1.6,-0.8 4.7,-5.9 6.3,-5.8 3.9,-2.1 6.3,-2.7 7.6,-4.5 -0.6,-0.4 -3.7,0.7 -2.8,0.1 -1,-1.6 -1.4,-0.9 -9.8,1.2 -1,-2.8 -1.6,-0.1 -1.7,0.8 -3.7,3.1 h -4.1 l -2.1,-1 -0.3,-1.7 -3.9,-0.8 -0.6,-1.6 -0.7,-1.3 -1,0.9 -2.6,0.1 -9.9,-5.5 h -2.9 l -0.8,-0.7 -3.1,1.3 -0.8,1.3 -3.3,0.8 -1.3,-0.2 V 69.9 L 512.7,69 h -5.9 l -0.4,-1.4 h -2.6 l -1.1,0.4 -2.4,-1.7 0.3,-1.4 -0.6,-2.4 -0.7,-1.1 -0.2,-3 -1,-3.1 -2.1,-1.6 h -2.9 l 0.1,8 -30.9,-0.4 z"
     id="MN"
     class="mn">
    <title
       id="title5806">Minnesota</title>
  </path>
  <path
     style="fill:#d0d0d0"
     inkscape:connector-curvature="0"
     d="m 623.8,468.6 -5,0.1 -2.4,-1.5 -7.9,2.5 -0.9,-0.7 -0.5,0.2 -0.1,1.6 -0.6,0.1 -2.6,2.7 -0.7,-0.1 -0.6,-0.7 -1.2,-1.8 0.3,-1.3 -4.8,-6.8 0.9,-4.6 1,-1.4 0.1,-1.4 -36,2 1.7,-11.9 2.4,-4.8 6,-8.4 -1.8,-2.5 h 2 v -3.3 l -2.4,-2.5 0.5,-1.7 -1.2,-1 -1.6,-7.1 0.6,-1.4 1.2,-1.5 0.5,-3 -1.5,-2.3 -0.5,-2.2 0.9,-0.7 v -0.8 l -1.7,-1.1 -0.1,-0.7 1.6,-0.9 -1.2,-1.1 1.7,-7.1 3.4,-1.6 v -0.8 l -1.1,-1.4 2.9,-5.4 h 1.9 l 1.5,-1.2 -0.3,-5.2 3.1,-4.5 1.8,-0.6 -0.5,-3.1 38.3,-2.6 1.3,2 -1.3,67 4.4,33.2 z"
     id="MS"
     class="ms">
    <title
       id="title5809">Mississippi</title>
  </path>
  <path
     style="fill:#d0d0d0"
     inkscape:connector-curvature="0"
     d="m 555.3,248.9 -1.1,-1.1 -0.6,-1.6 -1.7,-1.3 -14.3,0.8 -27.2,1.2 -25.9,-0.1 1.3,1.3 -0.3,1.4 2.1,3.7 3.9,6.3 2.9,3 2,0.6 0.9,-1 1.5,2.1 -0.1,1.2 -2.7,2.6 -0.5,2.3 2.5,2.5 2.6,4.7 3.2,0.7 0.5,48.1 0.2,10.8 39.1,-0.7 39.8,-2 1.6,2.5 v 2.2 l -1.7,1.5 -2.8,5.1 11.2,-0.8 1,-2 1.2,-0.5 v -0.7 l -1.2,-1.1 -0.6,-1 1.7,0.2 0.8,-0.7 -1.4,-1.5 1.4,-0.5 0.1,-1 -0.6,-1 v -1.3 l -0.7,-0.7 0.2,-1 h 1.1 l 0.7,0.7 -0.3,1 0.8,0.7 0.8,-1 1,-2.7 1.4,0.9 0.7,-0.4 1.2,-4.1 -1,-1 1,-2 0.2,-0.9 -1.3,-0.8 h -2.8 l -1.4,-1.5 -1.8,-3.8 v -1.9 l 0.8,-0.6 0.1,-1.3 -1.7,-1.9 -0.9,-2.5 -2.7,-4.1 -4.8,-1.3 -7.4,-7.1 -0.4,-2.4 2.8,-7.6 -0.4,-1.9 1.2,-1.1 v -1.3 l -2.8,-1.5 -3,-0.7 -3.4,1.2 -1.3,-2.3 0.6,-1.9 -0.7,-2.4 -8.6,-8.4 -2.2,-1.5 -2.5,-5.9 -1.2,-5.4 1.4,-3.7 z"
     id="MO"
     class="mo">
    <title
       id="title5812">Missouri</title>
  </path>
  <path
     style="fill:#d0d0d0"
     inkscape:connector-curvature="0"
     d="m 247,130.5 57.3,7.9 51,5.3 2,-20.7 5.2,-66.7 L 309,50.7 254.7,43 188.8,30.5 l -4.8,22 3.7,7.4 -1.6,4.8 3.6,4.8 1.9,0.7 3.9,8.3 v 2.1 l 2.3,3 h 0.9 l 1.4,2.1 h 3.2 v 1.6 l -7.1,17 -0.5,4.1 1.4,0.5 1.6,2.6 2.8,-1.4 3.6,-2.4 1.9,1.9 0.5,2.5 -0.5,3.2 2.5,9.7 2.6,3.5 2.3,1.4 0.4,3 v 4.1 l 2.3,2.3 1.6,-2.3 6.9,1.6 2.1,-1.2 9,1.7 2.8,-3.3 1.8,-0.6 1.2,1.8 1.6,4.1 0.9,0.1 z"
     id="MT"
     class="mt">
    <title
       id="title5815">Montana</title>
  </path>
  <path
     style="fill:#d0d0d0"
     inkscape:connector-curvature="0"
     d="m 402.5,191.1 38,1.6 3.4,3.2 1.7,0.2 2.1,2 1.8,-0.1 1.8,-2 1.5,0.6 1,-0.7 0.7,0.5 0.9,-0.4 0.7,0.4 0.9,-0.4 1,0.5 1.4,-0.6 2,0.6 0.6,1.1 6.1,2.2 1.2,1.3 0.9,2.6 1.8,0.7 1.5,-0.2 0.5,0.9 v 2.3 l 0.6,1.7 v 1.4 l 1.3,3.7 2.2,4.3 0.2,3.7 2.8,5 0.4,6.1 1.3,0.7 -0.2,2.9 0.8,3.3 -0.7,2.2 1.8,4.4 1.3,1.3 -0.3,1.4 2.1,3.7 3.9,6.3 h -32.4 l -43.7,-1.2 -36,-2 1.4,-22.1 -33.1,-2.4 3.7,-44.2 z"
     id="NE"
     class="ne">
    <title
       id="title5818">Nebraska</title>
  </path>
  <path
     style="fill:#d0d0d0"
     inkscape:connector-curvature="0"
     d="m 167.6,296.8 -3.4,17.5 -2.4,2.9 h -2 l -1.2,-2.7 -3.7,-1.4 -3.5,0.6 -1,13.6 0.5,4.9 -0.5,2.9 -1.4,3 -70.4,-105 -1.1,-3.5 16.4,-63.1 47,11.2 24.4,5.4 23.3,4.7 z"
     id="NV"
     class="nv">
    <title
       id="title5821">Nevada</title>
  </path>
  <path
     style="fill:#d0d0d0"
     inkscape:connector-curvature="0"
     d="m 862.6,93.6 -1.3,0.1 -1,-1.1 -1.9,1.4 -0.5,6.1 1.2,2.3 -1.1,3.5 2.1,2.8 -0.4,1.7 0.1,1.3 -1.1,2.1 -1.4,0.4 -0.6,1.3 -2.1,1 -0.7,1.5 1.4,3.4 -0.5,2.5 0.5,1.5 -1,1.9 0.4,1.9 -1.3,1.9 0.2,2.2 -0.7,1.1 0.7,4.5 0.7,1.5 -0.5,2.6 0.9,1.8 -0.2,2.5 -0.5,1.3 -0.1,1.4 2.1,2.6 18.4,-3.8 1,-1.5 0.3,-1.7 1.9,-0.6 0.5,-1.1 1.7,-1.1 1.3,0.3 0.8,-4.8 -2.3,-1.4 -0.8,-2.2 -3.2,-2 -0.6,-4 -11.9,-36.8 z"
     id="NH"
     class="nh">
    <title
       id="title5824">New Hampshire</title>
  </path>
  <path
     style="fill:#d0d0d0"
     inkscape:connector-curvature="0"
     d="m 842.5,195.4 -14.6,-4.9 -1.8,2.5 0.1,2.2 -3,5.4 1.5,1.8 -0.7,2 -1,1 0.5,3.6 2.7,0.9 1,2.8 2.1,1.1 4.2,3.2 -3.3,2.6 -1.6,2.3 -1.8,3 -1.6,0.6 -1.4,1.7 -1,2.2 -0.3,2.1 0.8,0.9 0.4,2.3 1.2,0.6 2.4,1.5 1.8,0.8 1.6,0.8 0.1,1.1 0.8,0.1 1.1,-1.2 0.8,0.4 2.1,0.2 -0.2,2.9 0.2,2.5 1.8,-0.7 1.5,-3.9 1.6,-4.8 2.9,-2.8 0.6,-3.5 -0.6,-1.2 1.7,-2.9 v -1.2 l -0.7,-1.1 1.2,-2.7 -0.3,-3.6 -0.6,-8.2 -1.2,-1.4 v 1.4 l 0.5,0.6 h -1.1 l -0.6,-0.4 -1.3,-0.2 -0.9,0.6 -1.2,-1.6 0.7,-1.7 v -1 l 1.7,-0.7 0.8,-2.1 z"
     id="NJ"
     class="nj">
    <title
       id="title5827">New Jersey</title>
  </path>
  <path
     style="fill:#d0d0d0"
     inkscape:connector-curvature="0"
     d="m 357.5,332.9 h -0.8 l -7.9,99.3 -31.8,-2.6 -34.4,-3.6 -0.3,3 2,2.2 -30.8,-4.1 -1.4,10.2 -15.7,-2.2 17.4,-124.1 52.6,6.5 51.7,4.8 z"
     id="NM"
     class="nm">
    <title
       id="title5830">New Mexico</title>
  </path>
  <path
     style="fill:#d0d0d0"
     inkscape:connector-curvature="0"
     d="m 872.9,181.6 -1.3,0.1 -0.5,1 z m -30.6,22.7 0.7,0.6 1.3,-0.3 1.1,0.3 0.9,-1.3 h 1.9 l 2.4,-0.9 5.1,-2.1 -0.5,-0.5 -1.9,0.8 -2,0.9 0.2,-0.8 2.6,-1.1 0.8,-1 1.2,0.1 4.1,-2.3 v 0.7 l -4.2,3 4.5,-2.8 1.7,-2.2 1.5,-0.1 4.5,-3.1 3.2,-3.1 3,-2.3 1,-1.2 -1.7,-0.1 -1,1.2 -0.2,0.7 -0.9,0.7 -0.8,-1.1 -1.7,1 -0.1,0.9 -0.9,-0.2 0.5,-0.9 -1.2,-0.7 -0.6,0.9 0.9,0.3 0.2,0.5 -0.3,0.5 -1.4,2.6 h -1.9 l 0.9,-1.8 0.9,-0.6 0.3,-1.7 1.4,-1.6 0.9,-0.8 1.5,-0.7 -1.2,-0.2 -0.7,0.9 h -0.7 l -1.1,0.8 -0.2,1 -2.2,2.1 -0.4,0.9 -1.4,0.9 -7.7,1.9 0.2,0.9 -0.9,0.7 -2,0.3 -1,-0.6 -0.2,1.1 -1.1,-0.4 0.1,1 -1.2,-0.1 -1.2,0.5 -0.2,1.1 h -1 l 0.2,1 h -0.7 l 0.2,1 -1.8,0.4 -1.5,2.3 z m -0.8,-0.4 -1.6,0.4 v 1 l -0.7,1.6 0.6,0.7 2.4,-2.3 -0.1,-0.9 z m -10.1,-95.2 -0.6,1.9 1.4,0.9 -0.4,1.5 0.5,3.2 2.2,2.3 -0.4,2.2 0.6,2 -0.4,1 -0.3,3.8 3.1,6.7 -0.8,1.8 0.9,2.2 0.9,-1.6 1.9,1.5 3,14.2 -0.5,2 1.1,1 -0.5,15 0.7,1 2.8,16.3 1.8,1.5 -3.5,3.4 1.7,2.2 -1.3,3.3 -1.5,1.7 -1.5,2.3 -0.2,-0.7 0.4,-5.9 -14.6,-4.9 -1.6,-1.1 -1.9,0.3 -3,-2.2 -3,-5.8 h -2 l -0.4,-1.5 -1.7,-1.1 -70.5,13.9 -0.8,-6 4.3,-3.9 0.6,-1.7 3.9,-2.5 0.6,-2.4 2.3,-2 0.8,-1.1 -1.7,-3.3 -1.7,-0.5 -1.8,-3 -0.2,-3.2 7.6,-3.9 8.2,-1.6 h 4.4 l 3.2,1.6 0.9,-0.1 1.8,-1.6 3.4,-0.7 h 3 l 2.6,-1.3 2.5,-2.6 2.4,-3.1 1.9,-0.4 1.1,-0.5 0.4,-3.2 -1.4,-2.7 -1.2,-0.7 2,-1.3 -0.1,-1.8 h -1.5 l -2.3,-1.4 -0.1,-3.1 6.2,-6.1 0.7,-2.4 3.7,-6.3 5.9,-6.4 2.1,-1.7 2.5,0.1 20.6,-5.2 z"
     id="NY"
     class="ny">
    <title
       id="title5833">New York</title>
  </path>
  <path
     style="fill:#d0d0d0"
     inkscape:connector-curvature="0"
     d="m 829,300.1 -29.1,6.1 -39.4,7.3 -29.4,3.5 v 5.2 l -1.5,-0.1 -1.4,1.2 -2.4,5.2 -2.6,-1.1 -3.5,2.5 -0.7,2.1 -1.5,1.2 -0.8,-0.8 -0.1,-1.5 -0.8,-0.2 -4,3.3 -0.6,3.4 -4.7,2.4 -0.5,1.2 -3.2,2.6 -3.6,0.5 -4.6,3 -0.8,4.1 -1.3,0.9 -1.5,-0.1 -1.4,1.3 -0.1,4.9 21.4,-3 4.4,-1.9 1.3,-0.1 7.3,-4.3 23.2,-2.2 0.4,0.5 -0.2,1.4 0.7,0.3 1.2,-1.5 3.3,3 0.1,2.6 19.7,-2.8 24.5,17.1 4,-2.2 3,-0.7 h 1.7 l 1.1,1.1 0.8,-2 0.6,-5 1.7,-3.9 5.4,-6.1 4.1,-3.5 5.4,-2.3 2.5,-0.4 1.3,0.4 0.7,1.1 3.3,-6.6 3.3,-5.3 -0.7,-0.3 -4.4,6.8 -0.5,-0.8 2,-2.2 -0.4,-1.5 -2,-0.5 1,1.3 -1.2,0.1 -1.2,-1.8 -1.2,2 -1.6,0.2 1,-2.7 0.7,-1.7 -0.2,-2.9 -2.2,-0.1 0.9,-0.9 1.1,0.3 2.7,0.1 0.8,-0.5 h 2.3 l 2,-1.9 0.2,-3.2 1.3,-1.4 1.2,-0.2 1.3,-1 -0.5,-3.7 -2.2,-3.8 -2.7,-0.2 -0.9,1.6 -0.5,-1 -2.7,0.2 -1.2,0.4 -1.9,1.2 -0.3,-0.4 h -0.9 l -1.8,1.2 -2.6,0.5 v -1.3 l 0.8,-1 1,0.7 h 1 l 1.7,-2.1 3.7,-1.7 2,-2.2 h 2.4 l 0.8,1.3 1.7,0.8 -0.5,-1.5 -0.3,-1.6 -2.8,-3.1 -0.3,-1.4 -0.4,1 -0.9,-1.3 z m 7,31 2.7,-2.5 4.6,-3.3 v -3.7 l -0.4,-3.1 -1.7,-4.2 1.5,1.4 1,3.2 0.4,7.6 -1.7,0.4 -3.1,2.4 -3.2,3.2 z m 1.9,-19.3 -0.9,-0.2 v 1 l 2.5,2.2 -0.2,-1.4 z m 2.9,2.1 -1.4,-2.8 -2.2,-3.4 -2.4,-3 -2.2,-4.3 -0.8,-0.7 2.2,4.3 0.3,1.3 3.4,5.5 1.8,2.1 z"
     id="NC"
     class="nc">
    <title
       id="title5836">North Carolina</title>
  </path>
  <path
     style="fill:#d0d0d0"
     inkscape:connector-curvature="0"
     d="m 464.7,68.6 -1.1,2.8 0.8,1.4 -0.3,5.1 -0.5,1.1 2.7,9.1 1.3,2.5 0.7,14 1,2.7 -0.4,5.8 2.9,7.4 0.3,5.8 -0.1,2.1 -29.5,-0.4 -46,-2.1 -39.2,-2.9 5.2,-66.7 44.5,3.4 55.3,1.6 z"
     id="ND"
     class="nd">
    <title
       id="title5839">North Dakota</title>
  </path>
  <path
     style="fill:#d0d0d0"
     inkscape:connector-curvature="0"
     d="m 685.7,208.8 1.9,-0.4 3,1.3 2.1,0.6 0.7,0.9 h 1 l 1,-1.5 1.3,0.8 h 1.5 l -0.1,1 -3.1,0.5 -2,1.1 1.9,0.8 1.6,-1.5 2.4,-0.4 2.2,1.5 1.5,-0.1 2.5,-1.7 3.6,-2.1 5.2,-0.3 4.9,-5.9 3.8,-3.1 9.3,-5.1 4.9,29.9 -2.2,1.2 1.4,2.1 -0.1,2.2 0.6,2 -1.1,3.4 -0.1,5.4 -1,3.6 0.5,1.1 -0.4,2.2 -1.1,0.5 -2,3.3 -1.8,2 h -0.6 l -1.8,1.7 -1.3,-1.2 -1.5,1.8 -0.3,1.2 h -1.3 l -1.3,2.2 0.1,2.1 -1,0.5 1.4,1.1 v 1.9 l -1,0.2 -0.7,0.8 -1,0.5 -0.6,-2.1 -1.6,-0.5 -1,2.3 -0.3,2.2 -1.1,1.3 1.3,3.6 -1.5,0.8 -0.4,3.5 h -1.5 l -3.2,1.4 -1.2,-2.1 -3.5,-1.4 -0.8,-2.9 -0.5,-0.8 -3.4,1.8 -0.6,1.7 h -0.9 l -1.3,0.7 -1.2,-0.8 -3,-0.8 -1.9,0.8 v 1 l -2.2,-0.2 -1.9,-2.1 -2.3,0.2 -4.1,-0.7 v -1 l -2.2,-3.4 -2.9,-1.2 -1.9,0.8 -2.2,-0.1 -1.3,-0.5 -6.6,-57.2 21.4,-3.5 z"
     id="OH"
     class="oh">
    <title
       id="title5842">Ohio</title>
  </path>
  <path
     style="fill:#d0d0d0"
     inkscape:connector-curvature="0"
     d="m 501.5,398.6 -4.6,-3.8 -2.2,-0.9 -0.5,1.6 -5.1,0.3 -0.6,-1.5 -5,2.5 -1.6,-0.7 -3.7,0.3 -0.6,1.7 -3.6,0.9 -1.3,-1.2 -1.2,0.1 -2,-1.8 -2.1,0.7 -2,-0.5 -1.8,-2 -2.5,4.2 -1.2,0.8 -1,-1.8 0.3,-2 -1.2,-0.7 -2.3,2.5 -1.7,-1.2 -0.1,-1.5 -1.3,0.5 -2.6,-1.7 -3,2.6 -2.3,-1.1 0.7,-2.1 -2.3,0.1 -1.9,-3 -3.5,-1.1 -2,2.3 -2.3,-2.2 -1.4,0.4 -2,0.1 -3.5,-1.9 -2.3,0.1 -1.2,-0.7 -0.5,-2.9 -2.3,-1.7 -1.1,1.5 -1.4,-1 -1.2,-0.4 -1.1,1 -1.5,-0.3 -2.5,-3 -2.7,-1.3 1.4,-42.7 -52.6,-3.2 0.6,-10.6 16.5,1 67.7,2.9 62,0.1 0.2,10.8 4.1,24.4 -0.7,39 z"
     id="OK"
     class="ok">
    <title
       id="title5845">Oklahoma</title>
  </path>
  <path
     style="fill:#d0d0d0"
     inkscape:connector-curvature="0"
     d="m 93.9,166.5 47,11.2 8.5,-37.3 2.9,-5.8 0.4,-2.1 0.8,-0.9 -0.9,-2 -2.9,-1.2 0.2,-4.2 4,-5.8 2.5,-0.8 1.6,-2.3 -0.1,-1.6 1.8,-1.6 3.2,-5.5 4.2,-4.8 -0.5,-3.2 -3.5,-3.1 -1.6,-3.6 -30.3,-7.3 -2.8,1 -5.4,-0.9 -1.8,-0.9 -1.5,1.2 -3.3,-0.4 -4.5,0.5 -0.9,0.7 -4.2,-0.4 -0.8,-1.6 -1.2,-0.2 -4.4,1.3 -1.6,-1.1 -2.2,0.8 -0.2,-1.8 -2.3,-1.2 -1.5,-0.2 -1,-1.1 -3,0.3 -1.2,-0.8 h -1.2 l -1.2,0.9 -5.5,0.7 -6.6,-4.2 1.1,-5.6 -0.4,-4.1 -3.2,-3.7 -3.7,0.1 -0.4,-1.1 0.4,-1.2 -0.7,-0.8 -1,0.1 -1.1,1.3 -1.5,-0.2 -0.5,-1.1 -1,-0.1 -0.7,0.6 -2,-1.9 v 4.3 l -1.3,1.3 -1.1,3.5 -0.1,2.3 -4.5,12.3 -13.2,31.3 -3.2,4.6 -1.6,-0.1 0.1,2.1 -5.2,7.1 -0.3,3.3 1,1.3 0.1,2.4 -1.2,1.1 -1.2,3 0.1,5.7 1.2,2.9 z"
     id="OR"
     class="or">
    <title
       id="title5848">Oregon</title>
  </path>
  <path
     style="fill:#d0d0d0"
     inkscape:connector-curvature="0"
     d="m 826.3,189.4 -1.9,0.3 -3,-2.2 -3,-5.8 h -2 l -0.4,-1.5 -1.7,-1.1 -70.5,13.9 -0.8,-6 -4.2,3.4 -0.9,0.1 -2.7,3 -3.3,1.7 4.9,29.9 3.2,19.7 17.4,-2.9 60.5,-11.8 1.2,-2.1 1.5,-1.1 1.6,-0.3 1.6,0.6 1.4,-1.7 1.6,-0.6 1.8,-3 1.6,-2.3 3.3,-2.6 -4.2,-3.2 -2.1,-1.1 -1,-2.8 -2.7,-0.9 -0.5,-3.6 1,-1 0.7,-2 -1.5,-1.8 3,-5.4 -0.1,-2.2 1.8,-2.5 z"
     id="PA"
     class="pa">
    <title
       id="title5851">Pennsylvania</title>
  </path>
  <path
     style="fill:#d0d0d0"
     inkscape:connector-curvature="0"
     d="m 883.2,170.7 -1.3,-1.1 -2.6,-1.3 -0.6,-2.2 h -0.8 l -0.7,-2.6 -6.5,2 3.2,12.3 -0.4,1.1 0.4,1.8 5.6,-3.6 0.1,-3 -0.8,-0.8 0.4,-0.6 -0.1,-1.3 -0.9,-0.7 1.2,-0.4 -0.9,-1.6 1.8,0.7 0.3,1.4 0.7,1.2 -1.4,-0.8 1.1,1.7 -0.3,1.2 -0.6,-1.1 v 2.5 l 0.6,-0.9 0.4,0.9 1.3,-1.5 -0.2,-2.5 1.4,3.1 1,-0.9 z m -4.7,12.2 h 0.9 l 0.5,-0.6 -0.8,-1.3 -0.7,0.7 z"
     id="RI"
     class="ri">
    <title
       id="title5854">Rhode Island</title>
  </path>
  <path
     style="fill:#d0d0d0"
     inkscape:connector-curvature="0"
     d="m 772.3,350.2 -19.7,2.8 -0.1,-2.6 -3.3,-3 -1.2,1.5 -0.7,-0.3 0.2,-1.4 -0.4,-0.5 -23.2,2.2 -7.3,4.3 -1.3,0.1 -4.4,1.9 -0.1,1.9 -1.9,1 -1.4,3.2 0.2,1.3 6.1,3.8 2.6,-0.3 3.1,4 0.4,1.7 4.2,5.1 2.6,1.7 1.4,0.2 2.2,1.6 1.1,2.2 2,1.6 1.8,0.5 2.7,2.7 0.1,1.4 2.6,2.8 5,2.3 3.6,6.7 0.3,2.7 3.9,2.1 2.5,4.8 0.8,3.1 4.2,0.4 0.8,-1.5 h 0.6 l 1.8,-1.5 0.5,-2 3.2,-2.1 0.3,-2.4 -1.2,-0.9 0.8,-0.7 0.8,0.4 1.3,-0.4 1.8,-2.1 3.8,-1.8 1.6,-2.4 0.1,-0.7 4.8,-4.4 -0.1,-0.5 -0.9,-0.8 1.1,-1.5 h 0.8 l 0.4,0.5 0.7,-0.8 h 1.3 l 0.6,-1.5 2.3,-2.1 -0.3,-5.4 0.8,-2.3 3.6,-6.2 2.4,-2.2 2.2,-1.1 z"
     id="SC"
     class="sc">
    <title
       id="title5857">South Carolina</title>
  </path>
  <path
     style="fill:#d0d0d0"
     inkscape:connector-curvature="0"
     d="m 396.5,125.9 46,2.1 29.5,0.4 -0.1,2.2 -0.9,2 -3.1,1.9 -0.3,1.2 1.7,2.5 0.4,1.8 2.6,0.6 1.5,1.9 -0.2,39.5 -2.2,-0.1 -0.1,1.6 1.3,1.5 -0.1,1.1 -1,0.5 0.4,1.6 1.3,0.4 0.7,2 -1.7,5.1 -1,4.3 1.3,1.2 0.3,1.3 0.7,1.7 -1.5,0.2 -1.8,-0.7 -0.9,-2.6 -1.2,-1.3 -6.1,-2.2 -0.6,-1.1 -2,-0.6 -1.4,0.6 -1,-0.5 -0.9,0.4 -0.7,-0.4 -0.9,0.4 -0.7,-0.5 -1,0.7 -1.5,-0.6 -1.8,2 -1.8,0.1 -2.1,-2 -1.7,-0.2 -3.4,-3.2 -38,-1.6 -51.1,-3.5 3.9,-43.9 2,-20.7 z"
     id="SD"
     class="sd">
    <title
       id="title5860">South Dakota</title>
  </path>
  <path
     style="fill:#d0d0d0"
     inkscape:connector-curvature="0"
     d="m 620.9,365.1 45.7,-4 22.9,-2.9 0.1,-4.9 1.4,-1.3 1.5,0.1 1.3,-0.9 0.8,-4.1 4.6,-3 3.6,-0.5 3.2,-2.6 0.5,-1.2 4.7,-2.4 0.6,-3.4 4,-3.3 0.8,0.2 0.1,1.5 0.8,0.8 1.5,-1.2 0.7,-2.1 3.5,-2.5 2.6,1.1 2.4,-5.2 1.4,-1.2 1.5,0.1 V 317 l 0.3,-0.7 -4.6,0.5 -0.2,1 -28.9,3.3 -5.6,1.4 -20.5,1.4 -5.2,0.8 -17.4,1 -2.6,0.8 -22.6,2 -0.7,-0.6 h -3.7 l 1.2,3.2 -0.6,0.9 -23.3,1.5 -0.8,1 -0.8,-0.7 h -1 v 1.3 l 0.6,1 -0.1,1 -1.4,0.5 1.4,1.5 -0.8,0.7 -1.7,-0.2 0.6,1 1.2,1.1 v 0.7 l -1.2,0.5 -1,2 0.1,0.6 1.4,1 -0.4,0.7 h -1.5 v 0.5 l 0.9,0.9 0.1,0.8 -1.4,0.2 -0.5,0.8 -1.6,0.2 -0.9,0.9 0.6,0.9 1.1,-0.1 0.5,0.9 -1.6,1.3 0.4,1.5 -2,-0.6 -0.1,0.7 0.4,1.1 -0.3,1.4 -1.3,-0.8 -0.8,0.8 1.1,0.1 0.1,1.5 -0.6,1 1.1,0.9 -0.3,1.5 0.8,0.7 -0.7,1 -1.2,-0.5 -0.9,2.2 -1.6,0.7 z"
     id="TN"
     class="tn">
    <title
       id="title5863">Tennessee</title>
  </path>
  <path
     style="fill:#d0d0d0"
     inkscape:connector-curvature="0"
     d="m 282.3,429 0.3,-3 34.4,3.6 31.8,2.6 7.9,-99.3 h 0.8 l 52.6,3.2 -1.4,42.7 2.7,1.3 2.5,3 1.5,0.3 1.1,-1 1.2,0.4 1.4,1 1.1,-1.5 2.3,1.7 0.5,2.9 1.2,0.7 2.3,-0.1 3.5,1.9 2,-0.1 1.4,-0.4 2.3,2.2 2,-2.3 3.5,1.1 1.9,3 2.3,-0.1 -0.7,2.1 2.3,1.1 3,-2.6 2.6,1.7 1.3,-0.5 0.1,1.5 1.7,1.2 2.3,-2.5 1.2,0.7 -0.3,2 1,1.8 1.2,-0.8 2.5,-4.2 1.8,2 2,0.5 2.1,-0.7 2,1.8 1.2,-0.1 1.3,1.2 3.6,-0.9 0.6,-1.7 3.7,-0.3 1.6,0.7 5,-2.5 0.6,1.5 5.1,-0.3 0.5,-1.6 2.2,0.9 4.6,3.8 6.4,1.9 2.6,2.3 2.8,-1.3 3.2,0.8 0.2,11.9 0.5,19.9 0.7,3.4 2.6,2.8 0.7,5.4 3.8,4.6 0.8,4.3 h 1 l -0.1,7.3 -3.3,6.4 1.3,2.3 -1.3,1.5 0.7,3 -0.1,4.3 -2.2,3.5 -0.1,0.8 -1.7,1.2 1,1.8 1.2,1.1 -3.5,0.3 -8.4,3.9 -3.5,1.4 -1.8,1.8 -0.7,-0.5 2.1,-2.3 1.8,-0.7 0.5,-0.9 -2.9,-0.1 -0.7,-0.8 0.8,-2 -0.9,-1.8 h -0.6 l -2.4,1.3 -1.9,2.6 0.3,1.7 3.3,3.4 1.3,0.3 v 0.8 l -2.3,1.6 -4.9,4 -4,3.9 -3.2,1.4 -5,3 -3.7,2 -4.5,1.9 -4.1,2.5 3.2,-3 v -1.1 l 0.6,-0.8 -0.2,-1.8 -1.5,-0.1 -1.1,1.5 -2.6,1.3 -1.8,-1.2 -0.3,-1.7 h -1.5 l 0.8,2.2 1.4,0.7 1.2,0.9 1.8,1.6 -0.7,0.8 -3.9,1.7 -1.7,0.1 -1.2,-1.2 -0.5,2.1 0.5,1.1 -2.7,2 -1.5,0.2 -0.8,0.7 -0.4,1.7 -1.8,3.3 -1.6,0.7 -1.6,-0.6 -1.8,1.1 0.3,1.4 1.3,0.8 1,0.8 -1.8,3.5 -0.3,2.8 -1,1.7 -1.4,1 -2.9,0.4 1.8,0.6 1.9,-0.6 -0.4,3.2 -1.1,-0.1 0.2,1.2 0.3,1.4 -1.3,0.9 v 3.1 l 1.6,1.4 0.6,3.1 -0.4,2.2 -1,0.4 0.4,1.5 1.1,0.4 0.8,1.7 v 2.6 l 1.1,2.1 2.2,2.6 -0.1,0.7 -2.2,-0.2 -1.6,1.4 0.2,1.4 -0.9,-0.3 -1.4,-0.2 -3.4,-3.7 -2.3,-0.6 h -7.1 l -2.8,-0.8 -3.6,-3 -1.7,-1 -2.1,0.1 -3.2,-2.6 -5.4,-1.6 v -1.3 l -1.4,-1.8 -0.9,-4.7 -1.1,-1.7 -1.7,-1.4 v -1.6 l -1.4,-0.6 0.6,-2.6 -0.3,-2.2 -1.3,-1.4 0.7,-3 -0.8,-3.2 -1.7,-1.4 h -1.1 l -4,-3.5 0.1,-1.9 -0.8,-1.7 -0.8,-0.2 -0.9,-2.4 -2,-1.6 -2.9,-2.5 -0.2,-2.1 -1,-0.7 0.2,-1.6 0.5,-0.7 -1.4,-1.5 0.1,-0.7 -2,-2.2 0.1,-2.1 -2.7,-4.9 -0.1,-1.7 -1.8,-3.1 -5.1,-4.8 v -1.1 l -3.3,-1.7 -0.1,-1.8 -1.2,-0.4 v -0.7 l -0.8,-0.2 -2.1,-2.8 h -0.8 l -0.7,-0.6 -1.3,1.1 h -2.2 l -2.6,-1.1 h -4.6 l -4.2,-2.1 -1.3,1.9 -2.2,-0.6 -3.3,1.2 -1.7,2.8 -2,3.2 -1.1,4.4 -1.4,1.2 -1.1,0.1 -0.9,1.6 -1.3,0.6 -0.1,1.8 -2.9,0.1 -1.8,-1.5 h -1 l -2,-2.9 -3.6,-0.5 -1.7,-2.3 -1.3,-0.2 -2.1,-0.8 -3.4,-3.4 0.2,-0.8 -1.6,-1.2 -1,-0.1 -3.4,-3.1 -0.1,-2 -2.3,-4 0.2,-1.6 -0.7,-1.3 0.8,-1.5 -0.1,-2.4 -2.6,-4.1 -0.6,-4.2 -1.6,-1.6 v -1 l -1.2,-0.2 -0.7,-1.1 -2.4,-1.7 -0.9,-0.1 -1.9,-1.6 v -1.1 l -2.9,-1.8 -0.6,-2.1 -2.6,-2.3 -3.2,-4.4 -3,-1.3 -2.1,-1.8 0.2,-1.2 -1.3,-1.4 -1.7,-3.7 -2.4,-1 z m 174.9,138.3 0.8,0.1 -0.6,-4.8 -3.5,-12.3 -0.2,-8.1 4.9,-10.5 6.1,-8.2 7.2,-5.1 v -0.7 h -0.8 l -2.6,1 -3.6,2.3 -0.7,1.5 -8.2,11.6 -2.8,7.9 v 8.8 l 3.6,12 z"
     id="TX"
     class="tx">
    <title
       id="title5866">Texas</title>
  </path>
  <path
     style="fill:#d0d0d0"
     inkscape:connector-curvature="0"
     d="m 233.2,217.9 3.3,-21.9 -47.9,-8.2 -21,109 46.2,8.2 40,6 11.5,-88.3 z"
     id="UT"
     class="ut">
    <title
       id="title5869">Utah</title>
  </path>
  <path
     style="fill:#d0d0d0"
     inkscape:connector-curvature="0"
     d="m 859.1,102.4 -1.1,3.5 2.1,2.8 -0.4,1.7 0.1,1.3 -1.1,2.1 -1.4,0.4 -0.6,1.3 -2.1,1 -0.7,1.5 1.4,3.4 -0.5,2.5 0.5,1.5 -1,1.9 0.4,1.9 -1.3,1.9 0.2,2.2 -0.7,1.1 0.7,4.5 0.7,1.5 -0.5,2.6 0.9,1.8 -0.2,2.5 -0.5,1.3 -0.1,1.4 2.1,2.6 -12.4,2.7 -1.1,-1 0.5,-2 -3,-14.2 -1.9,-1.5 -0.9,1.6 -0.9,-2.2 0.8,-1.8 -3.1,-6.7 0.3,-3.8 0.4,-1 -0.6,-2 0.4,-2.2 -2.2,-2.3 -0.5,-3.2 0.4,-1.5 -1.4,-0.9 0.6,-1.9 -0.8,-1.7 27.3,-6.9 z"
     id="VT"
     class="vt">
    <title
       id="title5872">Vermont</title>
  </path>
  <path
     style="fill:#d0d0d0"
     inkscape:connector-curvature="0"
     d="m 834.7,265.4 -1.1,2.8 0.5,1.1 0.4,-1.1 0.8,-3.1 z m -34.6,-7 -0.7,-1 1,-0.1 1,-0.9 0.4,-1.8 -0.2,-0.5 0.1,-0.5 -0.3,-0.7 -0.6,-0.5 -0.4,-0.1 -0.5,-0.4 -0.6,-0.6 h -1 l -0.6,-0.1 -0.4,-0.4 0.1,-0.5 -1.7,-0.6 -0.8,0.3 -1.2,-0.1 -0.7,-0.7 -0.5,-0.2 -0.2,-0.7 0.6,-0.8 v -0.9 l -1.2,-0.2 -1,-0.9 -0.9,0.1 -1.6,-0.3 -0.4,0.7 -0.4,1.6 -0.5,2.3 -10,-5.2 -0.2,0.9 0.9,1.6 -0.8,2.3 0.1,2.9 -1.2,0.8 -0.5,2.1 -0.9,0.8 -1.4,1.8 -0.9,0.8 -1,2.5 -2.4,-1.1 -2.3,8.5 -1.3,1.6 -2.8,-0.5 -1.3,-1.9 -2.3,-0.7 -0.1,4.7 -1.4,1.7 0.4,1.5 -2.1,2.2 0.4,1.9 -3.7,6.3 -1,3.3 1.5,1.2 -1.5,1.9 0.1,1.4 -2.3,2 -0.7,-1.1 -4.3,3.1 -1.5,-1 -0.6,1.4 0.8,0.5 -0.5,0.9 -5.5,2.4 -3,-1.8 -0.8,1.7 -1.9,1.8 -2.3,0.1 -4.4,-2.3 -0.1,-1.5 -1.5,-0.7 0.8,-1.2 -0.7,-0.6 -4.9,6.6 -2.9,1 -3,3 -0.4,2.2 -2.1,1.3 -0.1,1.7 -1.4,1.4 -1.8,0.5 -0.5,1.9 -1,0.4 -6.9,4.2 28.9,-3.3 0.2,-1 4.6,-0.5 -0.3,0.7 29.4,-3.5 39.4,-7.3 29.1,-6.1 -0.6,-1.2 0.4,-0.1 0.9,0.9 -0.1,-1.4 -0.3,-1.9 1.6,1.2 0.9,2.1 v -1.3 l -3.4,-5.5 v -1.2 l -0.7,-0.8 -1.3,0.7 0.5,1.4 h -0.8 l -0.4,-1 -0.6,0.9 -0.9,-1.1 -2.1,-0.1 -0.2,0.7 1.5,2.1 -1.4,-0.7 -0.5,-1 -0.4,0.8 -0.8,0.1 -1.5,1.7 0.3,-1.6 v -1.4 l -1.5,-0.7 -1.8,-0.5 -0.2,-1.7 -0.6,-1.3 -0.6,1.1 -1.7,-1 -2,0.3 0.2,-0.9 1.5,-0.2 0.9,0.5 1.7,-0.8 0.9,0.4 0.5,1 v 0.7 l 1.9,0.4 0.3,0.9 0.9,0.4 0.9,1.2 1.4,-1.6 h 0.6 l -0.1,-2.1 -1.3,1 -0.6,-0.9 1.5,-0.2 -1.2,-0.9 -1.2,0.6 -0.1,-1.7 -1.7,0.2 -2.2,-1.1 -1.8,-2.2 3.6,2.2 0.9,0.3 1.7,-0.8 -1.7,-0.9 0.6,-0.6 -1,-0.5 0.8,-0.2 -0.3,-0.9 1.1,0.9 0.4,-0.8 0.4,1.3 1.2,0.8 0.6,-0.5 -0.5,-0.6 -0.1,-2.5 -1.1,-0.1 -1.6,-0.8 0.9,-1.1 -2,-0.1 -0.4,-0.5 -1.4,0.6 -1.4,-0.8 -0.5,-1.2 -2.1,-1.2 -2.1,-1.8 -2.2,-1.9 3,1.3 0.9,1.2 2.1,0.7 2.3,2.5 0.2,-1.7 0.6,1.3 2.3,0.5 v -4 l -0.8,-1.1 1.1,0.4 0.1,-1.6 -3.1,-1.4 -1.6,-0.2 -1.3,-0.2 0.3,-1.2 -1.5,-0.3 -0.1,-0.6 h -1.8 l -0.2,0.8 -0.7,-1 h -2.7 l -1,-0.4 -0.2,-1 -1.2,-0.6 -0.4,-1.5 -0.6,-0.4 -0.7,1.1 -0.9,0.2 -0.9,0.7 h -1.5 l -0.9,-1.3 0.4,-3.1 0.5,-2.4 0.6,0.5 z m 21.9,11.6 0.9,-0.1 v -0.6 l -0.8,0.1 z m 7.5,14.2 -1,2.7 1.2,-1.3 z m -1.8,-15.3 0.7,0.3 -0.2,1.9 -0.5,-0.5 -1.3,1 1,0.4 -1.8,4.4 0.1,8.1 1.9,3.1 0.5,-1.5 0.4,-2.7 -0.3,-2.3 0.7,-0.9 -0.2,-1.4 1.2,-0.6 -0.6,-0.5 0.5,-0.7 0.8,1.1 -0.2,1.1 -0.4,3.9 1.1,-2.2 0.4,-3.1 0.1,-3 -0.3,-2 0.6,-2.3 1.1,-1.8 0.1,-2.2 0.3,-0.9 -4.6,1.6 -0.7,0.8 z"
     id="VA"
     class="va">
    <title
       id="title5875">Virginia</title>
  </path>
  <path
     style="fill:#d0d0d0"
     inkscape:connector-curvature="0"
     d="m 161.9,83.6 0.7,4 -1.1,4.3 -30.3,-7.3 -2.8,1 -5.4,-0.9 -1.8,-0.9 -1.5,1.2 -3.3,-0.4 -4.5,0.5 -0.9,0.7 -4.2,-0.4 -0.8,-1.6 -1.2,-0.2 -4.4,1.3 -1.6,-1.1 -2.2,0.8 -0.2,-1.8 -2.3,-1.2 -1.5,-0.2 -1,-1.1 -3,0.3 -1.2,-0.8 h -1.2 l -1.2,0.9 -5.5,0.7 -6.6,-4.2 1.1,-5.6 -0.4,-4.1 -3.2,-3.7 -3.7,0.1 -0.4,-1.1 0.4,-1.2 -0.7,-0.8 -1,0.1 -2.1,-1.5 -1.2,0.4 -2,-0.1 -0.7,-1.5 -1.6,-0.3 2.5,-7.5 -0.7,6 0.5,0.5 v -2 l 0.8,-0.2 1.1,2.3 -0.5,-2.2 1.2,-4.2 1.8,0.4 -1.1,-2 -1,0.3 -1.5,-0.4 0.2,-4.2 0.2,1.5 0.9,0.5 0.6,-1.6 h 3.2 l -2.2,-1.2 -1.7,-1.9 -1.4,1.6 1.2,-3.1 -0.3,-4.6 -0.2,-3.6 0.9,-6.1 -0.5,-2 -1.4,-2.1 0.1,-4 0.4,-2.7 2,-2.3 -0.7,-1.4 0.2,-0.6 0.9,0.1 7.8,7.6 4.7,1.9 5.1,2.5 3.2,-0.1 0.2,3 1,-1.6 h 0.7 l 0.6,2.7 0.5,-2.6 1.4,-0.2 0.5,0.7 -1.1,0.6 0.1,1.6 0.7,-1.5 h 1.1 l -0.4,2.6 -1.1,-0.8 0.4,1.4 -0.1,1.5 -0.8,0.7 -2.5,2.9 1.2,-3.4 -1.6,0.4 -0.4,2.1 -3.8,2.8 -0.4,1 -2.1,2.2 -0.1,1 h 2.2 l 2.4,-0.2 0.5,-0.9 -3.9,0.5 V 39 l 2.6,-2.8 1.8,-0.8 1.9,-0.2 1,-1.6 3,-2.3 v -1.4 h 1.1 l 0.1,4 h -1.5 l -0.6,0.8 -1.1,-0.9 0.3,1.1 v 1.7 l -0.7,0.7 -0.3,-1.6 -0.8,0.8 0.7,0.6 -0.9,1.1 h 1.3 l 0.7,-0.5 0.1,2 -1,1.9 -0.9,1 -0.1,1.8 -1,-0.2 -0.2,-1.4 0.9,-1.1 -0.8,-0.5 -0.8,0.7 -0.7,2.2 -0.8,0.9 -0.1,-2 0.8,-1.1 -0.2,-1.1 -1.2,1.2 0.1,2.2 -0.6,0.4 -2.1,-0.4 -1.3,1.2 2.2,-0.6 -0.2,2.2 1,-1.8 0.4,1.4 0.5,-1 0.7,1.8 h 0.7 l 0.7,-0.8 0.6,-0.1 2,-1.9 0.2,-1.2 0.8,0.6 0.3,0.9 0.7,-0.3 0.1,-1.2 h 1.3 l 0.2,-2.9 -0.1,-2.7 0.9,0.3 -0.7,-2.1 1.4,-0.8 0.2,-2.4 2.3,-2.2 1,0.1 0.3,-1.4 -1.2,-1.4 -0.1,-3.5 -0.8,0.9 0.7,2.9 -0.6,0.1 -0.6,-1.9 -0.6,-0.5 0.3,-2.3 1.8,-0.1 0.3,0.7 0.3,-1.6 -1.6,-1.7 -0.6,-1.6 -0.2,2 0.9,1.1 -0.7,0.4 -1,-0.8 -1.8,1.3 1.5,0.5 0.2,2.4 -0.3,1.8 0.9,-1.3 1.4,2.3 -0.4,1.9 h -1.5 v -1.2 l -1.5,-1.2 0.5,-3 -1.9,-2.6 2.7,-3 0.6,-4.1 h 0.9 l 1.4,3.2 v -2.6 l 1.2,0.3 v -3.3 l -0.9,-0.8 -1.2,2.5 -1,-3 L 93.5,12 92,7.1 93.9,6.5 119.3,14 151,22 174.6,27.5 Z M 83.2,44.2 h 0.5 l 0.1,0.8 -0.5,0.3 0.1,0.6 -0.7,0.4 L 82.5,45.4 83,45 Z m 5,-4.3 -1.2,1.9 -0.1,0.8 0.4,0.2 0.5,-0.6 1.1,0.1 z m -0.4,-21.6 0.5,0.6 1.3,-0.3 0.2,-1 1.2,-1.8 -1,-0.4 -0.7,1.6 -0.1,-1.6 -1.1,0.2 -0.7,1.4 z m 3.2,-5.5 0.7,1.5 -0.9,0.2 -0.8,0.4 -0.2,-2.4 z m -2.7,-1.6 -1.1,-0.2 0.5,1.4 z m -1,2.5 0.8,0.4 -0.4,1.1 1.7,-0.5 -0.2,-2.2 -0.9,-0.2 z m -2.7,-0.4 0.3,2.7 1.6,1.3 0.6,-1.9 -1.1,-2.2 z m 1.9,-1.1 -1.1,-1 -0.9,0.1 1.8,1.5 z m 3.2,-7 H 88.5 V 6 l 1.2,0.6 z M 88.8,37.7 89.2,35 h -1.1 l -0.2,1.9 z"
     id="WA"
     class="wa">
    <title
       id="title5878">Washington</title>
  </path>
  <path
     style="fill:#d0d0d0"
     inkscape:connector-curvature="0"
     d="m 723.4,297.5 -0.8,1.2 1.5,0.7 0.1,1.5 4.4,2.3 2.3,-0.1 1.9,-1.8 0.8,-1.7 3,1.8 5.5,-2.4 0.5,-0.9 -0.8,-0.5 0.6,-1.4 1.5,1 4.3,-3.1 0.7,1.1 2.3,-2 -0.1,-1.4 1.5,-1.9 -1.5,-1.2 1,-3.3 3.7,-6.3 -0.4,-1.9 2.1,-2.2 -0.4,-1.5 1.4,-1.7 0.1,-4.7 2.3,0.7 1.3,1.9 2.8,0.5 1.3,-1.6 2.3,-8.5 2.4,1.1 1,-2.5 0.9,-0.8 1.4,-1.8 0.9,-0.8 0.5,-2.1 1.2,-0.8 -0.1,-2.9 0.8,-2.3 -0.9,-1.6 0.2,-0.9 10,5.2 0.5,-2.3 0.4,-1.6 0.4,-0.7 -0.9,-0.4 0.2,-1.6 -1,-0.5 -0.2,-0.7 h -0.7 l -0.8,-1.2 0.2,-1 -2.6,0.4 -2.2,-1.6 -1.4,0.3 -0.9,1.4 h -1.3 l -1.7,2.9 -3.3,0.4 -1.9,-1 -2.6,3.8 -2.2,-0.3 -3.1,3.9 -0.9,1.6 -1.8,1.6 -1.7,-11.4 -17.4,2.9 -3.2,-19.7 -2.2,1.2 1.4,2.1 -0.1,2.2 0.6,2 -1.1,3.4 -0.1,5.4 -1,3.6 0.5,1.1 -0.4,2.2 -1.1,0.5 -2,3.3 -1.8,2 h -0.6 l -1.8,1.7 -1.3,-1.2 -1.5,1.8 -0.3,1.2 h -1.3 l -1.3,2.2 0.1,2.1 -1,0.5 1.4,1.1 v 1.9 l -1,0.2 -0.7,0.8 -1,0.5 -0.6,-2.1 -1.6,-0.5 -1,2.3 -0.3,2.2 -1.1,1.3 1.3,3.6 -1.5,0.8 -0.4,3.5 h -1.5 l -3.2,1.4 -0.1,1.1 0.6,1 -0.6,3.6 1.9,1.6 0.8,1.1 1,0.6 -0.1,0.9 4.4,5.6 h 1.4 l 1.5,1.8 1.2,0.3 1.4,-0.1 z"
     id="WV"
     class="wv">
    <title
       id="title5881">West Virginia</title>
  </path>
  <path
     style="fill:#d0d0d0"
     inkscape:connector-curvature="0"
     d="m 611,144 -2.9,0.8 0.2,2.3 -2.4,3.4 -0.2,3.1 0.6,0.7 0.8,-0.7 0.5,-1.6 2,-1.1 1.6,-4.2 3.5,-1.1 0.8,-3.3 0.7,-0.9 0.4,-2.1 1.8,-1.1 v -1.5 l 1,-0.9 1.4,0.1 v 2 l -1,0.1 0.5,1.2 -0.7,2.2 -0.6,0.1 -1.2,4.5 -0.7,0.5 -2.8,7.2 -0.3,4.2 0.6,2 0.1,1.3 -2.4,1.9 0.3,1.9 -0.9,3.1 0.3,1.6 0.4,3.7 -1.1,4.1 -1.5,5 1,1.5 -0.3,0.3 0.8,1.7 -0.5,1.1 1.1,0.9 v 2.7 l 1.3,1.5 -0.4,3 0.3,4 -45.9,2.8 -1.3,-2.8 -3.3,-0.7 -2.7,-1.5 -2,-5.5 0.1,-2.5 1.6,-3.3 -0.6,-1.1 -2.1,-1.6 -0.2,-2.6 -1.1,-4.5 -0.2,-3 -2.2,-3 -2.8,-0.7 -5.2,-3.6 -0.6,-3.3 -6.3,-3.1 -0.2,-1.3 h -3.3 l -2.2,-2.6 -2,-1.3 0.7,-5.1 -0.9,-1.6 0.5,-5.4 1,-1.8 -0.3,-2.7 -1.2,-1.3 -1.8,-0.3 v -1.7 l 2.8,-5.8 5.9,-3.9 -0.4,-13 0.9,0.4 0.6,-0.5 0.1,-1.1 0.9,-0.6 1.4,1.2 0.7,-0.1 h 2.6 l 6.8,-2.6 0.3,-1 h 1.2 l 0.7,-1.2 0.4,0.8 1.8,-0.9 1.8,-1.7 0.3,0.5 1,-1 2.2,1.6 -0.8,1.6 -1.2,1.4 0.5,1.5 -1.4,1.6 0.4,0.9 2.3,-1.1 v -1.4 l 3.3,1.9 1.9,0.7 1.9,0.7 3,3.8 17,3.8 1.4,1 4,0.8 0.7,0.5 2.8,-0.2 4.9,0.8 1.4,1.5 -1,1 0.8,0.8 3.8,0.7 1.2,1.2 0.1,4.4 -1.3,2.8 2,0.1 1,-0.8 0.9,0.8 -1.1,3.1 1,1.6 1.2,0.3 z m -49.5,-37.3 -0.5,0.1 -1.5,1.6 0.2,0.5 1.5,-0.6 v -0.6 l 0.9,-0.3 z m 1.6,-1.1 -1,0.3 -0.2,0.7 0.9,-0.1 z m -1.3,-1.6 -0.2,0.9 h 1.7 l 0.6,-0.4 0.1,-1 z m 2.8,-3 -0.3,1.9 1.2,-0.5 0.1,-1.4 z m 58.3,31.9 -2,0.3 -0.4,1.3 1.3,1.7 z"
     id="WI"
     class="wi">
    <title
       id="title5884">Wisconsin</title>
  </path>
  <path
     style="fill:#d0d0d0"
     inkscape:connector-curvature="0"
     d="m 355.3,143.7 -51,-5.3 -57.3,-7.9 -2,10.7 -8.5,54.8 -3.3,21.9 32.1,4.8 44.9,5.7 37.5,3.4 3.7,-44.2 z"
     id="WY"
     class="wy">
    <title
       id="title5887">Wyoming</title>
  </path>
  <circle
     r="6.2282438"
     cy="250.6062"
     cx="801.61389"
     class="dc"
     id="DC"
     style="fill:#282828;fill-opacity:1;stroke:#282828;stroke-width:1.50047243;stroke-linecap:butt;stroke-linejoin:miter;stroke-miterlimit:4;stroke-dasharray:none;stroke-dashoffset:0;stroke-opacity:0" />
  <path
     style="fill:#d0d0d0"
     inkscape:connector-curvature="0"
     d=""
     id="N1" />
  <path
     style="fill:#d0d0d0"
     inkscape:connector-curvature="0"
     d=""
     id="N2" />
  <path
     style="fill:#d0d0d0"
     inkscape:connector-curvature="0"
     d=""
     id="N3" />
  <path
     style="fill:#d0d0d0"
     inkscape:connector-curvature="0"
     d=""
     id="M1" />
  <path
     style="fill:#d0d0d0"
     inkscape:connector-curvature="0"
     d=""
     id="M2" />
  <path
     style="fill:none;stroke:#282828;stroke-width:2"
     inkscape:connector-curvature="0"
     id="path5897"
     d="m 687.6,447.4 -48.8,5.1 -0.5,2.9 2.5,2.8 1.7,0.7 0.9,1.2 -0.4,7.3 -1.1,0.6"
     class="al-fl" />
  <path
     style="fill:none;stroke:#282828;stroke-width:2"
     inkscape:connector-curvature="0"
     id="path5899"
     d="m 666.6,361.1 12.9,45.8 2.9,6.1 1.8,1.9 v 3.2 l 1.7,1 0.2,1.1 -2.2,3.8 -0.3,3.7 -0.5,2.6 2.4,5.7 -0.6,6.3 0.5,1.4 1.5,1.5 0.7,2.2"
     class="al-ga" />
  <path
     style="fill:none;stroke:#282828;stroke-width:2"
     inkscape:connector-curvature="0"
     id="path5901"
     d="m 620.9,365.1 1.3,2 -1.3,67 4.4,33.2"
     class="al-ms" />
  <path
     style="fill:none;stroke:#282828;stroke-width:2"
     inkscape:connector-curvature="0"
     id="path5903"
     d="m 620.9,365.1 45.7,-4"
     class="al-tn" />
  <path
     style="fill:none;stroke:#282828;stroke-width:2"
     inkscape:connector-curvature="0"
     id="path5905"
     d="M 516.7,414.2 569,412.9"
     class="ar-la" />
  <path
     style="fill:none;stroke:#282828;stroke-width:2"
     inkscape:connector-curvature="0"
     id="path5907"
     d="m 591.7,344.9 -11.2,0.8 2.8,-5.1 1.7,-1.5 v -2.2 l -1.6,-2.5 -39.8,2 -39.1,0.7"
     class="ar-mo" />
  <path
     style="fill:none;stroke:#282828;stroke-width:2"
     inkscape:connector-curvature="0"
     id="path5909"
     d="m 569,412.9 1.2,-1.5 0.5,-3 -1.5,-2.3 -0.5,-2.2 0.9,-0.7 v -0.8 l -1.7,-1.1 -0.1,-0.7 1.6,-0.9 -1.2,-1.1 1.7,-7.1 3.4,-1.6 v -0.8 l -1.1,-1.4 2.9,-5.4 h 1.9 l 1.5,-1.2 -0.3,-5.2 3.1,-4.5 1.8,-0.6 -0.5,-3.1"
     class="ar-ms" />
  <path
     style="fill:none;stroke:#282828;stroke-width:2"
     inkscape:connector-curvature="0"
     id="path5911"
     d="m 507.9,400.5 0.7,-39 -4.1,-24.4"
     class="ar-ok" />
  <path
     style="fill:none;stroke:#282828;stroke-width:2"
     inkscape:connector-curvature="0"
     id="path5913"
     d="m 582.6,367.7 1.6,-0.7 0.9,-2.2 1.2,0.5 0.7,-1 -0.8,-0.7 0.3,-1.5 -1.1,-0.9 0.6,-1 -0.1,-1.5 -1.1,-0.1 0.8,-0.8 1.3,0.8 0.3,-1.4 -0.4,-1.1 0.1,-0.7 2,0.6 -0.4,-1.5 1.6,-1.3 -0.5,-0.9 -1.1,0.1 -0.6,-0.9 0.9,-0.9 1.6,-0.2 0.5,-0.8 1.4,-0.2 -0.1,-0.8 -0.9,-0.9 v -0.5 h 1.5 l 0.4,-0.7 -1.4,-1 -0.1,-0.6"
     class="ar-tn" />
  <path
     style="fill:none;stroke:#282828;stroke-width:2"
     inkscape:connector-curvature="0"
     id="path5915"
     d="m 507.9,400.5 2.6,2.3 2.8,-1.3 3.2,0.8 0.2,11.9"
     class="ar-tx" />
  <path
     style="fill:none;stroke:#282828;stroke-width:2"
     inkscape:connector-curvature="0"
     id="path5917"
     d="m 149,338.1 -0.9,2.1 1.3,3.4 1.4,1.8 1.2,5.8 2.3,2.5 0.4,1.9 -1.3,1.3 -4.8,1.7 -2.4,3.6 -1.6,7 -2.4,3.2 -1.6,0.3 -1.1,6.9 1.1,1.6 1.8,0.2 1,1.6 -0.8,2.4 -3,2.2 -2.2,-0.1"
     class="az-ca" />
  <path
     style="fill:none;stroke:#282828;stroke-width:2"
     inkscape:connector-curvature="0"
     id="path5919"
     d="M 253.8,311 236.4,435.1"
     class="az-nm" />
  <path
     style="fill:none;stroke:#282828;stroke-width:2"
     inkscape:connector-curvature="0"
     id="path5921"
     d="m 167.6,296.8 -3.4,17.5 -2.4,2.9 h -2 l -1.2,-2.7 -3.7,-1.4 -3.5,0.6 -1,13.6 0.5,4.9 -0.5,2.9 -1.4,3"
     class="az-nv" />
  <path
     style="fill:none;stroke:#282828;stroke-width:2"
     inkscape:connector-curvature="0"
     id="path5923"
     d="m 167.6,296.8 46.2,8.2 40,6"
     class="az-ut" />
  <path
     style="fill:none;stroke:#282828;stroke-width:2"
     inkscape:connector-curvature="0"
     id="path5925"
     d="m 93.9,166.5 -16.4,63.1 1.1,3.5 70.4,105"
     class="ca-nv" />
  <path
     style="fill:none;stroke:#282828;stroke-width:2"
     inkscape:connector-curvature="0"
     id="path5927"
     d="m 27.8,147.9 66.1,18.6"
     class="ca-or" />
  <path
     style="fill:none;stroke:#282828;stroke-width:2"
     inkscape:connector-curvature="0"
     id="path5929"
     d="m 379.4,256.3 -4.8,67"
     class="co-ks" />
  <path
     style="fill:none;stroke:#282828;stroke-width:2"
     inkscape:connector-curvature="0"
     id="path5931"
     d="m 347.7,231.8 33.1,2.4 -1.4,22.1"
     class="co-ne" />
  <path
     style="fill:none;stroke:#282828;stroke-width:2"
     inkscape:connector-curvature="0"
     id="path5933"
     d="m 253.8,311 52.6,6.5 51.7,4.8"
     class="co-nm" />
  <path
     style="fill:none;stroke:#282828;stroke-width:2"
     inkscape:connector-curvature="0"
     id="path5935"
     d="m 358.1,322.3 16.5,1"
     class="co-ok" />
  <path
     style="fill:none;stroke:#282828;stroke-width:2"
     inkscape:connector-curvature="0"
     id="path5937"
     d="M 265.3,222.7 253.8,311"
     class="co-ut" />
  <path
     style="fill:none;stroke:#282828;stroke-width:2"
     inkscape:connector-curvature="0"
     id="path5939"
     d="m 265.3,222.7 44.9,5.7 37.5,3.4"
     class="co-wy" />
  <path
     style="fill:none;stroke:#282828;stroke-width:2"
     inkscape:connector-curvature="0"
     id="path5941"
     d="m 843.8,171.3 10.5,-2.4 0.5,0.7 0.9,-0.3 v -0.7 l 14.9,-3.4 0.1,0.3"
     class="ct-ma" />
  <path
     style="fill:none;stroke:#282828;stroke-width:2"
     inkscape:connector-curvature="0"
     id="path5943"
     d="m 846.6,194.7 -1.7,-2.2 3.5,-3.4 -1.8,-1.5 -2.8,-16.3"
     class="ct-ny" />
  <path
     style="fill:none;stroke:#282828;stroke-width:2"
     inkscape:connector-curvature="0"
     id="path5945"
     d="m 870.7,165.5 3.2,12.3 -0.4,1.1 0.4,1.8"
     class="ct-ri" />
  <path
     style="fill:none;stroke:#282828;stroke-width:2"
     inkscape:connector-curvature="0"
     id="path5951"
     d="m 817.9,230.1 7.6,27.1 10.9,-2.3"
     class="de-md" />
  <path
     style="fill:none;stroke:#282828;stroke-width:2"
     inkscape:connector-curvature="0"
     id="path5953"
     d="m 823.8,227.2 -1,2.2 -0.3,2.1"
     class="de-nj" />
  <path
     style="fill:none;stroke:#282828;stroke-width:2"
     inkscape:connector-curvature="0"
     id="path5955"
     d="m 817.9,230.1 1.2,-2.1 1.5,-1.1 1.6,-0.3 1.6,0.6"
     class="de-pa" />
  <path
     style="fill:none;stroke:#282828;stroke-width:2"
     inkscape:connector-curvature="0"
     id="path5957"
     d="m 687.6,447.4 3.3,6 50.1,-3.3 0.6,3.2 1,1.1 2.1,-0.6 0.5,-4.3 -1.4,-2.1 v -2.5 l 2.2,-1.4 1.7,0.9 4,0.7 3.6,-0.3"
     class="fl-ga" />
  <path
     style="fill:none;stroke:#282828;stroke-width:2"
     inkscape:connector-curvature="0"
     id="path5959"
     d="m 689.5,358.2 21.4,-3"
     class="ga-nc" />
  <path
     style="fill:none;stroke:#282828;stroke-width:2"
     inkscape:connector-curvature="0"
     id="path5961"
     d="m 710.9,355.2 -0.1,1.9 -1.9,1 -1.4,3.2 0.2,1.3 6.1,3.8 2.6,-0.3 3.1,4 0.4,1.7 4.2,5.1 2.6,1.7 1.4,0.2 2.2,1.6 1.1,2.2 2,1.6 1.8,0.5 2.7,2.7 0.1,1.4 2.6,2.8 5,2.3 3.6,6.7 0.3,2.7 3.9,2.1 2.5,4.8 0.8,3.1 4.2,0.4"
     class="ga-sc" />
  <path
     style="fill:none;stroke:#282828;stroke-width:2"
     inkscape:connector-curvature="0"
     id="path5963"
     d="m 666.6,361.1 22.9,-2.9"
     class="ga-tn" />
  <path
     style="fill:none;stroke:#282828;stroke-width:2"
     inkscape:connector-curvature="0"
     id="path5965"
     d="m 556.8,249.7 0.7,-0.7 0.1,-2.3 -0.7,-0.9 1,-1.5 1.8,-0.6 0.9,-0.3 1,-1.2 v -2.4 l 1.7,-2.4 0.5,-0.5 0.1,-3.5 -0.9,-1.4 -1,-0.3 -1.1,-1.6 1,-4 3,-0.8 h 2.4 l 4.2,-1.8 1.7,-2.2 0.1,-2.4 1.1,-1.3 1.3,-3.2 -0.1,-2.6 -2.8,-3.5 h -1.2 l -0.9,-1.1 0.2,-1.6 -1.7,-1.7 -2.5,-1.3 0.5,-0.6"
     class="ia-il" />
  <path
     style="fill:none;stroke:#282828;stroke-width:2"
     inkscape:connector-curvature="0"
     id="path5967"
     d="m 473.6,182 h 28.2 l 36.3,-0.9 18.6,-0.7"
     class="ia-mn" />
  <path
     style="fill:none;stroke:#282828;stroke-width:2"
     inkscape:connector-curvature="0"
     id="path5969"
     d="m 484.5,246.8 25.9,0.1 27.2,-1.2 14.3,-0.8 1.7,1.3 0.6,1.6 1.1,1.1 1.5,0.8"
     class="ia-mo" />
  <path
     style="fill:none;stroke:#282828;stroke-width:2"
     inkscape:connector-curvature="0"
     id="path5971"
     d="m 484.5,246.8 -1.8,-4.4 0.7,-2.2 -0.8,-3.3 0.2,-2.9 -1.3,-0.7 -0.4,-6.1 -2.8,-5 -0.2,-3.7 -2.2,-4.3 -1.3,-3.7 v -1.4 l -0.6,-1.7 v -2.3 l -0.5,-0.9"
     class="ia-ne" />
  <path
     style="fill:none;stroke:#282828;stroke-width:2"
     inkscape:connector-curvature="0"
     id="path5973"
     d="m 473.5,204.2 -0.7,-1.7 -0.3,-1.3 -1.3,-1.2 1,-4.3 1.7,-5.1 -0.7,-2 -1.3,-0.4 -0.4,-1.6 1,-0.5 0.1,-1.1 -1.3,-1.5 0.1,-1.6 2.2,0.1"
     class="ia-sd" />
  <path
     style="fill:none;stroke:#282828;stroke-width:2"
     inkscape:connector-curvature="0"
     id="path5975"
     d="m 567.2,202 -1.3,-2.8 -3.3,-0.7 -2.7,-1.5 -2,-5.5 0.1,-2.5 1.6,-3.3 -0.6,-1.1 -2.1,-1.6 -0.2,-2.6"
     class="ia-wi" />
  <path
     style="fill:none;stroke:#282828;stroke-width:2"
     inkscape:connector-curvature="0"
     id="path5977"
     d="m 188.8,30.5 -4.8,22 3.7,7.4 -1.6,4.8 3.6,4.8 1.9,0.7 3.9,8.3 v 2.1 l 2.3,3 h 0.9 l 1.4,2.1 h 3.2 v 1.6 l -7.1,17 -0.5,4.1 1.4,0.5 1.6,2.6 2.8,-1.4 3.6,-2.4 1.9,1.9 0.5,2.5 -0.5,3.2 2.5,9.7 2.6,3.5 2.3,1.4 0.4,3 v 4.1 l 2.3,2.3 1.6,-2.3 6.9,1.6 2.1,-1.2 9,1.7 2.8,-3.3 1.8,-0.6 1.2,1.8 1.6,4.1 0.9,0.1"
     class="id-mt" />
  <path
     style="fill:none;stroke:#282828;stroke-width:2"
     inkscape:connector-curvature="0"
     id="path5979"
     d="m 140.9,177.7 24.4,5.4 23.3,4.7"
     class="id-nv" />
  <path
     style="fill:none;stroke:#282828;stroke-width:2"
     inkscape:connector-curvature="0"
     id="path5981"
     d="m 140.9,177.7 8.5,-37.3 2.9,-5.8 0.4,-2.1 0.8,-0.9 -0.9,-2 -2.9,-1.2 0.2,-4.2 4,-5.8 2.5,-0.8 1.6,-2.3 -0.1,-1.6 1.8,-1.6 3.2,-5.5 4.2,-4.8 -0.5,-3.2 -3.5,-3.1 -1.6,-3.6"
     class="id-or" />
  <path
     style="fill:none;stroke:#282828;stroke-width:2"
     inkscape:connector-curvature="0"
     id="path5983"
     d="m 236.5,196 -47.9,-8.2"
     class="id-ut" />
  <path
     style="fill:none;stroke:#282828;stroke-width:2"
     inkscape:connector-curvature="0"
     id="path5985"
     d="m 174.6,27.5 -12.7,56.1 0.7,4 -1.1,4.3"
     class="id-wa" />
  <path
     style="fill:none;stroke:#282828;stroke-width:2"
     inkscape:connector-curvature="0"
     id="path5987"
     d="M 245,141.2 236.5,196"
     class="id-wy" />
  <path
     style="fill:none;stroke:#282828;stroke-width:2"
     inkscape:connector-curvature="0"
     id="path5989"
     d="m 619.4,215.7 4.1,50.2 -1,5.2 v 2 l 2.4,3.5 v 0.7 l -0.3,0.9 0.9,1.9 -0.3,2.4 -1.6,1.8 -1.3,4.2 -3.8,5.3 -0.1,7 h -1 l 0.9,1.9"
     class="il-in" />
  <path
     style="fill:none;stroke:#282828;stroke-width:2"
     inkscape:connector-curvature="0"
     id="path5991"
     d="m 599.9,322.5 -0.3,-1.8 4,-3.7 6.9,3 1.5,-0.3 0.4,-2.4 -1.7,-1.8 0.4,-3.3 1,-0.5 1.2,0.6 0.6,-1.2 3.7,-0.6 0.1,-0.9 -1.5,-2.2 -0.1,-1.1 2.2,-2.7 v -0.9"
     class="il-ky" />
  <path
     style="fill:none;stroke:#282828;stroke-width:2"
     inkscape:connector-curvature="0"
     id="path5993"
     d="m 599.9,322.5 h -2.8 l -1.4,-1.5 -1.8,-3.8 v -1.9 l 0.8,-0.6 0.1,-1.3 -1.7,-1.9 -0.9,-2.5 -2.7,-4.1 -4.8,-1.3 -7.4,-7.1 -0.4,-2.4 2.8,-7.6 -0.4,-1.9 1.2,-1.1 v -1.3 l -2.8,-1.5 -3,-0.7 -3.4,1.2 -1.3,-2.3 0.6,-1.9 -0.7,-2.4 -8.6,-8.4 -2.2,-1.5 -2.5,-5.9 -1.2,-5.4 1.4,-3.7"
     class="il-mo" />
  <path
     style="fill:none;stroke:#282828;stroke-width:2"
     inkscape:connector-curvature="0"
     id="path5995"
     d="m 567.2,202 45.9,-2.8"
     class="il-wi" />
  <path
     style="fill:none;stroke:#282828;stroke-width:2"
     inkscape:connector-curvature="0"
     id="path5997"
     d="m 618.3,302.7 1.1,0.8 0.6,-1 -0.7,-1.7 4.6,-0.5 0.2,1.2 1.1,0.2 0.4,-0.9 -0.6,-1.3 0.3,-0.8 1.3,0.8 1.7,-0.4 1.7,0.6 3.4,2.1 1.8,-2.8 3.5,-2.2 3,3.3 1.6,-2.1 0.3,-2.7 3.8,-2.3 0.2,1.3 1.9,1.2 3,-0.2 1.2,-0.7 0.1,-3.4 2.5,-3.7 4.6,-4.4 -0.1,-1.7 1.2,-3.8 2.2,1 6.7,-4.5 -0.4,-1.7 -1.5,-2.1 1,-1.9"
     class="in-ky" />
  <path
     style="fill:none;stroke:#282828;stroke-width:2"
     inkscape:connector-curvature="0"
     id="path5999"
     d="m 630.9,213.2 32.4,-3.4 0.1,1.4"
     class="in-mi" />
  <path
     style="fill:none;stroke:#282828;stroke-width:2"
     inkscape:connector-curvature="0"
     id="path6001"
     d="m 670,268.4 -6.6,-57.2"
     class="in-oh" />
  <path
     style="fill:none;stroke:#282828;stroke-width:2"
     inkscape:connector-curvature="0"
     id="path6003"
     d="m 504.3,326.3 -0.5,-48.1 -3.2,-0.7 -2.6,-4.7 -2.5,-2.5 0.5,-2.3 2.7,-2.6 0.1,-1.2 -1.5,-2.1 -0.9,1 -2,-0.6 -2.9,-3"
     class="ks-mo" />
  <path
     style="fill:none;stroke:#282828;stroke-width:2"
     inkscape:connector-curvature="0"
     id="path6005"
     d="m 379.4,256.3 36,2 43.7,1.2 h 32.4"
     class="ks-ne" />
  <path
     style="fill:none;stroke:#282828;stroke-width:2"
     inkscape:connector-curvature="0"
     id="path6007"
     d="m 374.6,323.3 67.7,2.9 62,0.1"
     class="ks-ok" />
  <path
     style="fill:none;stroke:#282828;stroke-width:2"
     inkscape:connector-curvature="0"
     id="path6009"
     d="m 596.7,333.5 1,-2.7 1.4,0.9 0.7,-0.4 1.2,-4.1 -1,-1 1,-2 0.2,-0.9 -1.3,-0.8 m -5.8,11.3 -0.7,-0.7 0.2,-1 h 1.1 l 0.7,0.7 -0.3,1"
     class="ky-mo" />
  <path
     style="fill:none;stroke:#282828;stroke-width:2"
     inkscape:connector-curvature="0"
     id="path6011"
     d="m 670,268.4 1.3,0.5 2.2,0.1 1.9,-0.8 2.9,1.2 2.2,3.4 v 1 l 4.1,0.7 2.3,-0.2 1.9,2.1 2.2,0.2 v -1 l 1.9,-0.8 3,0.8 1.2,0.8 1.3,-0.7 h 0.9 l 0.6,-1.7 3.4,-1.8 0.5,0.8 0.8,2.9 3.5,1.4 1.2,2.1"
     class="ky-oh" />
  <path
     style="fill:none;stroke:#282828;stroke-width:2"
     inkscape:connector-curvature="0"
     id="path6013"
     d="m 596.7,333.5 23.3,-1.5 0.6,-0.9 -1.2,-3.2 h 3.7 l 0.7,0.6 22.6,-2 2.6,-0.8 17.4,-1 5.2,-0.8 20.5,-1.4 5.6,-1.4 m -103.6,12.7 h 1"
     class="ky-tn" />
  <path
     style="fill:none;stroke:#282828;stroke-width:2"
     inkscape:connector-curvature="0"
     id="path6015"
     d="m 697.7,321.1 6.9,-4.2 1,-0.4 0.5,-1.9 1.8,-0.5 1.4,-1.4 0.1,-1.7 2.1,-1.3 0.4,-2.2 3,-3 2.9,-1 4.9,-6.6"
     class="ky-va" />
  <path
     style="fill:none;stroke:#282828;stroke-width:2"
     inkscape:connector-curvature="0"
     id="path6017"
     d="m 709.3,279.4 -0.1,1.1 0.6,1 -0.6,3.6 1.9,1.6 0.8,1.1 1,0.6 -0.1,0.9 4.4,5.6 h 1.4 l 1.5,1.8 1.2,0.3 1.4,-0.1"
     class="ky-wv" />
  <path
     style="fill:none;stroke:#282828;stroke-width:2"
     inkscape:connector-curvature="0"
     id="path6019"
     d="m 569,412.9 -0.6,1.4 1.6,7.1 1.2,1 -0.5,1.7 2.4,2.5 v 3.3 h -2 l 1.8,2.5 -6,8.4 -2.4,4.8 -1.7,11.9 36,-2 -0.1,1.4 -1,1.4 -0.9,4.6 4.8,6.8 -0.3,1.3 1.2,1.8 0.6,0.7"
     class="la-ms" />
  <path
     style="fill:none;stroke:#282828;stroke-width:2"
     inkscape:connector-curvature="0"
     id="path6021"
     d="m 516.7,414.2 0.5,19.9 0.7,3.4 2.6,2.8 0.7,5.4 3.8,4.6 0.8,4.3 h 1 l -0.1,7.3 -3.3,6.4 1.3,2.3 -1.3,1.5 0.7,3 -0.1,4.3 -2.2,3.5 -0.1,0.8 -1.7,1.2 1,1.8 1.2,1.1"
     class="la-tx" />
  <path
     style="fill:none;stroke:#282828;stroke-width:2"
     inkscape:connector-curvature="0"
     id="path6023"
     d="m 856,152.6 18.4,-3.8 1,-1.5 0.3,-1.7 1.9,-0.6 0.5,-1.1 1.7,-1.1 1.3,0.3"
     class="ma-nh" />
  <path
     style="fill:none;stroke:#282828;stroke-width:2"
     inkscape:connector-curvature="0"
     id="path6025"
     d="m 843.8,171.3 -0.7,-1 0.5,-15"
     class="ma-ny" />
  <path
     style="fill:none;stroke:#282828;stroke-width:2"
     inkscape:connector-curvature="0"
     id="path6027"
     d="m 870.7,165.5 6.5,-2 0.7,2.6 h 0.8 l 0.6,2.2 2.6,1.3 1.3,1.1 1.4,3"
     class="ma-ri" />
  <path
     style="fill:none;stroke:#282828;stroke-width:2"
     inkscape:connector-curvature="0"
     id="path6029"
     d="M 843.6,155.3 856,152.6"
     class="ma-vt" />
  <path
     style="fill:none;stroke:#282828;stroke-width:2"
     inkscape:connector-curvature="0"
     id="path6031"
     d="m 757.4,241.9 60.5,-11.8"
     class="md-pa" />
  <path
     style="fill:none;stroke:#282828;stroke-width:2"
     inkscape:connector-curvature="0"
     id="path6033"
     d="m 822.9,269.3 -0.8,0.1 m 13.2,-4.3 -0.6,0.3 m -1.3,0.2 -4.6,1.6 -0.7,0.8 m -32.4,-18.3 -0.8,0.3 -1.2,-0.1 -0.7,-0.7 -0.5,-0.2 -0.2,-0.7 0.6,-0.8 v -0.9 l -1.2,-0.2 -1,-0.9 -0.9,0.1 -1.6,-0.3 m 11.6,13.5 0.3,-0.4 -0.7,-1 1,-0.1"
     class="md-va"
     sodipodi:nodetypes="ccccccccccccccccccccccc" />
  <path
     style="fill:none;stroke:#282828;stroke-width:2"
     inkscape:connector-curvature="0"
     id="path6035"
     d="m 757.4,241.9 1.7,11.4 1.8,-1.6 0.9,-1.6 3.1,-3.9 2.2,0.3 2.6,-3.8 1.9,1 3.3,-0.4 1.7,-2.9 h 1.3 l 0.9,-1.4 1.4,-0.3 2.2,1.6 2.6,-0.4 -0.2,1 0.8,1.2 h 0.7 l 0.2,0.7 1,0.5 -0.2,1.6 0.9,0.4"
     class="md-wv" />
  <path
     style="fill:none;stroke:#282828;stroke-width:2"
     inkscape:connector-curvature="0"
     id="path6037"
     d="m 881.9,138.3 -2.3,-1.4 -0.8,-2.2 -3.2,-2 -0.6,-4 -11.9,-36.8"
     class="me-nh" />
  <path
     style="fill:none;stroke:#282828;stroke-width:2"
     inkscape:connector-curvature="0"
     id="path6039"
     d="m 663.4,211.2 21.4,-3.5"
     class="mi-oh" />
  <path
     style="fill:none;stroke:#282828;stroke-width:2"
     inkscape:connector-curvature="0"
     id="path6041"
     d="m 565.6,112.3 1.9,0.7 3,3.8 17,3.8 1.4,1 4,0.8 0.7,0.5 2.8,-0.2 4.9,0.8 1.4,1.5 -1,1 0.8,0.8 3.8,0.7 1.2,1.2 0.1,4.4 -1.3,2.8 2,0.1 1,-0.8 0.9,0.8 -1.1,3.1 1,1.6 1.2,0.3"
     class="mi-wi" />
  <path
     style="fill:none;stroke:#282828;stroke-width:2"
     inkscape:connector-curvature="0"
     id="path6043"
     d="m 462.3,61.3 2.4,7.3 -1.1,2.8 0.8,1.4 -0.3,5.1 -0.5,1.1 2.7,9.1 1.3,2.5 0.7,14 1,2.7 -0.4,5.8 2.9,7.4 0.3,5.8 -0.1,2.1"
     class="mn-nd" />
  <path
     style="fill:none;stroke:#282828;stroke-width:2"
     inkscape:connector-curvature="0"
     id="path6045"
     d="m 473.6,182 0.2,-39.5 -1.5,-1.9 -2.6,-0.6 -0.4,-1.8 -1.7,-2.5 0.3,-1.2 3.1,-1.9 0.9,-2 0.1,-2.2"
     class="mn-sd" />
  <path
     style="fill:none;stroke:#282828;stroke-width:2"
     inkscape:connector-curvature="0"
     id="path6047"
     d="m 556.7,180.4 -1.1,-4.5 -0.2,-3 -2.2,-3 -2.8,-0.7 -5.2,-3.6 -0.6,-3.3 -6.3,-3.1 -0.2,-1.3 h -3.3 l -2.2,-2.6 -2,-1.3 0.7,-5.1 -0.9,-1.6 0.5,-5.4 1,-1.8 -0.3,-2.7 -1.2,-1.3 -1.8,-0.3 v -1.7 l 2.8,-5.8 5.9,-3.9 -0.4,-13 0.9,0.4 0.6,-0.5 0.1,-1.1 0.9,-0.6 1.4,1.2 0.7,-0.1"
     class="mn-wi" />
  <path
     style="fill:none;stroke:#282828;stroke-width:2"
     inkscape:connector-curvature="0"
     id="path6049"
     d="m 491.5,259.5 -3.9,-6.3 -2.1,-3.7 0.3,-1.4 -1.3,-1.3"
     class="mo-ne" />
  <path
     style="fill:none;stroke:#282828;stroke-width:2"
     inkscape:connector-curvature="0"
     id="path6051"
     d="m 504.3,326.3 0.2,10.8"
     class="mo-ok" />
  <path
     style="fill:none;stroke:#282828;stroke-width:2"
     inkscape:connector-curvature="0"
     id="path6053"
     d="m 591.7,344.9 1,-2 1.2,-0.5 v -0.7 l -1.2,-1.1 -0.6,-1 1.7,0.2 0.8,-0.7 -1.4,-1.5 1.4,-0.5 0.1,-1 -0.6,-1 v -1.3 m 1,0 0.8,0.7 0.8,-1"
     class="mo-tn" />
  <path
     style="fill:none;stroke:#282828;stroke-width:2"
     inkscape:connector-curvature="0"
     id="path6055"
     d="m 582.6,367.7 38.3,-2.6"
     class="ms-tn" />
  <path
     style="fill:none;stroke:#282828;stroke-width:2"
     inkscape:connector-curvature="0"
     id="path6057"
     d="M 362.5,56.3 357.3,123"
     class="mt-nd" />
  <path
     style="fill:none;stroke:#282828;stroke-width:2"
     inkscape:connector-curvature="0"
     id="path6059"
     d="m 357.3,123 -2,20.7"
     class="mt-sd" />
  <path
     style="fill:none;stroke:#282828;stroke-width:2"
     inkscape:connector-curvature="0"
     id="path6061"
     d="m 355.3,143.7 -51,-5.3 -57.3,-7.9 -2,10.7"
     class="mt-wy" />
  <path
     style="fill:none;stroke:#282828;stroke-width:2"
     inkscape:connector-curvature="0"
     id="path6063"
     d="m 710.9,355.2 4.4,-1.9 1.3,-0.1 7.3,-4.3 23.2,-2.2 0.4,0.5 -0.2,1.4 0.7,0.3 1.2,-1.5 3.3,3 0.1,2.6 19.7,-2.8 24.5,17.1"
     class="nc-sc" />
  <path
     style="fill:none;stroke:#282828;stroke-width:2"
     inkscape:connector-curvature="0"
     id="path6065"
     d="m 731.1,317 v 5.2 l -1.5,-0.1 -1.4,1.2 -2.4,5.2 -2.6,-1.1 -3.5,2.5 -0.7,2.1 -1.5,1.2 -0.8,-0.8 -0.1,-1.5 -0.8,-0.2 -4,3.3 -0.6,3.4 -4.7,2.4 -0.5,1.2 -3.2,2.6 -3.6,0.5 -4.6,3 -0.8,4.1 -1.3,0.9 -1.5,-0.1 -1.4,1.3 -0.1,4.9"
     class="nc-tn" />
  <path
     style="fill:none;stroke:#282828;stroke-width:2"
     inkscape:connector-curvature="0"
     id="path6067"
     d="m 731.1,317 29.4,-3.5 39.4,-7.3 29.1,-6.1"
     class="nc-va" />
  <path
     style="fill:none;stroke:#282828;stroke-width:2"
     inkscape:connector-curvature="0"
     id="path6069"
     d="m 357.3,123 39.2,2.9 46,2.1 29.5,0.4"
     class="nd-sd" />
  <path
     style="fill:none;stroke:#282828;stroke-width:2"
     inkscape:connector-curvature="0"
     id="path6071"
     d="m 351.4,187.6 51.1,3.5 38,1.6 3.4,3.2 1.7,0.2 2.1,2 1.8,-0.1 1.8,-2 1.5,0.6 1,-0.7 0.7,0.5 0.9,-0.4 0.7,0.4 0.9,-0.4 1,0.5 1.4,-0.6 2,0.6 0.6,1.1 6.1,2.2 1.2,1.3 0.9,2.6 1.8,0.7 1.5,-0.2"
     class="ne-sd" />
  <path
     style="fill:none;stroke:#282828;stroke-width:2"
     inkscape:connector-curvature="0"
     id="path6073"
     d="m 347.7,231.8 3.7,-44.2"
     class="ne-wy" />
  <path
     style="fill:none;stroke:#282828;stroke-width:2"
     inkscape:connector-curvature="0"
     id="path6075"
     d="m 857.9,100.1 1.2,2.3 -1.1,3.5 2.1,2.8 -0.4,1.7 0.1,1.3 -1.1,2.1 -1.4,0.4 -0.6,1.3 -2.1,1 -0.7,1.5 1.4,3.4 -0.5,2.5 0.5,1.5 -1,1.9 0.4,1.9 -1.3,1.9 0.2,2.2 -0.7,1.1 0.7,4.5 0.7,1.5 -0.5,2.6 0.9,1.8 -0.2,2.5 -0.5,1.3 -0.1,1.4 2.1,2.6"
     class="nh-vt" />
  <path
     style="fill:none;stroke:#282828;stroke-width:2"
     inkscape:connector-curvature="0"
     id="path6077"
     d="m 827.9,190.5 14.6,4.9 -0.4,5.9"
     class="nj-ny" />
  <path
     style="fill:none;stroke:#282828;stroke-width:2"
     inkscape:connector-curvature="0"
     id="path6079"
     d="m 823.8,227.2 1.4,-1.7 1.6,-0.6 1.8,-3 1.6,-2.3 3.3,-2.6 -4.2,-3.2 -2.1,-1.1 -1,-2.8 -2.7,-0.9 -0.5,-3.6 1,-1 0.7,-2 -1.5,-1.8 3,-5.4 -0.1,-2.2 1.8,-2.5"
     class="nj-pa" />
  <path
     style="fill:none;stroke:#282828;stroke-width:2"
     inkscape:connector-curvature="0"
     id="path6081"
     d="m 358.1,322.3 -0.6,10.6"
     class="nm-ok" />
  <path
     style="fill:none;stroke:#282828;stroke-width:2"
     inkscape:connector-curvature="0"
     id="path6083"
     d="m 284.3,431.2 -2,-2.2 0.3,-3 34.4,3.6 31.8,2.6 7.9,-99.3 h 0.8"
     class="nm-tx" />
  <path
     style="fill:none;stroke:#282828;stroke-width:2"
     inkscape:connector-curvature="0"
     id="path6085"
     d="m 93.9,166.5 47,11.2"
     class="nv-or" />
  <path
     style="fill:none;stroke:#282828;stroke-width:2"
     inkscape:connector-curvature="0"
     id="path6087"
     d="m 188.6,187.8 -21,109"
     class="nv-ut" />
  <path
     style="fill:none;stroke:#282828;stroke-width:2"
     inkscape:connector-curvature="0"
     id="path6089"
     d="m 827.9,190.5 -1.6,-1.1 -1.9,0.3 -3,-2.2 -3,-5.8 h -2 l -0.4,-1.5 -1.7,-1.1 -70.5,13.9 -0.8,-6"
     class="ny-pa" />
  <path
     style="fill:none;stroke:#282828;stroke-width:2"
     inkscape:connector-curvature="0"
     id="path6091"
     d="m 843.6,155.3 -1.1,-1 0.5,-2 -3,-14.2 -1.9,-1.5 -0.9,1.6 -0.9,-2.2 0.8,-1.8 -3.1,-6.7 0.3,-3.8 0.4,-1 -0.6,-2 0.4,-2.2 -2.2,-2.3 -0.5,-3.2 0.4,-1.5 -1.4,-0.9 0.6,-1.9 -0.8,-1.7"
     class="ny-vt" />
  <path
     style="fill:none;stroke:#282828;stroke-width:2"
     inkscape:connector-curvature="0"
     id="path6093"
     d="m 736.8,225.1 -4.9,-29.9"
     class="oh-pa" />
  <path
     style="fill:none;stroke:#282828;stroke-width:2"
     inkscape:connector-curvature="0"
     id="path6095"
     d="m 709.3,279.4 3.2,-1.4 h 1.5 l 0.4,-3.5 1.5,-0.8 -1.3,-3.6 1.1,-1.3 0.3,-2.2 1,-2.3 1.6,0.5 0.6,2.1 1,-0.5 0.7,-0.8 1,-0.2 v -1.9 l -1.4,-1.1 1,-0.5 -0.1,-2.1 1.3,-2.2 h 1.3 l 0.3,-1.2 1.5,-1.8 1.3,1.2 1.8,-1.7 h 0.6 l 1.8,-2 2,-3.3 1.1,-0.5 0.4,-2.2 -0.5,-1.1 1,-3.6 0.1,-5.4 1.1,-3.4 -0.6,-2 0.1,-2.2 -1.4,-2.1 2.2,-1.2"
     class="oh-wv" />
  <path
     style="fill:none;stroke:#282828;stroke-width:2"
     inkscape:connector-curvature="0"
     id="path6097"
     d="m 357.5,332.9 52.6,3.2 -1.4,42.7 2.7,1.3 2.5,3 1.5,0.3 1.1,-1 1.2,0.4 1.4,1 1.1,-1.5 2.3,1.7 0.5,2.9 1.2,0.7 2.3,-0.1 3.5,1.9 2,-0.1 1.4,-0.4 2.3,2.2 2,-2.3 3.5,1.1 1.9,3 2.3,-0.1 -0.7,2.1 2.3,1.1 3,-2.6 2.6,1.7 1.3,-0.5 0.1,1.5 1.7,1.2 2.3,-2.5 1.2,0.7 -0.3,2 1,1.8 1.2,-0.8 2.5,-4.2 1.8,2 2,0.5 2.1,-0.7 2,1.8 1.2,-0.1 1.3,1.2 3.6,-0.9 0.6,-1.7 3.7,-0.3 1.6,0.7 5,-2.5 0.6,1.5 5.1,-0.3 0.5,-1.6 2.2,0.9 4.6,3.8 6.4,1.9"
     class="ok-tx" />
  <path
     style="fill:none;stroke:#282828;stroke-width:2"
     inkscape:connector-curvature="0"
     id="path6099"
     d="m 161.5,91.9 -30.3,-7.3 -2.8,1 -5.4,-0.9 -1.8,-0.9 -1.5,1.2 -3.3,-0.4 -4.5,0.5 -0.9,0.7 -4.2,-0.4 -0.8,-1.6 -1.2,-0.2 -4.4,1.3 -1.6,-1.1 -2.2,0.8 -0.2,-1.8 -2.3,-1.2 -1.5,-0.2 -1,-1.1 -3,0.3 -1.2,-0.8 h -1.2 l -1.2,0.9 -5.5,0.7 -6.6,-4.2 1.1,-5.6 -0.4,-4.1 -3.2,-3.7 -3.7,0.1 -0.4,-1.1 0.4,-1.2 -0.7,-0.8 -1,0.1"
     class="or-wa" />
  <path
     style="fill:none;stroke:#282828;stroke-width:2"
     inkscape:connector-curvature="0"
     id="path6101"
     d="m 736.8,225.1 3.2,19.7 17.4,-2.9"
     class="pa-wv" />
  <path
     style="fill:none;stroke:#282828;stroke-width:2"
     inkscape:connector-curvature="0"
     id="path6103"
     d="m 351.4,187.6 3.9,-43.9"
     class="sd-wy" />
  <path
     style="fill:none;stroke:#282828;stroke-width:2"
     inkscape:connector-curvature="0"
     id="path6105"
     d="m 697.7,321.1 28.9,-3.3 0.2,-1 4.6,-0.5 -0.3,0.7"
     class="tn-va" />
  <path
     style="fill:none;stroke:#282828;stroke-width:2"
     inkscape:connector-curvature="0"
     id="path6107"
     d="m 236.5,196 -3.3,21.9 32.1,4.8"
     class="ut-wy" />
  <path
     style="fill:none;stroke:#282828;stroke-width:2"
     inkscape:connector-curvature="0"
     id="path6109"
     d="m 722.7,296.9 0.7,0.6 -0.8,1.2 1.5,0.7 0.1,1.5 4.4,2.3 2.3,-0.1 1.9,-1.8 0.8,-1.7 3,1.8 5.5,-2.4 0.5,-0.9 -0.8,-0.5 0.6,-1.4 1.5,1 4.3,-3.1 0.7,1.1 2.3,-2 -0.1,-1.4 1.5,-1.9 -1.5,-1.2 1,-3.3 3.7,-6.3 -0.4,-1.9 2.1,-2.2 -0.4,-1.5 1.4,-1.7 0.1,-4.7 2.3,0.7 1.3,1.9 2.8,0.5 1.3,-1.6 2.3,-8.5 2.4,1.1 1,-2.5 0.9,-0.8 1.4,-1.8 0.9,-0.8 0.5,-2.1 1.2,-0.8 -0.1,-2.9 0.8,-2.3 -0.9,-1.6 0.2,-0.9 10,5.2 0.5,-2.3 0.4,-1.6 0.4,-0.7"
     class="va-wv" />
 <circle
     r="6.2282438"
     cy="250.6062"
     cx="801.61389"
     class="dc"
     id="DC"
     style="fill:#282828;fill-opacity:0;stroke:#282828;stroke-width:1.50047243;stroke-linecap:butt;stroke-linejoin:miter;stroke-miterlimit:4;stroke-dasharray:none;stroke-dashoffset:0;stroke-opacity:1" />
</svg>
