<?xml version="1.0" encoding="UTF-8" standalone="no"?>
<!-- created with inkscape (http://www.inkscape.org/) -->

<svg
   xmlns:dc="http://purl.org/dc/elements/1.1/"
   xmlns:cc="http://creativecommons.org/ns#"
   xmlns:rdf="http://www.w3.org/1999/02/22-rdf-syntax-ns#"
   xmlns:svg="http://www.w3.org/2000/svg"
   xmlns="http://www.w3.org/2000/svg"
   xmlns:sodipodi="http://sodipodi.sourceforge.net/DTD/sodipodi-0.dtd"
   xmlns:inkscape="http://www.inkscape.org/namespaces/inkscape"
   version="1.1"
   width="200px"
   height="200px"
   viewBox="0 0 200 200"
   id="svg8"
   inkscape:version="0.92.4 (5da689c313, 2019-01-14)"
   sodipodi:docname="AG.svg">
  <defs
     id="defs4757" />
  <sodipodi:namedview
     pagecolor="#ffffff"
     bordercolor="#666666"
     borderopacity="1"
     objecttolerance="10"
     gridtolerance="10"
     guidetolerance="10"
     inkscape:pageopacity="0"
     inkscape:pageshadow="2"
     inkscape:window-width="1278"
     inkscape:window-height="1368"
     id="namedview4755"
     showgrid="false"
     inkscape:zoom="2.4143064"
     inkscape:cx="100"
     inkscape:cy="100"
     inkscape:window-x="1273"
     inkscape:window-y="0"
     inkscape:window-maximized="1"
     inkscape:current-layer="svg8" />
  <metadata
     id="metadata4770">
    <rdf:RDF>
      <cc:Work
         rdf:about="">
        <dc:format>image/svg+xml</dc:format>
        <dc:type
           rdf:resource="http://purl.org/dc/dcmitype/StillImage" />
        <dc:title />
      </cc:Work>
    </rdf:RDF>
  </metadata>
  <path
     style="fill:#000000;stroke-width:0"
     d="m 185.85353,25.088749 -5.84434,2.364836 0.74279,0.854206 -0.29714,4.456779 -2.67404,6.833692 -4.75387,4.753867 -3.86257,3.268303 v 4.75391 l -2.07982,3.862528 -2.3769,7.427943 2.07982,6.239431 1.7827,1.485607 0.44569,1.931256 0.59422,3.268312 1.03992,5.79379 0.29712,1.039913 2.52549,1.188477 4.15964,2.376957 0.74278,3.565389 -0.89135,2.079823 -6.98225,8.319302 0.44569,2.52552 7.8736,4.1596 -0.66003,2.97161 0.54322,8.92937 1.96515,2.38973 1.5757,1.28821 3.12812,0.57533 2.26971,-3.21514 1.09925,0.51247 -2.02358,3.46873 -2.02447,3.66174 -2.73121,3.04637 -2.73121,1.26055 -3.77681,0.75615 c 0.46697,0.81138 1.46262,1.96246 1.86391,2.78547 0.49791,1.0211 0.94371,2.47809 1.29409,3.55875 0.21807,0.6721 0.42919,1.59251 0.64704,2.26461 0.35056,1.08066 1.04652,2.45007 1.29408,3.55875 0.23371,1.04625 0.54513,2.50988 0.32364,3.55874 -0.20679,0.97766 -1.18857,2.00924 -1.61762,2.9117 -0.44884,0.94408 -1.3212,2.1902 -1.29409,3.2352 0.0347,1.38917 1.40563,2.92348 1.94111,4.20578 0.31973,0.76521 0.79145,1.77854 0.9706,2.58817 0.27323,1.23556 0.27497,2.94128 0.32362,4.20578 0.0521,1.3578 -0.19722,3.18493 0,4.52933 0.14723,1.00255 0.72536,2.25201 0.97058,3.2352 0.23936,0.96038 0.3258,2.29902 0.64704,3.2352 0.28193,0.82115 1.2744,1.72031 1.29407,2.58821 0.0217,0.95563 -1.03413,1.99181 -1.29407,2.9117 -0.39922,1.41337 -0.20244,3.45297 -0.66216,4.81897 l -5.66571,1.67806 -6.20438,1.51945 -2.65901,0.37966 -1.7727,-2.91226 -2.40576,-4.81156 -2.27917,-4.81156 -2.53239,-6.71084 -0.88635,-5.19141 -2.02592,-6.07774 -2.40579,-7.85045 -1.13956,-5.31806 -0.25327,-3.79858 -0.75967,-2.4058 -0.75973,-0.50647 -4.93818,-1.39281 -1.13961,-2.02592 -3.9252,-0.88635 -2.53238,0.12641 -5.19145,6.7108 -2.91222,1.64612 -1.13961,3.03885 -0.88631,4.55835 -0.38009,2.78564 -1.26619,2.53242 -2.15255,1.77265 -2.27917,0.37969 -2.65902,-0.75969 -2.02591,-1.77272 -0.25326,-1.51948 v -1.77266 l 2.91227,-1.39283 -0.37966,-1.64602 -2.02592,0.50643 -5.82454,0.63318 -6.07774,0.50641 -3.0389,-0.63309 -0.1264,-3.29214 -1.01299,-2.53235 -0.37967,-0.63309 -1.899327,-0.37967 -2.912224,-0.63309 -2.912267,0.88631 -1.392821,1.01297 -0.633095,2.53243 -0.886351,2.65896 -3.038895,0.8864 -2.912225,0.25327 -3.292151,-0.25327 h -2.152543 l 0.253255,-1.39282 0.253255,-4.30513 v -3.16543 l -0.759722,-2.27917 -1.772704,-3.29211 -2.025915,0.75972 -3.418736,1.01294 h -1.646032 -2.152543 l -1.519448,-1.39283 -1.519448,-0.25324 -0.126411,2.40574 v 10.00296 l -0.633097,1.26618 -1.012936,1.13957 -1.519448,0.88641 -4.558298,-0.25326 -2.152544,-1.01294 -3.79862,-0.50646 -4.938183,0.63309 -2.279127,0.63304 -2.279172,1.5195 -4.818286,0.39096 -0.499736,-3.99952 -0.06343,-6.26764 0.886308,-3.79862 0.551691,-1.26666 c 0.951641,-0.33884 1.809973,-1.58391 2.455927,-2.41123 0.968496,-1.24039 1.941642,-3.1187 2.698933,-4.49822 0.435617,-0.79353 0.820149,-1.96454 1.349466,-2.69889 0.613721,-0.85152 1.879784,-1.60885 2.474,-2.47404 0.376191,-0.54779 0.498996,-1.49409 0.899645,-2.02419 0.635443,-0.84086 2.032128,-1.43295 2.698976,-2.2491 0.630272,-0.77154 1.437694,-1.93713 1.574355,-2.92391 0.170721,-1.2324 -1.051684,-2.81357 -0.899643,-4.0484 0.09209,-0.74874 0.797778,-1.56919 1.020408,-2.31224 l 2.143334,1.51958 2.215836,1.77266 2.722347,1.07628 3.482027,0.75972 6.710843,0.56976 4.368423,0.31668 1.899288,-0.31668 1.456112,-0.56976 1.392819,-2.02591 1.139609,-3.98854 2.215834,-6.26763 2.152545,-4.36838 2.215835,-5.191483 -0.506467,-2.469088 -3.165525,-3.038851 -2.722303,-0.443133 -2.089252,-0.949688 -2.342462,-1.392775 -3.735284,-2.026003 -2.152544,-2.089208 2.78564,-1.646032 -0.126411,-2.97556 -0.823015,-3.482053 -1.835997,-0.506507 -0.823015,-2.722314 -0.06343,-2.025905 -2.469092,-0.253256 -1.234524,-0.221545 -3.133855,-2.05758 -0.633095,-4.051826 0.253255,-2.659012 -3.292097,-0.379668 -2.785638,-0.12684 -2.152545,-1.266196 -2.785638,-3.671996 -1.266193,-4.684923 -3.545362,-6.331003 -2.912224,-3.925204 -2.4058,-3.038894 -1.139562,-1.392821 -1.899332,-1.266191 -1.772658,-0.126839 -1.646077,1.012979 -0.886309,1.646032 -0.633139,2.785641 -0.633096,2.279169 -0.886308,2.785641 -2.532427,2.405755 -2.659011,1.899331 -3.925204,0.253251 -0.253255,-2.659012 0.379665,-1.77266 -0.759724,-1.392819 -1.772654,-0.886353 -3.735327,-3.292107 -3.292107,-1.709367 -3.3554003,-1.2029 -0.3362264,-1.876744 c 0.8802268,-0.205036 2.1845157,-0.416154 3.1521437,-0.624493 1.265845,-0.27237 2.97013,-0.583401 4.205784,-0.970582 0.997514,-0.312334 2.246069,-0.955943 3.2352,-1.294081 1.337174,-0.45712 3.212265,-0.781791 4.529325,-1.29408 1.011286,-0.393568 2.373914,-0.957551 3.235202,-1.617622 0.927619,-0.710897 1.989599,-1.907889 2.588161,-2.91166 0.581836,-0.975707 0.876056,-2.502454 1.29408,-3.558742 0.271935,-0.68731 0.556164,-1.652592 0.970582,-2.264662 0.230667,-0.341006 0.590135,-0.812982 0.970582,-0.970582 0.448345,-0.185924 1.145298,-0.111644 1.617578,0 0.844867,0.19939 1.759585,1.035264 2.588205,1.294124 0.655078,0.204601 1.578396,0.331447 2.264618,0.323628 0.590351,-0.0087 1.372619,-0.164203 1.941163,-0.323628 0.503298,-0.140752 1.149339,-0.414853 1.61758,-0.647083 0.506989,-0.251519 1.081396,-0.789569 1.617622,-0.970539 0.832703,-0.281058 2.033127,-0.347521 2.911703,-0.32363 0.590133,0.01738 1.384956,0.12554 1.941119,0.32363 0.737136,0.262378 1.711324,0.740782 2.264663,1.29408 0.553297,0.553296 0.945257,1.56419 1.294081,2.264662 0.329276,0.661636 0.687699,1.58174 0.970539,2.264618 0.199823,0.48288 0.512071,1.112674 0.647039,1.617623 0.177236,0.663025 0.180277,1.59347 0.323629,2.264662 0.147264,0.691044 0.32276,1.63678 0.647041,2.264662 0.284966,0.552211 0.794953,1.247296 1.29408,1.61758 0.839523,0.622843 2.405538,0.658247 3.2352,1.294081 0.385315,0.295391 0.515461,1.125749 0.970582,1.294123 0.83922,0.310595 2.173525,-0.141179 2.911703,-0.647085 0.577363,-0.395739 0.896517,-1.365104 1.294082,-1.941119 0.474277,-0.687135 0.87523,-1.882607 1.617622,-2.264663 0.776665,-0.399649 2.038903,-0.03475 2.911658,0 1.167713,0.04866 2.717613,0.226324 3.882285,0.323629 1.164673,0.09688 2.756925,0.0087 3.882241,0.323628 0.626884,0.175932 1.318015,0.781878 1.94112,0.970539 0.748951,0.226758 1.807195,0.274976 2.588161,0.323628 1.259328,0.07819 2.953536,0.154214 4.205827,0 0.794345,-0.09773 1.870965,-0.291918 2.588161,-0.647039 0.556901,-0.275846 1.132309,-0.905856 1.617622,-1.294124 0.485269,-0.388355 1.178137,-0.85464 1.617578,-1.294081 0.43944,-0.439439 0.771062,-1.28196 1.294082,-1.61758 0.33666,-0.215896 0.898296,-0.382271 1.294079,-0.323628 0.55977,0.08341 1.147992,0.654773 1.617622,0.970582 0.40269,0.270633 0.833703,0.817108 1.294081,0.970539 0.920756,0.307122 2.264663,0 3.235249,0 0.388357,0 0.956237,0.191136 1.294077,0 0.49244,-0.278885 0.69821,-1.121493 0.97054,-1.617578 0.3132,-0.570759 0.82097,-1.307503 0.97058,-1.941121 0.15595,-0.661245 0,-1.585259 0,-2.264663 0,-0.194177 -0.066,-0.464547 0,-0.647039 0.25803,-0.712766 0.93114,-1.619622 1.61763,-1.941122 0.43943,-0.205906 1.13595,0.05908 1.61757,0 0.79434,-0.09773 1.83756,-0.369239 2.58816,-0.647083 0.20374,-0.07515 0.46733,-0.201995 0.64704,-0.323628 0.9678,-0.655207 2.01836,-1.834649 2.91171,-2.58816 0.47505,-0.400518 1.03118,-1.088393 1.61762,-1.294081 0.82427,-0.289312 2.04472,0.106859 2.9117,0 0.39704,-0.04909 0.91876,-0.184621 1.29408,-0.323629 0.81419,-0.30104 1.81171,-0.905857 2.58816,-1.29408 0.58236,-0.291049 1.53374,-0.462725 1.94112,-0.970583 0.25022,-0.312334 0.11815,-0.950643 0.32363,-1.294081 0.74057,-1.238303 2.42148,-2.347285 3.55874,-3.2352 0.55165,-0.430491 1.42522,-0.8211056 1.94113,-1.2940808 0.45807,-0.4200655 0.71367,-1.3955129 1.29407,-1.617622 0.55139,-0.2111189 1.46624,-0.026065 1.94112,0.3236281 0.34926,0.2580344 0.3649,0.9640659 0.64704,1.2940811 0.54239,0.6347464 1.50668,1.2675386 2.26467,1.6175786 0.36316,0.167679 0.8969,0.274541 1.29408,0.323629 0.38531,0.04735 0.90746,0.03475 1.29408,0 1.08074,-0.09731 2.47803,-0.549604 3.55874,-0.647041 0.67667,-0.06082 1.59404,-0.1086 2.26467,0 0.60589,0.09817 1.33521,0.548692 1.94111,0.647041 0.86224,0.139876 2.04472,-0.106862 2.91171,0 0.79434,0.09774 1.94511,0.170719 2.58816,0.64704 0.45473,0.337095 0.79252,1.080399 0.97058,1.617622 0.30669,0.925839 -0.0942,2.353759 0.32363,3.235201 0.52902,1.116323 2.0382,2.038165 2.9117,2.911703 1.06763,1.067627 1.61762,3.235201 3.55875,3.558743 1.94112,0.323628 1.56362,1.164108 2.26466,1.617578 1.13214,0.732356 2.58816,2.264663 3.88224,2.264663 1.29408,0 2.93295,0.549691 4.20578,0.64704 1.16129,0.08862 2.71758,0 3.88225,0 1.06763,0 2.71725,0.657031 3.55873,0 0.31538,-0.246306 0.12641,-0.945865 0.32364,-1.294081 0.40572,-0.716675 1.18026,-1.625963 1.94111,-1.94112 0.35882,-0.148565 0.91286,-0.07341 1.29409,0 0.51325,0.09905 1.1261,0.420936 1.60289,0.634921 z"
     id="AG"
     inkscape:connector-curvature="0"
     inkscape:label="#AG-2-2" />
</svg>
