<?xml version="1.0" encoding="UTF-8" standalone="no"?>
<!-- created with inkscape (http://www.inkscape.org/) -->

<svg
   xmlns:dc="http://purl.org/dc/elements/1.1/"
   xmlns:cc="http://creativecommons.org/ns#"
   xmlns:rdf="http://www.w3.org/1999/02/22-rdf-syntax-ns#"
   xmlns:svg="http://www.w3.org/2000/svg"
   xmlns="http://www.w3.org/2000/svg"
   xmlns:sodipodi="http://sodipodi.sourceforge.net/DTD/sodipodi-0.dtd"
   xmlns:inkscape="http://www.inkscape.org/namespaces/inkscape"
   version="1.1"
   width="200px"
   height="200px"
   viewBox="0 0 200 200"
   id="svg8"
   inkscape:version="0.92.4 (5da689c313, 2019-01-14)"
   sodipodi:docname="AR.svg">
  <defs
     id="defs4757" />
  <sodipodi:namedview
     pagecolor="#ffffff"
     bordercolor="#666666"
     borderopacity="1"
     objecttolerance="10"
     gridtolerance="10"
     guidetolerance="10"
     inkscape:pageopacity="0"
     inkscape:pageshadow="2"
     inkscape:window-width="1278"
     inkscape:window-height="1368"
     id="namedview4755"
     showgrid="false"
     inkscape:zoom="2.1598416"
     inkscape:cx="82.760488"
     inkscape:cy="45.604647"
     inkscape:window-x="1273"
     inkscape:window-y="0"
     inkscape:window-maximized="0"
     inkscape:current-layer="svg8" />
  <metadata
     id="metadata4770">
    <rdf:RDF>
      <cc:Work
         rdf:about="">
        <dc:format>image/svg+xml</dc:format>
        <dc:type
           rdf:resource="http://purl.org/dc/dcmitype/StillImage" />
        <dc:title />
      </cc:Work>
    </rdf:RDF>
  </metadata>
  <path
     style="fill:#000000;stroke-width:0"
     d="m 185.09361,57.303461 -5.80678,-4.945711 -6.64505,-5.181904 -5.54769,-2.133742 -7.43752,2.133742 0.54856,6.218295 5.36484,3.779755 4.32838,2.987204 4.67514,2.678619 -5.1019,3.96642 -7.80331,1.706973 -3.41395,3.657786 -3.07863,1.859398 -0.39594,-5.456199 9.32743,-4.938066 -4.02357,-3.474931 -4.2065,-6.523119 -2.13373,-3.901701 -3.17013,1.280306 -5.48671,1.706948 -2.49953,1.889852 -2.31659,3.048189 5.36483,3.77973 -2.13373,2.804349 -4.63327,2.377556 -3.04817,3.840714 1.55074,3.634926 -2.28231,6.119286 -3.17012,8.047143 v 4.38942 l 2.43855,4.877005 0.79137,4.570146 -6.64387,1.52627 -6.58408,0.24414 -5.36475,-2.43856 -3.90169,-7.803287 -9.99803,-4.389352 -12.192673,-4.877106 -7.559477,-3.170111 -6.827903,1.463136 -4.877098,1.463078 2.926216,7.071807 2.194713,2.926195 -3.413951,5.364854 -8.047216,7.071736 -6.096334,6.82789 -1.463144,11.46119 -2.194642,12.43656 4.145524,8.29105 4.633189,3.90168 3.657786,9.02254 1.669299,9.30607 -5.327085,4.10593 -8.047216,-4.14554 -9.754119,-6.34017 -4.877095,-3.90167 -4.633262,2.92627 -5.852502,0.9754 -6.583999,-0.9754 -5.8525,-2.92629 -6.096408,-3.65779 5.364835,-11.46116 -3.657858,-1.70697 -2.194643,-10.48571 0.731425,-5.12099 6.340166,-5.12092 2.926286,-2.92622 -5.852499,-4.87711 -4.633264,3.41395 -1.4631438,-1.21922 v -4.87711 l -4.389357,-4.63326 -0.2440545,-3.17011 5.1209293,-2.682376 5.120928,-5.364751 1.219311,-5.852518 0.487369,-3.657856 5.852502,-3.901627 5.364835,-5.364834 8.290977,-1.463059 10.485762,-0.731417 10.485691,-2.682454 6.827978,-4.877031 8.778713,-1.463135 8.778789,0.24414 h 3.170047 l 9.754192,-1.706998 7.315641,-3.413947 h 4.63319 l 2.68246,-9.022645 8.53488,-1.706973 9.26645,-2.682379 9.7542,-4.389353 6.34017,-7.071807 5.36483,-5.120946 6.8279,0.24414 6.34017,4.633242 8.04722,4.389353 8.77871,2.926293 9.7542,5.364785 4.14552,2.43854 z"
     id="AR"
     inkscape:connector-curvature="0"
     inkscape:label="#AR-6-5" />
</svg>
