<?xml version="1.0" encoding="UTF-8" standalone="no"?>
<!-- created with inkscape (http://www.inkscape.org/) -->

<svg
   xmlns:dc="http://purl.org/dc/elements/1.1/"
   xmlns:cc="http://creativecommons.org/ns#"
   xmlns:rdf="http://www.w3.org/1999/02/22-rdf-syntax-ns#"
   xmlns:svg="http://www.w3.org/2000/svg"
   xmlns="http://www.w3.org/2000/svg"
   xmlns:sodipodi="http://sodipodi.sourceforge.net/DTD/sodipodi-0.dtd"
   xmlns:inkscape="http://www.inkscape.org/namespaces/inkscape"
   version="1.1"
   width="200px"
   height="200px"
   viewBox="0 0 200 200"
   id="svg8"
   inkscape:version="0.92.4 (5da689c313, 2019-01-14)"
   sodipodi:docname="BE.svg">
  <defs
     id="defs4757" />
  <sodipodi:namedview
     pagecolor="#ffffff"
     bordercolor="#666666"
     borderopacity="1"
     objecttolerance="10"
     gridtolerance="10"
     guidetolerance="10"
     inkscape:pageopacity="0"
     inkscape:pageshadow="2"
     inkscape:window-width="1278"
     inkscape:window-height="1368"
     id="namedview4755"
     showgrid="false"
     inkscape:zoom="2.4741154"
     inkscape:cx="146.37101"
     inkscape:cy="38.36917"
     inkscape:window-x="1273"
     inkscape:window-y="0"
     inkscape:window-maximized="0"
     inkscape:current-layer="svg8" />
  <metadata
     id="metadata4770">
    <rdf:RDF>
      <cc:Work
         rdf:about="">
        <dc:format>image/svg+xml</dc:format>
        <dc:type
           rdf:resource="http://purl.org/dc/dcmitype/StillImage" />
        <dc:title />
      </cc:Work>
    </rdf:RDF>
  </metadata>
  <path
     style="fill:#000000;stroke-width:0"
     d="m 51.850129,147.86755 1.439309,-1.86482 2.446992,-1.90323 1.812586,-0.99691 2.718886,0.27189 1.812585,-1.08756 -1.72196,-2.71887 0.181174,-3.53457 0.181173,-2.71888 0.271896,-1.35944 1.540687,-0.99691 1.903222,0.81566 0.815669,-0.18116 1.540702,0.0906 0.271879,-2.53762 -0.09068,-4.07833 -1.359439,-1.35945 -2.175102,-1.90321 -1.450079,-0.90628 -2.54977,-0.94487 c -0.304099,-0.31744 -1.060702,-0.33763 -1.282933,-0.71531 -0.215857,-0.36685 -0.127886,-1.01284 0,-1.4188 0.156177,-0.49549 0.777568,-0.94605 0.993153,-1.41879 0.145714,-0.31936 0.356245,-0.79159 0.283758,-1.13501 -0.100178,-0.47485 -0.751689,-0.85594 -0.993158,-1.27691 -0.342136,-0.59647 -0.758774,-1.44678 -0.85128,-2.12818 -0.05174,-0.38193 -0.05464,-0.9454 0.141838,-1.27692 0.265054,-0.44684 1.153734,-0.54629 1.418788,-0.99312 0.196616,-0.33154 0.103084,-0.89346 0.141839,-1.27693 0.04725,-0.46775 -0.0041,-1.11374 0.141837,-1.56066 0.154044,-0.47189 0.650711,-0.96474 0.85128,-1.41878 0.179623,-0.40648 0.26182,-1.00572 0.42563,-1.4188 0.210509,-0.53084 0.546776,-1.21943 0.851265,-1.70254 0.258752,-0.41056 0.626506,-0.95895 0.993151,-1.27691 l -0.384261,-0.24784 -1.178203,-0.72501 c 0,0 -1.359436,-1.087568 -1.268809,-1.450083 0.09068,-0.362506 0.453144,-1.178169 0.453144,-1.178169 l 0.996916,-1.359462 0.362518,0.815663 1.26883,0.996937 0.459272,0.736037 c 0.325043,-0.745393 1.498695,-1.193658 1.986292,-1.844427 0.11413,-0.152296 0.314251,-0.379635 0.283756,-0.567512 -0.04825,-0.297098 -0.579039,-0.438138 -0.709408,-0.709403 -0.167027,-0.347396 -0.120522,-0.892075 -0.141838,-1.276904 -0.02112,-0.382497 0.146489,-0.922993 0,-1.276905 -0.184273,-0.444892 -0.721609,-0.888103 -1.135032,-1.135034 -0.381507,-0.227869 -0.974885,-0.40474 -1.418787,-0.425632 -0.433597,-0.02031 -1.063979,0.03372 -1.418788,0.283752 -0.202875,0.143012 -0.188923,0.63461 -0.425629,0.709382 -0.399726,0.126333 -0.897786,-0.3886 -1.276909,-0.567502 -0.258216,-0.121879 -0.567893,-0.390762 -0.851281,-0.425632 -0.389474,-0.04793 -0.915982,0.129825 -1.276911,0.283752 -0.141061,0.06024 -0.275342,0.252654 -0.425628,0.283751 -0.466014,0.09645 -1.122364,-0.09846 -1.560666,-0.283751 -0.674482,-0.285212 -1.272896,-1.253593 -1.986311,-1.418786 -0.252227,-0.05829 -0.596899,0.190081 -0.851259,0.141841 -0.243841,-0.04631 -0.527048,-0.257284 -0.709406,-0.425631 -0.269027,-0.248372 -0.709381,-0.993156 -0.693356,-0.987734 l -2.167525,-0.156561 0.543769,-4.168954 -0.181172,-2.990763 -0.815666,-2.990767 0.906292,-1.178186 2.084478,-1.359436 -0.362523,-1.812599 -1.812581,-1.99385 -1.178185,0.72504 -4.622095,2.17512 -4.984616,0.815664 -2.265726,0.09068 -3.514197,1.038576 -0.382885,-0.222929 -1.993849,-0.634396 -2.678898,-1.35934 -2.667833,-2.489217 c 7.8e-5,0.01163 0.448883,-0.977965 0.650634,-1.397723 0.189117,-0.39333 0.461497,-0.907764 0.650556,-1.301093 0.201732,-0.41976 0.384164,-1.027511 0.650536,-1.409544 0.236803,-0.339597 0.655671,-0.713355 0.975834,-0.975814 0.36281,-0.297414 0.903152,-0.618991 1.301111,-0.867421 0.383331,-0.239284 0.891952,-0.567138 1.301111,-0.758968 0.344714,-0.161602 0.821111,-0.350719 1.19268,-0.433711 0.350643,-0.07829 0.836669,-0.05987 1.192679,-0.108316 0.36035,-0.04902 1.182584,-0.221127 1.182584,-0.221127 l 1.488957,-0.704171 0.479244,-2.4761 0.159665,-1.916982 -0.479246,-1.67739 -3.354745,-2.236467 -3.594332,-1.916983 -0.878622,-0.559117 -3.035236,0.07984 -4.313211,0.559117 -2.63586,1.277993 -2.236468,1.118235 -1.757241,0.798748 -1.837111,0.798751 -0.319503,-1.917002 1.118234,-1.437737 0.559135,-2.156597 -0.239632,-3.035255 -0.898579,-1.936921 2.975323,-0.339482 1.67735,-1.078297 2.436183,-2.156635 1.397801,-1.357828 3.035218,0.319485 1.597499,-0.159664 0.798728,-1.277996 0.159665,-1.277995 3.035217,-0.479246 1.916982,-2.555971 1.597499,-3.514481 0.319483,-1.75724 3.833988,0.798748 6.70944,-0.479245 -0.63899,-3.354719 1.916986,-1.118253 -0.159664,-2.236487 0.798729,-1.75722 1.917002,-0.319505 h 2.076748 l 1.597475,1.757241 3.03522,0.638989 3.674224,-0.159666 3.194976,-0.638988 2.715754,-1.437756 2.715732,-2.236467 1.916962,-2.555988 0.798766,0.319464 0.47925,2.556008 2.236467,-0.159664 4.632734,0.479246 2.715714,0.319465 3.194974,1.118272 1.757238,-1.278015 1.597485,-1.916963 h 3.354734 l 0.920613,0.104053 -1.160264,1.772955 -1.038346,0.918518 -0.758809,1.118272 -1.1981,0.79873 -3.115131,0.87862 -1.477676,0.559118 -1.277977,1.078316 -0.359458,1.477653 -0.319462,0.559136 -0.718898,0.239652 -2.196513,0.479226 -1.877082,0.239614 -0.03994,1.597498 -1.797155,1.517589 -2.036789,1.238078 -3.075175,1.397802 -2.755685,1.118234 0.439328,3.514461 0.838687,0.998466 1.717285,0.519163 0.678923,0.319484 0.599094,2.436184 0.464925,0.881739 c 0.220719,-0.183499 0.626311,-0.253138 0.857964,-0.420107 0.195317,-0.140869 0.369031,-0.431192 0.567504,-0.567488 0.34555,-0.237346 0.940727,-0.317102 1.27691,-0.567508 0.314723,-0.23442 0.671177,-0.644509 0.851264,-0.993195 0.16102,-0.31183 0.110836,-0.829577 0.283773,-1.134994 0.118585,-0.209522 0.340314,-0.487849 0.567507,-0.567526 0.363698,-0.127499 0.894431,0.189504 1.276909,0.141838 0.360873,-0.04496 0.820644,-0.24283 1.13501,-0.42565 0.287382,-0.16722 0.577082,-0.521428 0.851281,-0.709364 0.36146,-0.247791 0.868221,-0.551308 1.276914,-0.709402 0.346627,-0.134088 0.910982,-0.05774 1.180413,-0.303073 l 0.152686,2.139758 0.159667,2.076744 1.557566,2.396248 -0.958515,1.877047 -0.838661,0.239593 -1.477695,-0.07984 -2.076725,-0.119748 -1.038365,1.357885 -0.758813,1.118215 v 1.477693 l -0.359458,1.078316 -2.356274,0.159665 -1.158191,0.119748 -0.718854,-0.599052 -1.477694,-0.239632 -0.559095,0.399355 -0.07984,1.158189 0.519184,1.238058 0.678923,1.477673 1.158187,1.956938 0.27955,0.359419 0.439306,-0.319483 1.557565,-1.118254 1.238039,-0.678943 1.238063,-0.359418 -0.03994,1.198123 -0.119749,0.918556 0.678925,0.918556 1.43774,-0.07984 1.477669,-0.559136 0.878619,-0.678942 0.199679,-1.078298 -0.559099,-0.798729 -0.519199,-0.958493 0.239631,-0.559135 1.916984,-0.918537 1.597498,-0.918577 1.557546,-1.03838 1.078297,-2.036789 0.559118,-2.236487 0.279569,-1.717304 1.557546,-0.479208 1.078311,-0.399413 1.317935,0.279568 1.317928,0.838705 1.118229,1.078296 2.755672,0.519163 2.755672,0.159664 1.557539,-0.479246 1.877053,-1.597498 1.19812,-1.597478 0.04,-1.158189 -0.19968,-1.477673 -1.19812,-1.158169 -1.277998,-0.639009 -0.958489,-0.998425 -0.838687,-1.238059 -1.317908,-2.595908 0.07984,-0.638987 -0.279569,-1.038381 -1.078298,-0.599053 -0.718878,-0.559117 -0.958495,0.03992 -0.95849,-0.199697 v -1.397805 l -0.439302,-1.357865 0.19969,-1.198105 -0.03991,-0.838683 -0.11975,-0.958493 1.238058,0.119749 3.873902,0.399375 1.038387,-0.159666 1.557547,-0.638986 1.55754,-0.519201 1.03838,-0.599053 1.75723,0.199679 0.55911,0.678942 1.43775,1.996854 0.91856,2.276422 1.75723,0.239612 1.79717,-0.199677 1.83711,-0.878602 0.67895,-0.439328 0.93909,1.443608 c 0.30043,-0.254766 0.65501,-0.673557 0.97177,-0.928477 0.24409,-0.196442 0.62536,-0.385617 0.85787,-0.595584 0.20595,-0.186017 0.37168,-0.547433 0.60194,-0.702292 0.15793,-0.106184 0.41271,-0.180009 0.60195,-0.200646 0.57164,-0.0622 1.33121,0.191056 1.90614,0.200646 0.42238,0.0078 0.98237,-0.08526 1.40453,-0.100371 0.39101,-0.01357 0.94273,0.149782 1.30027,0 l -0.23406,0.53699 -0.39536,1.69438 0.0283,2.795739 0.22592,1.779117 v 0.564814 l -0.11298,1.242555 0.56479,2.14621 1.35553,2.823991 1.01662,1.35552 0.8472,1.242536 0.16936,0.903694 -0.33888,2.598077 v 1.694401 l 1.1296,1.694382 0.50832,1.299039 -0.50832,1.299018 -0.96014,1.073106 -0.45185,1.299058 0.39536,1.920315 0.11297,1.073105 0.0566,1.468467 -0.2824,1.242536 -0.22591,2.31568 -0.5648,1.411985 1.1296,1.073124 1.18607,1.411985 0.45184,1.016661 0.16936,1.524952 0.39536,1.637899 1.63791,-0.225894 1.80736,0.112967 1.24253,0.395362 0.33889,1.524953 0.67775,1.920316 0.11297,1.186072 -0.79072,1.637898 -1.0731,1.750885 -0.39537,1.750866 -0.56481,1.073124 -1.18606,1.242556 -1.92031,-0.225935 -1.01662,0.960162 -1.35552,0.73424 -1.46848,1.186072 0.90368,0.677762 0.50831,1.073109 -0.0565,2.598079 -0.62129,1.299036 -1.80734,-0.05644 0.22591,3.671183 0.67776,1.863828 0.50833,1.073109 2.99342,2.146229 2.82399,1.63793 3.21934,2.71101 2.03327,2.42866 1.83601,2.90726 1.49766,-0.6989 3.39465,-0.99843 2.31763,-0.33571 1.0371,0.15598 3.99372,0.55911 1.43775,0.39939 3.59434,2.87547 3.19498,1.11824 2.79561,-1.19813 1.51761,-0.47922 2.87547,-0.0798 1.75724,-0.3195 2.39625,0.95847 2.4761,1.5975 3.27485,-2.39624 1.75723,-1.59747 1.85708,-0.77878 2.03681,-0.87862 0.36068,-0.58035 2.93412,1.85835 0.7014,0.70137 0.75632,0.97599 2.0967,-1.6574 2.91667,1.39406 -1.07956,2.04052 -0.11975,0.99845 0.23961,2.71574 0.91855,1.71728 0.59909,1.95693 0.0797,1.55755 v 1.55754 l -0.4393,0.83868 -0.95849,0.59906 -1.31794,-0.15966 -1.31793,-0.47925 -1.59747,-0.27957 -1.07833,-0.11975 0.11976,0.99843 0.3195,1.79717 0.47924,1.23806 1.00094,1.64241 -1.99936,2.23149 -1.278,1.75725 -1.19811,2.07675 -0.639,2.87546 v 2.71573 l -0.39937,1.59748 -1.8371,1.67736 -1.59749,1.11825 -1.83712,0.9585 -0.71887,1.19811 -3.83397,2.39624 -2.4761,0.87861 -5.27171,1.35787 -2.71574,0.47925 -1.83711,-1.75725 -3.27486,-0.63898 -3.03521,-1.99687 -2.31636,-0.87861 -1.99687,0.15967 -2.55597,-1.19811 -1.91699,-1.03838 -1.59748,0.0798 -1.43774,0.95851 -1.99688,1.03835 -2.23647,0.87862 -0.39938,5.11197 -3.59436,1.75722 -1.11822,1.51762 -2.71573,2.23649 -2.95537,0.47925 -4.87232,0.23962 -6.6296,5.75097 -7.58806,6.23018 -2.31634,-3.51446 -3.993743,-2.87549 -2.875468,-0.55912 -1.357866,1.35786 -1.118236,2.07675 -1.517627,1.91699 -2.555974,-0.0798 h -2.316355 l -1.198128,0.63899 -0.958487,0.95849 2.316355,1.5176 -0.559118,0.87862 -1.357866,1.43774 -2.15661,1.03839 -2.236465,0.71885 -4.153473,-1.35787 -2.476121,-0.55911 c 0,0 -4.073595,1.03837 -4.393079,1.19813 -0.319505,0.15966 -3.434615,2.55596 -3.434615,2.55596 l -2.316356,1.5975 -2.316357,1.43775 -1.437737,-0.55912 -0.718876,-1.11827 v -3.27483 l -2.076727,-0.39938 -1.996855,1.27799 -1.357867,1.03836 -0.399371,2.2365 -0.638992,1.99684 -1.517625,1.03839 -3.004098,-0.0641 0.555728,-1.48034 -0.72504,-3.26266 0.09068,-1.45007 -1.721954,-1.5407 v -3.80641 l 0.906291,-1.63134 -0.09068,-1.72195 -1.087558,-1.54071 -0.09068,-1.81259 0.634412,-0.81566 c 0,0 1.540688,0 1.903206,-0.2719 0.36252,-0.2719 1.26881,-1.26881 1.26881,-1.26881 0,0 -0.09068,-1.72196 0,-2.26573 0.09068,-0.54377 -0.271874,-2.71888 -0.271874,-2.71888 l 1.631313,-2.08448 1.178183,-1.72195 -0.181173,-2.90014 -0.36252,-3.17202 z"
     id="BE"
     inkscape:connector-curvature="0"
     inkscape:label="#BE-7-0"
     sodipodi:nodetypes="ccccccccccccccccccccccccsccccccsccccccccccccccccccccccccccccccccccccccccccccccccccccccccccccccccccccccccccccccccccccccccccccccccccccccccccccccccccccccccccccccccccccccccccccccccccccccccccccccccccccccccccccccccccccccccccccccccccccccccccccccccccccccccccccccccccccccccccccccccccccccccccccccccccccccccccccccccccccccccccccccccccccccccccccccccccccccccccccccccccccccccccccccccccccccccccccccccccccccccccccccccccccccccccccccccccccccccccccccccccccccccscccccc" />
</svg>
