<?xml version="1.0" encoding="UTF-8" standalone="no"?>
<!-- created with inkscape (http://www.inkscape.org/) -->

<svg
   xmlns:dc="http://purl.org/dc/elements/1.1/"
   xmlns:cc="http://creativecommons.org/ns#"
   xmlns:rdf="http://www.w3.org/1999/02/22-rdf-syntax-ns#"
   xmlns:svg="http://www.w3.org/2000/svg"
   xmlns="http://www.w3.org/2000/svg"
   xmlns:sodipodi="http://sodipodi.sourceforge.net/DTD/sodipodi-0.dtd"
   xmlns:inkscape="http://www.inkscape.org/namespaces/inkscape"
   version="1.1"
   width="200px"
   height="200px"
   viewBox="0 0 200 200"
   id="svg8"
   inkscape:version="0.92.4 (5da689c313, 2019-01-14)"
   sodipodi:docname="BL.svg">
  <defs
     id="defs4757" />
  <sodipodi:namedview
     pagecolor="#ffffff"
     bordercolor="#666666"
     borderopacity="1"
     objecttolerance="10"
     gridtolerance="10"
     guidetolerance="10"
     inkscape:pageopacity="0"
     inkscape:pageshadow="2"
     inkscape:window-width="2560"
     inkscape:window-height="1377"
     id="namedview4755"
     showgrid="false"
     inkscape:zoom="2.3854392"
     inkscape:cx="89.289312"
     inkscape:cy="32.180327"
     inkscape:window-x="-8"
     inkscape:window-y="-8"
     inkscape:window-maximized="1"
     inkscape:current-layer="svg8" />
  <metadata
     id="metadata4770">
    <rdf:RDF>
      <cc:Work
         rdf:about="">
        <dc:format>image/svg+xml</dc:format>
        <dc:type
           rdf:resource="http://purl.org/dc/dcmitype/StillImage" />
        <dc:title />
      </cc:Work>
    </rdf:RDF>
  </metadata>
  <path
     style="fill:#000000;stroke-width:0"
     d="m 22.599012,113.47904 0.536174,2.63496 1.416144,2.52885 6.777341,6.06923 2.073703,3.1358 3.793249,0.7081 2.432802,-0.38428 0.298395,-2.14477 1.112759,-2.62999 2.023037,-1.315 4.147345,-0.20221 4.653095,0.10111 0.606904,2.8323 4.349631,2.9335 3.641546,-2.9335 4.653102,-1.41615 0.708101,-2.32655 1.618449,-4.45079 9.913131,-1.41615 1.416168,-5.0577 9.407328,-0.7081 0.303305,-3.84384 2.225393,-3.74271 1.618433,-4.855394 -0.809191,-3.43924 -2.630039,-3.43924 0.202197,-4.65311 6.271535,-0.20219 3.439248,-0.2022 2.832293,-3.2369 1.6185,0.60689 2.63,3.84385 5.56349,0.9104 4.24844,-0.4044 3.74275,1.71959 -0.60694,1.6185 -2.83231,5.56345 -2.32655,3.03464 -3.23693,3.236954 -0.7081,4.04614 -0.30331,5.26006 -1.31499,3.23695 -2.93346,1.51729 -2.52889,1.1127 -6.57499,0.40441 0.303305,6.57504 0.809259,4.75419 1.213837,5.36119 h 4.855389 l 7.18195,-0.4049 7.89003,-1.11264 2.93345,1.82074 1.41615,2.93345 2.32655,3.13586 2.83234,2.62999 2.32655,1.92195 3.23695,1.41609 3.33804,0.50575 3.03465,-0.30331 v -2.93339 l 0.50579,-3.13579 4.04615,-3.0346 6.1704,-2.32659 4.55194,-1.9219 3.94504,-2.63001 4.75421,-4.75429 3.43928,-4.14728 3.64155,-0.80926 5.86695,0.7081 4.45074,-2.12425 5.36119,-3.94499 0.40441,-3.43925 c -0.50576,0 -1.71961,-2.73119 -1.71961,-2.73119 l -1.92194,-2.42773 0.4044,-3.94498 1.31501,-2.93351 0.92908,-3.030224 -3.48664,-2.22362 -0.71526,-4.57772 0.28612,-3.00412 -3.7194,-0.42894 -3.14717,-0.14332 -2.43191,-1.43053 -3.14714,-4.14859 -1.43058,-5.29296 -4.0055,-7.152702 -3.29021,-4.434637 -2.71803,-3.433308 -1.28747,-1.573602 -2.14584,-1.430517 -2.00274,-0.143319 -1.85971,1.144447 -1.00134,1.859672 -0.71526,3.147172 -0.71533,2.574981 -1.00133,3.147187 -2.86111,2.718 -3.00412,2.145842 -4.43464,0.28612 -0.28614,-3.004119 0.42896,-2.002724 -0.85833,-1.573602 -2.00274,-1.001396 -4.22013,-3.719378 -3.71937,-1.931231 -3.79089,-1.359025 -0.47656,-2.094939 c -1.21428,0.287589 -2.88018,0.578731 -4.01811,1.096647 -0.71969,0.327347 -1.47878,1.122907 -2.19306,1.462034 -1.34734,0.639645 -3.32466,1.02844 -4.75164,1.462034 -1.09538,0.332753 -2.51044,1.113881 -3.65514,1.096563 -1.04012,-0.01502 -2.32852,-0.698491 -3.28961,-1.096563 -1.13263,-0.469181 -2.6888,-1.073088 -3.65509,-1.827572 -0.796813,-0.62216 -1.553613,-1.775533 -2.193044,-2.55858 -0.790856,-0.968311 -1.892024,-2.231884 -2.558581,-3.289556 -0.653626,-1.037166 -0.860779,-2.770705 -1.578858,-3.57716 l -3.349969,2.609734 0.809258,6.271585 -2.22541,2.225394 -4.248489,0.809208 -2.427708,-3.034602 -3.034586,0.404412 -0.606943,-5.664658 -3.804185,-1.700603 -3.624094,1.839801 -3.685408,0.448576 -4.134052,0.955647 -4.668601,1.576288 -3.570086,4.668602 0.823873,5.767066 2.471622,3.020854 v 4.943243 l -3.067821,4.395244 c 1.537464,0.10561 1.645496,0.11579 2.522125,0.18306 l 2.73118,1.71961 0.202215,2.12423 0.202198,1.82077 -1.921889,3.03463 -1.011556,2.12424 -1.517359,1.71961 -1.517293,-0.2022 -2.83229,-0.10111 -2.427707,-0.3033 -3.843895,1.61845 -2.731147,0.40441 -2.629992,-0.9104 -1.820793,-0.7081 -1.052975,-1.90801 -2.07699,1.74085 -1.922335,1.92239 -2.472506,5.22157 1.455554,0.913254 2.225397,-0.910414 1.416149,1.517294 3.641555,2.73121 3.439246,3.43925 1.517289,3.0346 -0.202203,3.13579 -1.011547,2.4277 -1.213849,1.21385 -3.034602,0.3033 -3.641541,-1.82074 -4.956598,-1.21386 z m -0.85862,-6.70256 0.863764,6.70751 -7.257807,-0.7081 -5.3611932,-4.95654 0.1619552,-3.69697 c 1.373111,0.16833 3.054767,1.02726 4.403881,1.28742 1.606026,0.30967 3.84271,0.11245 5.427536,0.51694 0.572152,0.14633 1.309806,0.54343 1.762007,0.84974 z"
     id="BL"
     inkscape:connector-curvature="0"
     inkscape:label="#BL-3-8" />
</svg>
