<?xml version="1.0" encoding="UTF-8" standalone="no"?>
<!-- created with inkscape (http://www.inkscape.org/) -->

<svg
   xmlns:dc="http://purl.org/dc/elements/1.1/"
   xmlns:cc="http://creativecommons.org/ns#"
   xmlns:rdf="http://www.w3.org/1999/02/22-rdf-syntax-ns#"
   xmlns:svg="http://www.w3.org/2000/svg"
   xmlns="http://www.w3.org/2000/svg"
   xmlns:sodipodi="http://sodipodi.sourceforge.net/DTD/sodipodi-0.dtd"
   xmlns:inkscape="http://www.inkscape.org/namespaces/inkscape"
   version="1.1"
   width="200px"
   height="200px"
   viewBox="0 0 200 200"
   id="svg8"
   inkscape:version="0.92.4 (5da689c313, 2019-01-14)"
   sodipodi:docname="FR.svg">
  <defs
     id="defs4757" />
  <sodipodi:namedview
     pagecolor="#ffffff"
     bordercolor="#666666"
     borderopacity="1"
     objecttolerance="10"
     gridtolerance="10"
     guidetolerance="10"
     inkscape:pageopacity="0"
     inkscape:pageshadow="2"
     inkscape:window-width="1278"
     inkscape:window-height="1368"
     id="namedview4755"
     showgrid="false"
     inkscape:zoom="2.1598416"
     inkscape:cx="85.9705"
     inkscape:cy="-11.889433"
     inkscape:window-x="1273"
     inkscape:window-y="0"
     inkscape:window-maximized="0"
     inkscape:current-layer="svg8" />
  <metadata
     id="metadata4770">
    <rdf:RDF>
      <cc:Work
         rdf:about="">
        <dc:format>image/svg+xml</dc:format>
        <dc:type
           rdf:resource="http://purl.org/dc/dcmitype/StillImage" />
        <dc:title />
      </cc:Work>
    </rdf:RDF>
  </metadata>
  <path
     style="fill:#000000;stroke-width:0"
     d="m 77.290121,27.334697 5.6515,4.709175 0.166148,0.166143 2.988784,1.494393 1.162289,4.483144 1.494392,3.985072 3.818994,3.154823 2.158575,2.324606 2.324614,1.66043 0.166136,4.649215 -1.494356,3.819001 1.826471,1.162321 1.66042,-1.992536 2.822752,-2.656715 1.4944,-3.154821 0.4981,-4.981287 3.48693,-2.656715 2.82272,-2.490644 -2.65668,-5.479429 -4.15107,-7.305931 -1.16233,-1.494393 v -5.147322 l 0.85979,-3.577669 6.44614,-1.901761 4.15108,-0.166142 9.13239,-1.494393 8.46822,-3.985073 2.15856,-1.3283571 3.32086,3.6529651 0.66418,3.320894 -3.819,2.490644 -1.66043,2.158571 1.49439,5.479429 0.33194,5.479431 -0.99625,7.638001 3.97114,0.286844 c -0.0284,-0.01062 0.77743,1.354592 1.27033,1.809638 0.33405,0.308499 0.85297,0.694993 1.2997,0.779804 0.46602,0.0884 1.09749,-0.366933 1.55961,-0.259865 1.30705,0.302464 2.40341,2.07685 3.63916,2.599382 0.80302,0.339384 2.00553,0.696555 2.85931,0.519869 0.27548,-0.05716 0.52122,-0.409533 0.7798,-0.519869 0.66128,-0.282228 1.6259,-0.607732 2.33946,-0.51987 0.51918,0.0639 1.08656,0.556542 1.55964,0.779805 0.69457,0.327669 1.60711,1.271166 2.33944,1.039738 0.43357,-0.137031 0.40811,-1.037751 0.77982,-1.299673 0.65005,-0.458098 1.80497,-0.557251 2.59937,-0.51987 0.81325,0.03834 1.90041,0.362319 2.59937,0.779805 0.75744,0.452418 1.74187,1.264421 2.07951,2.079512 0.2684,0.648417 -0.0387,1.638667 0,2.339447 0.0391,0.705039 -0.0459,1.702959 0.25988,2.339446 0.23891,0.496972 1.21135,0.75538 1.29966,1.299673 0.0561,0.344355 -0.31063,0.76067 -0.51986,1.039775 -0.89333,1.192284 -3.0436,2.013552 -3.63913,3.379185 l -0.84142,-1.348486 -2.3246,-1.826501 -0.66418,-1.494392 -1.82646,2.490679 c 0,0 -0.6642,1.494393 -0.83022,2.158535 -0.16614,0.664179 2.3246,2.656715 2.3246,2.656715 l 2.15857,1.328323 0.70401,0.45405 c -0.6717,0.582564 -1.3455,1.587263 -1.81958,2.339447 -0.55781,0.885134 -1.17392,2.146715 -1.55961,3.119286 -0.29998,0.7568 -0.45085,1.854652 -0.7798,2.599382 -0.36746,0.831847 -1.27743,1.734838 -1.55963,2.599381 -0.26732,0.818784 -0.17325,2.002335 -0.25988,2.859317 -0.071,0.702554 0.10005,1.732068 -0.25986,2.339446 -0.4856,0.818677 -2.11377,1.000865 -2.59938,1.819542 -0.36026,0.607378 -0.35501,1.639732 -0.25986,2.339447 0.16934,1.24841 0.93282,2.806276 1.55965,3.899086 0.4424,0.771255 1.63593,1.469482 1.81958,2.339446 0.13277,0.629183 -0.25313,1.494404 -0.51988,2.079477 -0.39498,0.866114 -1.53341,1.691569 -1.81958,2.599391 -0.2343,0.743763 -0.39547,1.927281 0,2.599416 0.40716,0.69194 1.79334,0.72893 2.35049,1.310527 l 4.67147,1.731082 2.65672,1.660431 3.98503,3.4869 2.49064,2.49067 0.16614,7.47198 -0.49811,4.64921 -2.82278,-0.16615 -1.49437,0.33194 -3.48692,-1.49439 -2.8227,1.82645 -0.49818,2.49065 -0.33193,4.98133 -0.33194,6.47571 3.15484,4.98128 -3.32086,1.99254 -4.98132,-0.49815 -3.32087,1.82647 -4.48314,3.48693 -2.60179,3.39331 -6.19854,3.24844 -3.48692,-1.82649 -3.15479,2.6567 -2.65672,1.49439 -3.15478,1.66044 -2.49068,3.98503 -3.81903,4.15107 -3.48689,2.15858 -5.81154,0.66418 -3.48691,0.83021 -3.154807,2.98878 c 0,0 -3.154824,3.32087 -2.98876,4.15108 0.166148,0.83026 -2.822781,4.31715 -2.822781,4.31715 l -2.988785,2.49064 -3.985033,1.32835 0.66417,-1.99253 -1.162325,-4.81525 -1.494356,-6.47569 -0.331922,-3.48692 -4.317185,-1.16229 -3.818958,-1.8265 -4.151109,-3.65293 -2.324614,-2.32464 -1.328353,-0.4981 -3.65293,3.15481 -1.826496,2.82276 -3.65293,1.9925 -3.3209,-0.49811 -1.494392,-3.15483 -0.83021,-1.82649 -2.822756,-1.82647 0.498142,-2.82275 0.830222,-2.15857 3.652955,0.16615 2.988796,2.82271 3.320851,0.99625 -0.166136,-2.49065 0.83021,-1.66043 1.494428,-0.16613 1.162289,-1.4944 1.660432,-2.32461 2.822745,-2.49068 0.875262,-1.44937 -1.373405,-1.04127 -2.822745,-0.66418 -2.98876,-1.32832 -2.988784,-2.65672 -2.656717,0.49815 -3.154812,1.66043 -1.328365,-2.32461 -1.660431,0.66418 -2.988783,1.32835 -0.664143,-1.99253 v -8.30219 l -0.830251,-5.31338 v -5.81151 l 1.494394,-0.49814 3.320898,-3.15482 2.490641,-1.8265 1.992535,0.16614 1.494356,1.32829 3.15486,-0.16615 1.328317,-2.49064 0.331934,-4.31714 5.811541,-6.30961 7.804028,-9.630551 0.498106,-3.486927 -2.490641,-2.158538 0.830221,-2.490639 4.15111,-4.649251 2.324602,-2.656715 1.494392,-5.313358 0.830222,-3.985073 3.818994,-2.822679 0.166148,-5.811538 -1.494392,-3.320857 v -4.981323 l -1.992547,-0.830214 -3.818994,-3.154858 -4.48314,-4.981287 -5.033975,-7.016494 z m -14.353055,12.057989 4.894594,4.440261 1.992535,-0.166143 2.324602,2.490679 -4.81528,2.656679 0.166136,0.996286 3.154824,-1.328357 3.154824,4.815251 -2.490642,2.158571 -2.158538,5.147359 -0.166136,1.826465 -1.660468,4.483179 2.324602,0.166142 0.498143,-1.660428 1.660431,-0.166143 1.162289,0.664178 -0.830222,2.158537 v 3.652966 l -0.996249,3.652964 -1.992499,1.992501 h -2.822744 l -3.652967,-1.494358 -2.656681,-1.660428 -2.158574,2.324571 -2.158575,1.162322 -1.992498,-0.33193 -4.649216,-1.992501 -4.317141,-3.154821 1.494393,-0.996251 -3.819,-2.82275 -1.831648,-1.464573 -0.487884,-10.493804 z m -22.336557,47.611558 -1.826465,2.988784 0.498143,2.656718 2.158572,1.660431 1.660429,-1.494404 0.830215,-3.320887 -0.166144,-2.822721 z m 8.302184,2.490642 2.490678,0.331934 2.158538,1.494392 -1.826471,2.656681 -2.158575,0.996249 -0.996249,-1.494368 z m 2.988784,-0.83021 3.652967,-4.649216 1.992535,-3.486898 -0.664183,-1.494393 1.494392,-0.830215 2.158575,2.822714 2.988748,2.988792 0.996286,1.494392 -2.656718,4.981319 -1.826459,2.822721 -1.992535,-0.331934 -2.158574,-2.158575 z"
     id="FR"
     inkscape:connector-curvature="0"
     inkscape:label="#FR-8-0" />
</svg>
