<?xml version="1.0" encoding="UTF-8" standalone="no"?>
<!-- created with inkscape (http://www.inkscape.org/) -->

<svg
   xmlns:dc="http://purl.org/dc/elements/1.1/"
   xmlns:cc="http://creativecommons.org/ns#"
   xmlns:rdf="http://www.w3.org/1999/02/22-rdf-syntax-ns#"
   xmlns:svg="http://www.w3.org/2000/svg"
   xmlns="http://www.w3.org/2000/svg"
   xmlns:sodipodi="http://sodipodi.sourceforge.net/DTD/sodipodi-0.dtd"
   xmlns:inkscape="http://www.inkscape.org/namespaces/inkscape"
   version="1.1"
   width="200px"
   height="200px"
   viewBox="0 0 200 200"
   id="svg8"
   inkscape:version="0.92.4 (5da689c313, 2019-01-14)"
   sodipodi:docname="GL.svg">
  <defs
     id="defs4757" />
  <sodipodi:namedview
     pagecolor="#ffffff"
     bordercolor="#666666"
     borderopacity="1"
     objecttolerance="10"
     gridtolerance="10"
     guidetolerance="10"
     inkscape:pageopacity="0"
     inkscape:pageshadow="2"
     inkscape:window-width="1278"
     inkscape:window-height="1368"
     id="namedview4755"
     showgrid="false"
     inkscape:zoom="2.1598416"
     inkscape:cx="61.469929"
     inkscape:cy="55.775297"
     inkscape:window-x="1273"
     inkscape:window-y="0"
     inkscape:window-maximized="0"
     inkscape:current-layer="svg8"
     showguides="false" />
  <metadata
     id="metadata4770">
    <rdf:RDF>
      <cc:Work
         rdf:about="">
        <dc:format>image/svg+xml</dc:format>
        <dc:type
           rdf:resource="http://purl.org/dc/dcmitype/StillImage" />
        <dc:title />
      </cc:Work>
    </rdf:RDF>
  </metadata>
  <path
     style="fill:#000000;stroke-width:0"
     d="m 85.129509,9.8470145 c 0.83417,2.8927485 4.37901,5.4960655 6.61558,7.5113985 4.45863,4.017573 11.412421,8.116557 16.251011,11.667392 1.00784,0.739553 2.27014,1.842894 3.33353,2.500143 1.42668,0.881722 3.35535,2.173226 5.00029,2.500143 1.72091,0.341858 3.90673,-1.205283 5.5989,-1.669 1.34795,-0.369273 4.7931,-1.300791 4.7931,-1.300791 l 18.83274,5.728985 v 4.501714 l 0.2999,5.101949 0.60023,11.404371 0.2999,4.051535 -4.65178,6.002305 -3.75143,1.35053 -5.25199,1.650592 -1.5006,0.900355 -0.45041,2.851119 1.05042,3.001124 1.95077,2.551002 3.90148,1.200417 7.80301,0.450399 3.30124,-1.500532 3.15118,-1.650649 3.45136,-1.050413 3.00113,1.050413 4.05159,2.851064 1.50053,7.352829 1.95076,10.654087 0.60023,15.305854 -3.30129,3.90153 -1.20042,1.35052 3.15119,2.70101 2.70107,3.15118 2.40088,5.40207 -1.02478,4.89072 -4.53501,1.01802 -4.03833,4.1776 -4.03839,4.59537 -2.36733,3.06363 -1.81027,5.0131 -3.48134,-0.97477 -7.38041,0.27863 -3.89914,1.11402 -2.78504,2.64579 -3.89913,4.31685 -4.03833,3.34214 -2.50658,1.94954 -2.64577,-1.53181 -1.94959,-3.34208 -3.06356,-4.87385 -4.31687,-2.08884 -4.31685,0.41794 -4.17759,2.50657 c 0,0 -1.11403,4.03835 -1.25329,4.59539 -0.13933,0.5567 -2.92436,5.8486 -2.92436,5.8486 l -1.949541,7.24121 -0.97476,4.59537 -3.89908,4.1776 -5.7094,2.0888 -10.444035,2.08879 -4.595375,1.39254 -6.127129,2.64585 h -5.570141 l -1.810331,-4.17765 -5.570142,-1.25329 -4.983727,-0.52872 -1.250715,-5.43665 -2.215524,-6.10498 -0.590836,-2.21552 0.05035,-1.96928 5.514136,-1.5755 6.400334,-2.06783 7.483533,-3.15096 5.809555,-3.93868 3.347847,-4.13564 0.196945,-4.23403 -0.984669,-5.31726 -3.938686,-6.4988 -3.054052,-3.95653 4.864663,-2.36016 1.177644,-1.96268 3.663688,-1.57014 -1.046776,-1.04676 -0.915908,-2.35525 -0.392772,-1.96268 0.261849,-2.35523 1.701004,-2.74778 2.878591,-2.35523 -2.571816,-1.67979 -4.626091,-4.07097 -3.608352,-4.71862 -1.387851,-2.22056 1.850448,-2.40558 -1.942989,-1.85041 -3.23824,-3.793433 -0.647684,-1.942977 -1.387848,0.462696 -0.925196,-1.75802 -2.128018,-3.793324 -2.128017,-2.035475 -1.850448,-2.498123 2.128018,-1.665365 -0.462711,-7.216761 2.775643,-0.277515 2.868187,0.555028 3.885979,0.277515 6.383995,-5.828857 4.134288,-7.578929 3.271139,-8.897569 -2.224363,-0.654228 -2.74778,-0.523136 -2.093552,-1.831817 0.523695,-2.224363 3.140273,-2.74778 2.35523,-1.177589 0.915907,-2.355232 -1.177587,-4.317972 -3.140328,-3.271141 10.467708,-22.767166 z"
     id="GL"
     inkscape:connector-curvature="0"
     inkscape:label="#GL-9-3" />
</svg>
