<?xml version="1.0" encoding="UTF-8" standalone="no"?>
<!-- created with inkscape (http://www.inkscape.org/) -->

<svg
   xmlns:dc="http://purl.org/dc/elements/1.1/"
   xmlns:cc="http://creativecommons.org/ns#"
   xmlns:rdf="http://www.w3.org/1999/02/22-rdf-syntax-ns#"
   xmlns:svg="http://www.w3.org/2000/svg"
   xmlns="http://www.w3.org/2000/svg"
   xmlns:sodipodi="http://sodipodi.sourceforge.net/DTD/sodipodi-0.dtd"
   xmlns:inkscape="http://www.inkscape.org/namespaces/inkscape"
   version="1.1"
   width="200px"
   height="200px"
   viewBox="0 0 200 200"
   id="svg8"
   inkscape:version="0.92.4 (5da689c313, 2019-01-14)"
   sodipodi:docname="GR.svg">
  <defs
     id="defs4757" />
  <sodipodi:namedview
     pagecolor="#ffffff"
     bordercolor="#666666"
     borderopacity="1"
     objecttolerance="10"
     gridtolerance="10"
     guidetolerance="10"
     inkscape:pageopacity="0"
     inkscape:pageshadow="2"
     inkscape:window-width="1278"
     inkscape:window-height="1368"
     id="namedview4755"
     showgrid="false"
     inkscape:zoom="3.9111586"
     inkscape:cx="106.06676"
     inkscape:cy="77.398322"
     inkscape:window-x="1273"
     inkscape:window-y="0"
     inkscape:window-maximized="1"
     inkscape:current-layer="svg8"
     showguides="false" />
  <metadata
     id="metadata4770">
    <rdf:RDF>
      <cc:Work
         rdf:about="">
        <dc:format>image/svg+xml</dc:format>
        <dc:type
           rdf:resource="http://purl.org/dc/dcmitype/StillImage" />
        <dc:title />
      </cc:Work>
    </rdf:RDF>
  </metadata>
  <path
     style="fill:#000000;stroke-width:0"
     d="m 35.562937,76.074717 1.37354,0.152532 1.526164,0.343389 0.496013,1.144633 h 1.526162 l 1.678772,-0.724933 1.259088,-0.381545 2.861562,-0.57231 1.564319,-0.572309 1.068305,-1.144618 0.267079,-1.259089 0.534153,-1.984019 0.801245,-1.602459 0.343388,-1.259087 1.144619,-0.686777 1.182775,-0.114515 1.182776,0.572325 0.839385,1.335383 0.53417,0.915698 0.724917,0.419701 0.686778,-0.534153 1.106462,-0.915715 1.068321,-1.182773 0.763074,-0.724918 1.068323,-0.305233 2.022162,-0.07634 0.953852,0.267076 0.495999,-1.373538 0.648621,-0.839401 1.106478,-1.259088 1.106463,-1.144619 1.237393,-0.284062 1.560475,1.666463 0.452259,-0.246689 0.740066,-0.534475 0.822275,-0.123405 1.027854,0.04108 1.151212,0.411147 1.52121,0.370017 2.302404,0.287802 2.631312,0.164458 1.726797,0.411148 1.274542,0.49336 1.973488,1.068983 1.397882,0.698932 0.287804,-0.246673 0.37003,-0.61672 0.08218,-0.781178 -0.287803,-0.986736 1.438999,-0.04108 -0.04107,-0.904507 -0.411144,-0.822293 0.123403,-1.233425 0.698952,-1.726801 1.521226,-1.685686 1.603458,-2.795766 0.49336,-1.11008 0.863393,-0.411147 1.383071,-0.747868 -0.967896,-1.128847 -0.645848,-1.130225 -0.968754,-2.583355 -1.453149,-2.421902 -0.300279,-1.116947 1.09904,0.525047 1.45574,-0.06071 0.485251,-0.545911 0.485218,-0.788523 1.516396,0.0607 1.091807,0.788523 0.363948,0.72786 1.152453,0.12126 1.516393,-0.485252 0.54589,-0.485236 0.66723,-0.303287 1.5164,0.363931 1.5164,0.181967 1.3951,-0.545898 3.27542,0.727877 2.30492,1.334419 2.91147,0.48525 2.18362,0.242627 2.18361,1.091807 1.45574,1.455738 1.57705,0.727877 1.45574,0.363931 2.54756,-1.213113 0.24262,1.334417 0.60656,1.091809 0.36394,1.334432 -0.72787,0.970503 -0.72788,2.547544 0.36394,0.970488 0.12126,1.819685 -0.12126,0.84918 0.60657,0.606556 1.69835,0.849182 2.42625,1.57706 1.45573,0.849182 3.03281,-0.363947 1.69835,1.819684 1.57704,0.242625 2.42624,1.455739 1.21314,2.426241 0.97049,1.091807 1.81969,-0.121259 0.97047,1.698379 4.60986,0.24261 2.0623,-0.849182 1.69836,-1.577042 1.57706,-0.849182 2.91148,0.121259 0.12125,-4.24591 0.60656,-1.213128 0.24262,-1.577044 0.84919,-0.849181 0.97049,0.606555 1.33443,0.242626 h 2.0623 l 1.21312,-0.849181 0.12126,-1.455753 -0.24264,-1.091808 0.84918,-0.121259 0.97051,-1.455738 0.72787,-1.940989 0.36394,-1.94099 1.69834,-0.727877 1.81971,-0.485235 0.84917,0.242611 2.30494,2.54756 0.0422,1.689105 0.83419,0.112061 1.37002,1.255852 1.71258,0.114207 0.91333,0.570854 0.7992,1.027528 0.22835,1.027499 0.22832,1.141707 0.0713,0.09658 -0.29962,0.588528 -0.68497,0.570837 -0.57088,1.141706 -0.45672,1.141676 -0.34245,1.370045 -0.1142,0.913369 0.45473,1.007447 -0.182,1.334401 0.24262,0.788552 -0.12125,0.970487 -0.36391,1.577058 -0.7279,1.273774 -0.42458,1.213112 0.0606,1.031162 -0.66722,0.909828 -0.9098,0.606541 -0.72789,0.667216 -0.18197,0.909842 0.24265,1.395078 0.66721,0.970521 0.78852,1.27375 -0.0606,0.606568 -1.21311,0.667219 -1.57705,0.970488 -1.03114,0.909824 -0.24262,0.667228 0.36394,0.909834 0.72786,0.545896 0.30326,0.909863 -2.66886,2.547545 -0.5459,0.667211 0.18201,2.547562 0.4852,0.667192 0.60659,2.304943 0.3639,1.273774 0.72789,0.485239 1.15244,-0.18198 1.94102,-0.485239 1.88032,0.727869 0.78854,0.9705 1.33442,1.45572 0.0606,2.79019 -0.3639,2.12296 -0.66722,1.39509 -0.42458,1.5164 -1.09184,1.51638 -1.09179,-0.12127 -0.78851,-0.48524 -1.45576,-0.36394 -2.12292,0.18196 -1.15249,-0.36392 -2.48691,-0.12126 -1.15244,0.42458 -3.0328,0.0607 -0.24264,-0.78852 -0.48522,-0.90985 -0.54589,-1.21311 -1.15247,-0.66721 -1.69838,-0.12125 -0.66722,-0.24263 -0.72786,-0.66721 0.12126,-1.0918 0.97049,-0.78855 -0.0606,-1.39507 -0.18197,-0.66721 -0.84918,-1.09181 -0.4246,-1.15246 -0.18196,-0.54591 -1.09181,-0.0606 -0.36394,0.78855 v 0.42456 l -0.36394,0.66722 h -0.60655 l -1.03114,-0.42459 -0.90985,-0.0606 -1.33442,0.36394 -0.36393,0.84917 -1.03116,0.30327 -0.66722,0.66722 -1.57707,0.48525 -0.42457,0.24262 -1.09182,-0.24262 -1.33443,0.24262 -0.60655,1.33444 0.30329,1.94099 -1.21314,0.54589 -0.90983,0.78853 -0.36393,1.27377 -1.88033,1.941 -0.24264,1.09181 v 1.88032 l -0.12126,1.5164 -0.36393,0.66722 -0.72786,1.39507 0.30326,2.36558 0.30328,0.97052 -0.30328,0.97048 -0.12125,1.75902 0.90984,1.33444 0.72786,1.39508 0.78853,0.18196 1.15246,0.54591 0.90983,-0.12126 1.63772,-0.18198 1.15245,-0.30328 1.3951,-0.5459 0.30327,0.78853 0.4246,0.90982 1.09179,1.21315 0.3033,0.90983 -0.24262,0.54589 -1.57707,1.21312 -1.15245,0.48525 -0.72787,0.66722 -0.0606,0.24263 -0.34224,1.44116 -0.42889,1.62985 -0.51467,1.62982 0.25732,1.37248 0.85782,1.8014 1.20092,1.62982 1.02935,0.8578 1.20095,1.54405 0.77201,1.37248 0.85782,1.54405 -1.45828,1.54404 -1.80139,2.31609 -0.77202,0.17155 -1.37249,-0.0857 -1.54403,-0.42892 -1.37251,0.0858 -0.68623,0.94358 -0.4289,0.51468 -0.51469,-0.60048 -0.85781,-0.60044 0.0857,-1.54406 0.25735,-2.1445 -0.42891,-1.54405 -1.88716,-1.28671 -2.23029,-0.94358 -0.68625,-0.4289 0.17157,-1.71561 v -1.2867 l -0.60046,-0.77204 -0.0858,-1.7156 0.60048,-0.25735 -0.17158,-1.88717 -1.54404,-1.45826 -0.77202,-1.11514 -0.77203,-1.11515 -0.8578,-0.77202 -1.02937,0.51469 -1.11515,0.60044 -1.45826,-0.34311 -1.37249,0.34311 -1.20093,0.60049 -0.77201,0.4289 -1.02936,0.4289 h -2.57342 l -1.62983,0.51467 -0.68624,1.28671 -1.02937,0.68625 -0.94359,0.60046 -0.94358,0.17156 -1.88717,-0.94359 -1.37248,-0.8578 -1.3725,0.8578 -0.60045,0.94359 -0.17157,2.40185 0.0857,1.2867 -0.42891,1.20093 -0.77202,0.60047 -0.60045,-0.25735 -1.62985,-0.34312 -1.80137,0.68623 -1.88717,0.51469 -1.28671,0.17157 -1.02934,-0.34312 -1.97298,-0.0858 -1.372494,-0.77201 -2.487619,-1.20094 -1.286711,-1.28671 -1.115139,-1.54405 -0.343126,-1.11514 -0.686242,-1.97296 -1.115139,-0.77203 -1.458267,-0.94358 -1.372496,-0.77202 0.343128,-1.20093 0.171555,-1.97294 -1.115138,-2.31608 -0.428899,-1.45827 v -1.88717 l 0.171557,-1.37247 0.68624,-1.8014 0.428898,-2.31606 -0.08584,-1.45826 -0.772009,-1.02938 -1.972953,-0.17156 -0.68624,0.60047 -1.115155,1.28671 -0.171556,1.28671 -0.686245,1.02934 -0.171557,0.42892 -1.115155,-0.25734 -0.68624,-0.77203 -1.544053,-1.28671 v -1.11513 l -0.08584,-1.20094 -1.458272,-0.51468 -2.487637,0.34313 -2.058721,0.34311 -1.887166,0.77203 -1.286711,1.37248 0.08584,1.45826 0.257342,2.14452 -0.428914,0.94359 -1.372482,0.85779 -0.943588,0.85781 0.08585,1.97295 3.002303,2.6592 v 3.68855 l 0.257342,2.40186 0.772026,1.37247 0.171564,2.6592 -1.029375,2.05874 -1.629825,3.34543 -1.629822,1.97294 -0.171557,2.91654 -0.08584,0.94357 -0.857796,0.42892 -1.28671,1.02937 -0.171556,0.94356 -0.772027,1.20095 -0.60047,0.51467 -0.943584,1.62984 -0.257342,1.37248 -0.0857,1.11515 -2.04373,0.36174 -1.573579,-1.50211 -1.678772,-2.36556 -1.449851,-1.37354 -1.98402,-1.44985 -0.305234,-1.52617 0.305234,-2.06031 -0.763075,-2.06034 -1.22093,-2.06032 -0.534168,-1.44985 0.686776,-1.22093 0.686778,-1.98401 -0.07634,-2.13663 0.457856,-1.22093 0.915698,-0.76307 0.839386,-1.37357 -0.457856,-2.36554 0.07634,-1.75509 0.610466,-1.60247 0.22892,-1.22094 -1.144618,-1.37355 -0.305233,-1.37354 0.763089,-1.52616 0.190764,-2.13663 -1.335397,-1.48801 -1.411696,-0.45785 -0.877543,-0.0764 -1.335398,-1.33539 -0.991995,-1.48801 -1.106478,-2.51818 -0.152531,-2.02216 0.343373,-2.93787 0.877556,-0.64861 1.220931,-1.29724 -0.228936,-0.83938 -0.419684,-0.22893 -1.56432,-0.38154 -1.259087,-1.64062 -0.76309,-0.76311 -1.831396,0.53418 -1.526163,-0.15268 -0.228921,-0.95384 -0.152531,-1.29725 -0.19078,-1.9077 -0.228922,-1.297243 -0.267076,0.305228 -0.686777,0.496007 -2.403707,0.190778 -1.335399,1.0683 -0.45784,0.992 0.80123,1.64064 0.343388,0.68676 -0.03817,1.06832 -1.030166,0.99202 -1.106461,0.76307 -1.106479,0.49601 -1.56432,0.26707 -1.564303,0.41969 h -0.801245 l -0.610467,-0.34339 -1.526162,1.14464 -1.373539,-0.22893 -1.335399,-0.76309 -0.915699,-0.49599 -1.869552,-0.34338 -1.449852,0.30522 -1.465735,-0.0666 -1.672682,-0.75541 -1.591884,-0.35775 0.533357,-2.52125 -1.37356,-2.06032 -1.144614,-1.52616 v -2.518178 l 0.992007,-1.373551 0.763073,-0.45784 -0.839385,-1.8314 -0.152534,-0.915718 0.686761,-1.449833 1.144637,-0.686777 2.060316,-0.0764 1.373539,-1.449846 1.678788,-0.915716 0.610466,-2.060313 0.228921,-1.068306 1.373555,-0.152691 0.763074,1.297216 1.449851,0.07629 1.144634,-1.068285 0.38153,-1.755084 1.297242,-1.297243 0.610466,-1.755099 -0.534154,-1.98402 0.839385,-0.686778 1.14462,-0.534137 1.144619,-0.152686 1.659717,-1.688307"
     id="GR"
     inkscape:connector-curvature="0"
     inkscape:label="#GR-9-2"
     sodipodi:nodetypes="ccccccccccccccccccccccccccccccccccccccccccccccccccccccccccccccccccccccccccccccccccccccccccccccccccccccccccccccccccccccccccccccccccccccccccccccccccccccccccccccccccccccccccccccccccccccccccccccccccccccccccccccccccccccccccccccccccccccccccccccccccccccccccccccccccccccccccccccccccccccccccccccccccccccccccccccccccccccccccccccccccccccccccccccccccccccccccccccccccccccccccccccccccccccccccccccccccccccccccccccccccccccccccccccccccccccccccccccccccccccccccccccccccccccccccccccccccccccccc" />
</svg>
