<?xml version="1.0" encoding="UTF-8" standalone="no"?>
<!-- created with inkscape (http://www.inkscape.org/) -->

<svg
   xmlns:dc="http://purl.org/dc/elements/1.1/"
   xmlns:cc="http://creativecommons.org/ns#"
   xmlns:rdf="http://www.w3.org/1999/02/22-rdf-syntax-ns#"
   xmlns:svg="http://www.w3.org/2000/svg"
   xmlns="http://www.w3.org/2000/svg"
   xmlns:sodipodi="http://sodipodi.sourceforge.net/DTD/sodipodi-0.dtd"
   xmlns:inkscape="http://www.inkscape.org/namespaces/inkscape"
   version="1.1"
   width="200px"
   height="200px"
   viewBox="0 0 200 200"
   id="svg8"
   inkscape:version="0.92.4 (5da689c313, 2019-01-14)"
   sodipodi:docname="JU.svg">
  <defs
     id="defs4757" />
  <sodipodi:namedview
     pagecolor="#ffffff"
     bordercolor="#666666"
     borderopacity="1"
     objecttolerance="10"
     gridtolerance="10"
     guidetolerance="10"
     inkscape:pageopacity="0"
     inkscape:pageshadow="2"
     inkscape:window-width="1278"
     inkscape:window-height="1368"
     id="namedview4755"
     showgrid="false"
     inkscape:zoom="3.4989276"
     inkscape:cx="93.182092"
     inkscape:cy="60.267552"
     inkscape:window-x="1273"
     inkscape:window-y="0"
     inkscape:window-maximized="0"
     inkscape:current-layer="svg8"
     showguides="false" />
  <metadata
     id="metadata4770">
    <rdf:RDF>
      <cc:Work
         rdf:about="">
        <dc:format>image/svg+xml</dc:format>
        <dc:type
           rdf:resource="http://purl.org/dc/dcmitype/StillImage" />
        <dc:title />
      </cc:Work>
    </rdf:RDF>
  </metadata>
  <path
     style="fill:#000000;stroke-width:0"
     d="m 132.07499,61.473982 c -1.89861,-0.241334 -4.42748,0.06533 -6.33633,0.202996 -1.15171,0.08318 -2.6912,0.208644 -3.82548,0.425083 -0.71412,0.136414 -1.6345,0.453775 -2.3378,0.637606 -0.76302,0.199362 -1.7984,0.399937 -2.55036,0.637559 -0.84677,0.267567 -1.9647,0.673352 -2.76287,1.062652 -0.66828,0.326084 -1.55718,0.795436 -2.12529,1.275199 -0.44909,0.379357 -0.92713,1.01397 -1.37234,1.57937 l -3.53697,-2.05304 -1.80658,-2.484073 -4.51647,0.451684 -4.516463,-2.032423 -4.290635,-1.354945 -1.354945,-1.1291 v -4.516479 l 1.580783,-3.613204 2.25821,-3.387312 v -3.613174 l -3.387321,1.354907 -3.613194,-1.1291 -1.806583,-2.258215 -3.38733,-2.484057 h -3.16156 l -3.838995,1.580738 -4.290633,2.032422 -6.323059,-1.35495 -5.64558,-1.354933 -3.838998,-1.806588 -5.645579,0.451635 -2.258215,1.354953 -1.129148,2.032406 -0.677432,2.935689 2.70985,4.290674 1.580783,4.064799 -1.129108,2.258256 -3.161525,0.903277 -3.839039,2.709884 -2.032377,1.806584 -2.709892,0.677472 -1.354945,2.032423 -1.129109,4.968114 -1.806579,0.903311 -2.709892,2.258215 -0.677472,4.290632 -2.935687,2.709892 -1.354948,3.387364 0.903271,4.290633 9.936254,0.451635 4.290633,0.226 4.064836,-1.580784 3.387323,-1.580742 4.968107,-1.354945 4.968146,0.451634 2.032378,1.806621 2.484093,2.484054 2.709851,4.968104 -1.580744,1.806576 -0.225999,2.258213 -1.354946,2.258257 -4.742267,1.129106 -2.484054,2.258233 -1.354945,3.16152 -0.532993,2.86261 c -0.412853,0.21388 -2.160876,1.29084 -2.687898,1.63021 -0.636792,0.41006 -1.618717,0.75136 -2.36399,0.88651 -0.785025,0.14246 -1.90259,-0.25221 -2.659485,0 -0.841,0.28049 -1.60988,1.30692 -2.363951,1.77297 -0.505875,0.31277 -1.201751,0.72122 -1.773004,0.88652 -0.855811,0.24781 -2.259103,-0.2607 -2.954979,0.29543 -0.219137,0.17513 -0.250616,0.60974 -0.295412,0.88646 -0.0569,0.3499 -0.135605,0.85436 0,1.18198 0.239721,0.57913 1.237586,0.89839 1.477469,1.47751 0.508901,1.22846 0.05528,3.10386 0,4.43245 -0.04439,1.06651 -0.31761,2.47873 -0.295414,3.54596 0.01614,0.71457 0.309942,1.6494 0.295414,2.364 -0.01208,0.53909 -0.0081,1.31552 -0.295414,1.773 -0.403691,0.64696 -1.505961,0.96259 -2.068496,1.47751 -0.602893,0.55176 -1.187504,1.49818 -1.772965,2.06845 -1.30918,1.27517 -3.256847,2.7572 -4.727981,3.84146 -1.286459,0.94819 -3.254468,1.87499 -4.432448,2.95498 -1.255224,1.15083 -2.597255,3.01834 -3.546007,4.43249 -0.508456,0.75795 -0.986527,1.89007 -1.477469,2.65947 -0.648577,1.01648 -1.443973,2.47111 -2.363991,3.25049 -0.604991,0.51246 -1.592285,0.99979 -2.36399,1.18197 -0.517661,0.12224 -1.281577,-0.2034 -1.772964,0 -0.579163,0.23972 -1.477509,0.85063 -1.477509,1.47751 0,0.62686 0.863437,1.35143 1.477509,1.47747 0.467617,0.096 1.061429,-0.8251 1.477469,-0.59099 0.469956,0.26433 0.251021,1.23561 0.295414,1.773 0.04398,0.53005 0.209452,1.28409 -0.0081,1.83454 l 4.942397,-0.0839 2.703313,2.92164 6.196855,-0.71746 3.493544,-2.24583 5.073881,-4.49168 2.911313,-2.82806 6.321639,0.6654 3.32719,-0.33254 1.663557,-2.66175 0.332539,-2.66175 6.321641,-0.99815 3.992596,-5.32345 3.327151,-7.31978 0.665446,-3.65988 7.985183,1.66359 13.974126,-0.99816 -1.330889,-6.98704 3.992593,-2.32904 -0.33254,-4.65804 1.663587,-3.65986 3.992604,-0.66545 h 4.325289 l 3.3272,3.65989 6.32164,1.33086 7.65248,-0.33254 6.65429,-1.33088 5.6562,-2.99445 5.6562,-4.65804 3.9926,-5.32346 1.66359,0.66541 0.99815,5.32348 4.65805,-0.33254 9.64877,0.99814 5.6562,0.66542 6.65435,2.32904 3.65988,-2.66174 3.32716,-3.9926 h 6.9871 l 2.30947,0.28412 0.35231,-3.02912 -7.23656,0.0831 -0.74864,-1.663593 -1.58043,-3.826252 -0.41587,-3.243973 v -4.741219 l -4.65804,-0.499054 -5.82254,1.497204 -6.65435,-1.497204 -3.11922,-5.136314 -1.9547,0.31196 -3.11923,-0.582271 -1.70515,-2.578569 -5.57303,-4.990746 -1.16451,-2.079475 -0.40371,-2.205509 -6.00109,-0.539411 -4.40852,-4.075773 z"
     id="JU"
     inkscape:connector-curvature="0"
     inkscape:label="#JU-8-6" />
</svg>
