<?xml version="1.0" encoding="UTF-8" standalone="no"?>
<!-- created with inkscape (http://www.inkscape.org/) -->

<svg
   xmlns:dc="http://purl.org/dc/elements/1.1/"
   xmlns:cc="http://creativecommons.org/ns#"
   xmlns:rdf="http://www.w3.org/1999/02/22-rdf-syntax-ns#"
   xmlns:svg="http://www.w3.org/2000/svg"
   xmlns="http://www.w3.org/2000/svg"
   xmlns:sodipodi="http://sodipodi.sourceforge.net/DTD/sodipodi-0.dtd"
   xmlns:inkscape="http://www.inkscape.org/namespaces/inkscape"
   version="1.1"
   width="200px"
   height="200px"
   viewBox="0 0 200 200"
   id="svg8"
   inkscape:version="0.92.4 (5da689c313, 2019-01-14)"
   sodipodi:docname="LU.svg">
  <defs
     id="defs4757" />
  <sodipodi:namedview
     pagecolor="#ffffff"
     bordercolor="#666666"
     borderopacity="1"
     objecttolerance="10"
     gridtolerance="10"
     guidetolerance="10"
     inkscape:pageopacity="0"
     inkscape:pageshadow="2"
     inkscape:window-width="1278"
     inkscape:window-height="1368"
     id="namedview4755"
     showgrid="false"
     inkscape:zoom="3.0544772"
     inkscape:cx="99.474318"
     inkscape:cy="62.086138"
     inkscape:window-x="1273"
     inkscape:window-y="0"
     inkscape:window-maximized="0"
     inkscape:current-layer="svg8"
     showguides="false" />
  <metadata
     id="metadata4770">
    <rdf:RDF>
      <cc:Work
         rdf:about="">
        <dc:format>image/svg+xml</dc:format>
        <dc:type
           rdf:resource="http://purl.org/dc/dcmitype/StillImage" />
        <dc:title />
      </cc:Work>
    </rdf:RDF>
  </metadata>
  <path
     style="fill:#000000;stroke-width:0"
     d="m 74.374193,183.37208 1.527703,-3.01807 3.197266,-2.82115 -0.376043,-1.6927 -4.701948,-7.33496 v -2.82113 l 1.316543,-3.00926 2.445023,-1.88077 1.504602,-3.00924 0.752322,-2.44498 0.564221,-7.335 1.692664,-1.5046 3.009246,-3.38536 1.504602,-2.06887 3.009245,1.88079 -0.376044,2.63306 1.880764,0.56423 2.256923,-4.51381 1.504603,-3.57348 2.633042,-3.00921 3.197313,-2.63308 -2.444993,-5.26616 5.266173,-4.32575 4.32575,-0.37605 1.88077,1.50464 5.8895,-2.26793 -2.09978,-8.00759 6.25053,-2.92575 3.32478,0.53193 3.19174,-1.72887 5.98458,2.26082 4.12267,0.133 2.12786,-0.266 1.06393,1.0639 2.26082,-1.46289 3.05878,1.19694 3.19179,-3.0588 2.39381,-1.32988 2.52681,-0.13298 0.39898,4.38866 h 3.59073 l 2.96713,-0.65545 c 0.73727,0.0999 1.73672,0.035 2.48015,9.2e-4 0.63565,-0.0272 1.47725,-0.15595 2.11291,-0.18355 0.90863,-0.0392 2.12227,0.0156 3.03161,0 0.79957,-0.0156 2.06202,-0.61815 2.66412,-0.0917 l 1.90643,1.37689 1.81178,-0.90208 3.36183,0.44671 1.31654,-0.42318 1.12849,-1.12844 -0.18823,-6.8648 -1.59863,-0.79934 -1.64568,-0.98739 -1.69271,-1.88077 -3.05622,-2.727116 -1.63309,-2.07038 -1.72891,-0.465477 -1.46287,0.332484 -2.65981,0.132993 -3.14165,-0.656728 -4.13769,-0.940388 -2.35095,-1.598624 -0.47019,-0.658294 1.50461,-1.598635 1.41057,-1.598674 1.03445,-2.539014 0.0942,-0.752321 3.66749,-3.385367 4.04361,-5.07807 1.78673,-1.316542 1.92778,-1.269487 -0.32898,-3.05626 -0.4702,-1.598635 -0.94038,0.281936 -1.50463,1.410535 -2.06884,-0.658252 -1.88075,-2.821107 -2.92936,-4.760395 -4.97852,1.56799 -5.55417,1.360174 -2.38035,0.339879 -1.58695,-2.606994 -2.15363,-4.307353 -2.04032,-4.307315 -2.267,-6.007603 -0.79346,-4.647348 -1.81361,-5.440776 -2.15367,-7.02778 -1.02014,-4.760669 -0.22674,-3.400571 -0.68006,-2.153639 -0.68011,-0.453353 -4.42068,-1.246855 -1.02017,-1.813643 -3.51385,-0.793465 -2.267,0.113547 -4.64739,6.007602 -2.60703,1.473531 -1.02018,2.720428 -0.79342,4.080562 -0.34027,2.493709 -1.13349,2.267075 -1.92696,1.586889 -2.04032,0.339878 -2.38036,-0.680106 -1.8136,-1.586929 -0.22672,-1.360175 v -1.586928 l 2.60707,-1.246855 -0.33988,-1.473572 -1.8136,0.453431 -5.214144,0.566709 -5.440814,0.453432 -2.720426,-0.56675 -0.113164,-2.947104 -0.906821,-2.267035 -0.339878,-0.566748 -1.700287,-0.339877 -2.607028,-0.56675 -2.607069,0.793425 -1.246857,0.906784 -0.566748,2.267035 -0.793465,2.380314 -2.720425,0.793504 -2.607031,0.226714 -2.947141,-0.226714 h -1.926961 l 0.226715,-1.246857 0.226715,-3.853963 v -2.833603 l -0.680128,-2.040319 -1.586928,-2.947103 -1.813603,0.680106 -3.06046,0.906822 h -1.473533 -1.926961 l -1.360214,-1.246855 -1.360213,-0.226715 -0.113164,2.153639 v 8.954703 l -0.56675,1.133499 -0.906782,1.02014 -1.360213,0.793464 -4.080599,-0.226715 -1.926964,-0.906783 -3.400532,-0.453391 -4.420673,0.566749 -2.040281,0.566748 -2.040319,1.360214 -4.296739,0.366321 -0.01163,1.107055 -0.226715,2.493712 1.133497,4.307314 2.720427,5.66753 2.04028,2.720425 1.700286,2.493712 0.339878,1.813604 -0.680107,5.214137 v 3.400494 l 2.266996,3.400495 1.020179,2.607069 -1.020179,2.607068 -1.926923,2.153638 -0.906821,2.607069 0.793465,3.853924 0.226715,2.153639 0.113547,2.94714 -0.566751,2.493711 -0.45339,4.647345 -1.133498,2.833785 2.266996,2.15365 2.380353,2.833776 0.906822,2.04028 0.339879,3.06045 0.793464,3.28718 3.287175,-0.45339 3.62721,0.22672 2.49371,0.79346 0.680106,3.0605 1.360214,3.8539 0.226715,2.38037 -1.586889,3.28715 -2.153678,3.51384 -0.793463,3.51389 -1.133499,2.15365 -2.380354,2.4937 -3.853923,-0.45338 -2.040282,1.92695 -2.720424,1.47354 -2.947104,2.3804 1.813605,1.36017 1.02014,2.15372 -0.113164,5.21409 -1.246855,2.60703 -3.62721,-0.11356 0.453431,7.36777 1.360174,3.74057 1.02018,2.15368 6.007562,4.30732 5.667529,3.28713 6.460954,5.44085 4.080639,4.87407 3.684724,5.83467 3.005669,-1.40265 6.812808,-2.00376 z"
     id="LU"
     inkscape:connector-curvature="0"
     inkscape:label="#LU-9-1" />
</svg>
