<?xml version="1.0" encoding="UTF-8" standalone="no"?>
<!-- created with inkscape (http://www.inkscape.org/) -->

<svg
   xmlns:dc="http://purl.org/dc/elements/1.1/"
   xmlns:cc="http://creativecommons.org/ns#"
   xmlns:rdf="http://www.w3.org/1999/02/22-rdf-syntax-ns#"
   xmlns:svg="http://www.w3.org/2000/svg"
   xmlns="http://www.w3.org/2000/svg"
   xmlns:sodipodi="http://sodipodi.sourceforge.net/DTD/sodipodi-0.dtd"
   xmlns:inkscape="http://www.inkscape.org/namespaces/inkscape"
   version="1.1"
   width="200px"
   height="200px"
   viewBox="0 0 200 200"
   id="svg8"
   inkscape:version="0.92.4 (5da689c313, 2019-01-14)"
   sodipodi:docname="NE.svg">
  <defs
     id="defs4757" />
  <sodipodi:namedview
     pagecolor="#ffffff"
     bordercolor="#666666"
     borderopacity="1"
     objecttolerance="10"
     gridtolerance="10"
     guidetolerance="10"
     inkscape:pageopacity="0"
     inkscape:pageshadow="2"
     inkscape:window-width="1278"
     inkscape:window-height="1368"
     id="namedview4755"
     showgrid="false"
     inkscape:zoom="2.1598416"
     inkscape:cx="63.097233"
     inkscape:cy="45.062212"
     inkscape:window-x="1273"
     inkscape:window-y="0"
     inkscape:window-maximized="0"
     inkscape:current-layer="svg8"
     showguides="false" />
  <metadata
     id="metadata4770">
    <rdf:RDF>
      <cc:Work
         rdf:about="">
        <dc:format>image/svg+xml</dc:format>
        <dc:type
           rdf:resource="http://purl.org/dc/dcmitype/StillImage" />
        <dc:title />
      </cc:Work>
    </rdf:RDF>
  </metadata>
  <path
     style="fill:#000000;stroke-width:0"
     d="m 186.02553,83.103808 c 0,0 -1.93543,0.405019 -2.78366,0.520504 -0.83799,0.113965 -1.98204,0.07071 -2.80741,0.254957 -0.87462,0.195214 -1.99599,0.64047 -2.80741,1.020898 -0.96311,0.451551 -2.16033,1.223275 -3.06265,1.786513 -0.93675,0.584774 -2.20868,1.341722 -3.06264,2.041795 -0.75362,0.617802 -1.73958,1.497568 -2.29699,2.296939 -0.62701,0.899257 -1.05642,2.329826 -1.53132,3.317883 -0.44516,0.925849 -1.0863,2.136767 -1.53129,3.0626 -0.47489,0.988023 -1.53133,3.317903 -1.5315,3.290063 l 6.25917,5.83736 -21.41491,17.21443 -9.2582,7.91326 -9.17399,7.58264 -29.33807,22.06641 -2.993816,-9.52911 -3.199932,-2.34666 -0.85333,-8.74647 -3.839938,-2.34667 1.706598,-4.90657 -2.773253,-6.61324 -3.839937,1.49332 -6.399914,5.97323 -7.893202,5.11992 -4.479899,5.75991 -9.386531,2.55997 -6.826556,3.19993 -11.093136,7.2532 -19.829856,2.8138 c 0.864636,-3.73116 0.174688,-8.20604 0.174688,-8.20604 l 0.765661,-7.40134 -3.062646,-2.80746 -3.317883,-4.59392 -3.062604,-3.82832 4.593972,-6.89091 6.890912,-7.65657 3.828264,-4.08355 2.041795,0.51043 3.317839,-1.27609 5.614824,-2.04175 6.890957,-2.55217 7.401338,-2.80741 3.317885,-1.78656 6.890911,-0.25543 2.296986,-1.53132 3.573074,-5.61482 3.573075,-7.146147 4.083499,-2.296954 3.062647,-0.255406 3.062649,-1.276088 0.255419,-2.296985 -0.765664,-2.296985 -3.062646,-1.020867 v -2.296985 l 1.020897,-2.296985 h 4.0835 l 1.276088,-2.04175 1.020897,-2.041749 0.510426,-3.573072 1.276087,-1.020898 4.593971,0.255422 4.083498,-1.020898 1.020898,-2.296985 -2.296985,-4.849165 1.145236,-0.332044 c 0.730309,-0.457654 1.728321,-1.060396 2.337765,-1.669842 0.609444,-0.6094 1.036543,-1.753128 1.669832,-2.337716 0.42919,-0.396355 1.10122,-0.867693 1.66981,-1.001924 1.27134,-0.300117 3.08468,0.689995 4.34152,0.333869 1.31116,-0.37127 2.5554,-1.892832 3.6736,-2.671675 1.4821,-1.032346 3.56628,-2.253611 5.00948,-3.339641 1.36325,-1.025915 3.072,-2.533749 4.34151,-3.673599 2.16193,-1.941133 5.86874,-4.008745 7.00562,-6.609723 l 5.58578,-0.09488 3.10223,3.34899 2.06816,4.500562 0.56403,7.144551 -1.3161,5.076393 -2.63218,3.384247 0.75208,4.512334 4.32431,-1.880151 4.13628,-1.88012 5.2644,-2.632215 6.20448,-3.008235 10.15274,-1.316089 7.14455,-0.187914 2.06816,1.316088 8.4606,4.512329 7.8966,5.264404 1.12809,3.948306 -0.37582,4.512334 -1.12809,5.82841 z"
     id="NE"
     inkscape:connector-curvature="0"
     inkscape:label="#NE-7-5" />
</svg>
