<?xml version="1.0" encoding="UTF-8" standalone="no"?>
<!-- created with inkscape (http://www.inkscape.org/) -->

<svg
   xmlns:dc="http://purl.org/dc/elements/1.1/"
   xmlns:cc="http://creativecommons.org/ns#"
   xmlns:rdf="http://www.w3.org/1999/02/22-rdf-syntax-ns#"
   xmlns:svg="http://www.w3.org/2000/svg"
   xmlns="http://www.w3.org/2000/svg"
   xmlns:sodipodi="http://sodipodi.sourceforge.net/DTD/sodipodi-0.dtd"
   xmlns:inkscape="http://www.inkscape.org/namespaces/inkscape"
   version="1.1"
   width="200px"
   height="200px"
   viewBox="0 0 200 200"
   id="svg8"
   inkscape:version="0.92.4 (5da689c313, 2019-01-14)"
   sodipodi:docname="NW.svg">
  <defs
     id="defs4757" />
  <sodipodi:namedview
     pagecolor="#ffffff"
     bordercolor="#666666"
     borderopacity="1"
     objecttolerance="10"
     gridtolerance="10"
     guidetolerance="10"
     inkscape:pageopacity="0"
     inkscape:pageshadow="2"
     inkscape:window-width="1278"
     inkscape:window-height="1368"
     id="namedview4755"
     showgrid="false"
     inkscape:zoom="2.1598416"
     inkscape:cx="73.945926"
     inkscape:cy="-52.440414"
     inkscape:window-x="1273"
     inkscape:window-y="0"
     inkscape:window-maximized="0"
     inkscape:current-layer="svg8"
     showguides="false" />
  <metadata
     id="metadata4770">
    <rdf:RDF>
      <cc:Work
         rdf:about="">
        <dc:format>image/svg+xml</dc:format>
        <dc:type
           rdf:resource="http://purl.org/dc/dcmitype/StillImage" />
        <dc:title />
      </cc:Work>
    </rdf:RDF>
  </metadata>
  <path
     style="fill:#000000;stroke-width:0"
     d="m 132.69433,128.54819 -0.041,-14.49237 3.39109,-8.81689 -1.49208,-2.5773 -1.49207,0.40688 -0.40686,-3.25543 -3.93363,0.27161 5.15444,-7.460389 5.15452,-2.577304 8.1386,-2.984156 7.1892,-4.340653 4.74751,-3.933634 2.84854,-1.220807 6.78221,-4.476233 5.29011,-6.646602 7.86741,-5.697039 2.57722,-3.255511 -0.54302,-6.103975 0.40685,-5.290104 3.3912,-4.204962 2.98416,-3.119847 -0.54221,-2.441529 -1.36804,-4.352309 -15.56226,5.850856 -16.6892,2.685584 -19.95029,-6.138525 -1.10737,-5.576713 -3.99869,-2.874816 c -1.27003,-1.110156 -3.93288,0.164805 -5.61952,0.193527 -1.91814,0.0329 -4.47805,-0.08282 -6.39471,0 -1.34083,0.05744 -3.11597,0.329748 -4.45688,0.387973 -1.5681,0.06553 -3.67622,0.208306 -5.23146,-0.0022 l -6.25869,1.382654 h -7.574076 l -0.841589,-9.257284 -5.329897,0.280529 -5.049368,2.805269 -6.732573,6.451932 -6.451932,-2.524627 -4.768921,3.085603 -2.244182,-2.244182 -4.488392,0.561088 -8.696114,-0.280558 -12.623446,-4.768726 -6.732573,3.646775 -7.01302,-1.122147 -13.184505,6.171514 4.432425,16.890732 15.343887,-4.73741 15.472022,3.173722 9.124465,3.173639 0.397008,5.157396 -5.55407,10.711382 -2.77702,4.760639 0.793207,3.570396 1.983562,5.950855 4.363938,1.98359 6.74423,3.173723 5.950743,-2.380292 4.760556,0.793207 -2.380264,14.678559 -1.586833,12.29822 -2.380348,17.45558 v 9.91795 l 0.793208,8.33104 -3.173723,7.53766 -2.777049,3.96715 21.37232,17.91776 12.42069,7.86348 3.005571,2.97431 6.804403,-5.64537 1.40268,-3.0858 v -2.52465 l -2.52474,-2.80533 -3.36622,-1.68304 -5.329976,-3.9273 -3.085716,-5.61043 -3.646774,-4.76892 -1.963652,-5.61042 -1.683123,-9.53774 -0.561059,-8.41569 -0.561087,-7.29355 1.963652,-3.64677 h 3.646858 l 3.085715,2.52473 0.28053,1.96366 -3.085771,1.40259 0.28053,2.24418 3.927304,1.40259 3.366245,-0.56108 4.768894,-2.80516 3.9273,-4.76892 7.01302,7.0131 z"
     id="NW"
     inkscape:connector-curvature="0"
     inkscape:label="#NW-0-0" />
</svg>
