<?xml version="1.0" encoding="UTF-8" standalone="no"?>
<!-- created with inkscape (http://www.inkscape.org/) -->

<svg
   xmlns:dc="http://purl.org/dc/elements/1.1/"
   xmlns:cc="http://creativecommons.org/ns#"
   xmlns:rdf="http://www.w3.org/1999/02/22-rdf-syntax-ns#"
   xmlns:svg="http://www.w3.org/2000/svg"
   xmlns="http://www.w3.org/2000/svg"
   xmlns:sodipodi="http://sodipodi.sourceforge.net/DTD/sodipodi-0.dtd"
   xmlns:inkscape="http://www.inkscape.org/namespaces/inkscape"
   version="1.1"
   width="200px"
   height="200px"
   viewBox="0 0 200 200"
   id="svg8"
   inkscape:version="0.92.4 (5da689c313, 2019-01-14)"
   sodipodi:docname="OW.svg">
  <defs
     id="defs4757" />
  <sodipodi:namedview
     pagecolor="#ffffff"
     bordercolor="#666666"
     borderopacity="1"
     objecttolerance="10"
     gridtolerance="10"
     guidetolerance="10"
     inkscape:pageopacity="0"
     inkscape:pageshadow="2"
     inkscape:window-width="1278"
     inkscape:window-height="1368"
     id="namedview4755"
     showgrid="false"
     inkscape:zoom="2.1598416"
     inkscape:cx="90.897008"
     inkscape:cy="67.980076"
     inkscape:window-x="1273"
     inkscape:window-y="0"
     inkscape:window-maximized="0"
     inkscape:current-layer="svg8"
     showguides="false" />
  <metadata
     id="metadata4770">
    <rdf:RDF>
      <cc:Work
         rdf:about="">
        <dc:format>image/svg+xml</dc:format>
        <dc:type
           rdf:resource="http://purl.org/dc/dcmitype/StillImage" />
        <dc:title />
      </cc:Work>
    </rdf:RDF>
  </metadata>
  <path
     style="fill:#000000;stroke-width:0"
     d="m 133.40707,137.44651 -16.99821,-14.24286 2.20814,-3.15452 2.52355,-5.99342 -0.63071,-6.62439 v -7.886143 l 1.89264,-13.879624 1.26182,-9.778782 1.89263,-11.671495 -3.78534,-0.630708 -4.73169,1.892648 -5.36252,-2.523551 -3.46994,-1.577228 -1.57722,-4.731681 -0.63072,-2.839033 2.20814,-3.785292 4.41626,-8.517039 -0.31568,-4.100843 -7.25523,-2.523549 -12.302402,-2.523552 -12.191846,3.758422 -9.889335,3.812294 -3.154447,-2.523615 -7.255235,0.630709 -8.832525,7.255231 4.100778,8.832523 -5.362584,4.416261 -4.416197,5.047101 -2.52355,5.993488 -3.785359,7.570651 -3.154455,-0.946322 0.63071,-4.416198 -5.047167,-3.15452 -2.52355,3.46994 -5.047166,5.678006 -2.83897,2.523549 -0.946322,12.302395 -1.261809,4.100779 -2.52355,5.047168 -4.100842,3.15445 -2.208131,5.04717 v 4.73169 l 7.886201,12.30232 0.630707,2.83904 -5.362519,4.73168 -2.573251,5.04938 3.494137,0.53156 13.44302,1.88203 4.839561,1.34432 12.098705,9.67899 10.754457,3.76402 9.410137,-4.03287 5.108409,-1.61317 9.678999,-0.26871 5.914954,-1.07548 8.065822,3.22635 8.334685,5.37725 11.0233,-8.06589 5.91496,-5.37727 6.25105,-2.62138 6.85595,-2.95748 z m 39.7519,-36.93336 7.44314,-0.0195 2.20814,0.94633 3.62756,1.10403 0.63072,4.41627 -6.6244,3.46981 -4.41619,4.73182 -2.68124,7.72835 2.05033,1.89272 1.57723,2.52354 -0.94632,2.68133 -2.05042,0.78855 -3.15445,-0.15785 -0.15787,1.89271 7.25523,1.73494 -0.63071,3.31216 2.52355,2.20813 2.52354,4.10079 0.31568,1.57723 -5.20486,4.88946 -1.89271,-1.26183 -3.15446,-0.7886 -2.52354,-0.31568 -4.82143,0.50353 -9.81219,-4.69901 -7.0576,5.57885 -2.52524,-3.28952 5.41887,-4.48051 1.11523,-2.45358 v -2.0075 l -2.00742,-2.23056 -2.6767,-1.33832 -4.23801,-3.12276 -2.45355,-4.46106 -2.89969,-3.79188 -1.56138,-4.46114 -1.33831,-7.58382 -0.44615,-6.69158 -0.44611,-5.79939 1.56137,-2.899756 h 2.8997 l 2.45357,2.007503 0.22306,1.561379 -2.45358,1.115315 0.22306,1.784379 3.12278,1.11525 2.67661,-0.44613 3.79195,-2.230564 3.12275,-3.79188 5.57633,5.576324 z"
     id="OW"
     inkscape:connector-curvature="0"
     inkscape:label="#OW-1-6" />
</svg>
