<?xml version="1.0" encoding="UTF-8" standalone="no"?>
<!-- created with inkscape (http://www.inkscape.org/) -->

<svg
   xmlns:dc="http://purl.org/dc/elements/1.1/"
   xmlns:cc="http://creativecommons.org/ns#"
   xmlns:rdf="http://www.w3.org/1999/02/22-rdf-syntax-ns#"
   xmlns:svg="http://www.w3.org/2000/svg"
   xmlns="http://www.w3.org/2000/svg"
   xmlns:sodipodi="http://sodipodi.sourceforge.net/DTD/sodipodi-0.dtd"
   xmlns:inkscape="http://www.inkscape.org/namespaces/inkscape"
   version="1.1"
   width="200px"
   height="200px"
   viewBox="0 0 200 200"
   id="svg8"
   inkscape:version="0.92.4 (5da689c313, 2019-01-14)"
   sodipodi:docname="SG.svg">
  <defs
     id="defs4757" />
  <sodipodi:namedview
     pagecolor="#ffffff"
     bordercolor="#666666"
     borderopacity="1"
     objecttolerance="10"
     gridtolerance="10"
     guidetolerance="10"
     inkscape:pageopacity="0"
     inkscape:pageshadow="2"
     inkscape:window-width="2560"
     inkscape:window-height="1377"
     id="namedview4755"
     showgrid="false"
     inkscape:zoom="4"
     inkscape:cx="226.53685"
     inkscape:cy="120.41569"
     inkscape:window-x="-8"
     inkscape:window-y="-8"
     inkscape:window-maximized="1"
     inkscape:current-layer="svg8"
     showguides="false" />
  <metadata
     id="metadata4770">
    <rdf:RDF>
      <cc:Work
         rdf:about="">
        <dc:format>image/svg+xml</dc:format>
        <dc:type
           rdf:resource="http://purl.org/dc/dcmitype/StillImage" />
        <dc:title />
      </cc:Work>
    </rdf:RDF>
  </metadata>
  <path
     style="fill:#000000;stroke-width:0"
     d="m 138.77615,20.664125 -2.1918,1.829048 -2.74722,2.292538 -4.0977,5.715269 -1.18663,0.964365 -2.15099,2.004042 -2.29977,0.964366 -0.74211,2.522044 -0.51984,2.375093 -1.18663,-0.446363 -2.22631,-0.666789 -0.37106,-1.855256 -1.92873,-2.670831 -1.70645,-0.297576 -2.07753,-1.855256 0.22226,-0.222262 0.66679,-1.408891 -1.2601,-0.297575 0.88905,-1.779943 -2.00219,-1.113153 -0.81742,0.815577 -1.92873,0.222263 -2.151,0.371051 -1.63299,0.297575 -0.88905,1.557679 -1.55953,0.815578 -0.81556,0.371052 -0.14879,0.890889 2.07752,0.444527 1.18847,-0.593316 1.92872,-0.14695 1.85526,2.150994 0.66679,3.190671 0.29758,1.557679 -2.07753,0.89089 -3.04188,0.371051 -3.04372,1.186628 -2.077519,0.89089 -2.448568,-0.222263 -2.744309,-1.930567 -1.484204,-0.889054 -3.190671,0.29574 -1.03784,-1.113154 -0.519839,-1.335416 -1.113152,-0.07349 -1.632993,-0.446364 -2.744306,-2.29978 -0.815579,2.375093 -2.672669,2.522044 -2.002205,0.668628 -3.932774,0.371051 -2.150993,-1.261942 -1.410728,-1.484204 -3.264146,-1.557679 -2.150994,-0.371051 -2.077518,0.964366 -2.81962,0.668626 -1.261941,1.335417 -0.07348,1.779942 1.408891,2.448569 1.335417,0.964364 2.819619,2.226308 1.113153,0.7421 -0.37105,2.968408 -0.964366,1.631154 h -2.8931 l -3.783985,0.446363 -0.817415,1.111318 -0.66679,3.637033 -1.484203,1.260104 -0.815578,2.375094 -0.455547,1.5338 -0.892727,0.367377 -0.995591,1.311537 -1.412567,0.782514 0.765982,1.7579 1.877298,4.009921 2.26488,3.559884 0.582293,4.268924 -0.648421,2.847174 -3.040045,0.518002 -2.134462,2.005879 -1.489715,1.680752 0.45371,1.487877 1.036005,-0.323292 0.323291,0.841293 -1.230713,2.716755 0.06612,2.20059 -4.206469,1.100295 -3.409259,1.186629 -1.599928,1.188462 -1.14438,0.686997 h -1.64767 l -2.926159,-0.411463 -1.647688,-0.916605 -1.875461,-0.411462 -1.739531,0.549227 -1.418076,1.463999 -0.914769,1.509925 0.365541,1.234398 0.0698,3.31741 6.061723,2.49265 9.076054,0.0147 5.727411,-1.00296 4.042987,-1.45482 1.293166,1.32624 1.19765,0.71088 0.161646,5.82294 0.484938,1.71381 1.844234,-0.3233 2.127114,0.53453 3.27333,3.71419 8.034539,5.76967 1.647687,1.23621 2.472449,1.23622 2.768188,-0.82475 2.371419,-0.64292 9.311176,2.83247 v 2.2245 l 0.148788,2.52386 0.295737,5.63925 0.148788,2.00219 -2.299781,2.96842 -1.855254,0.66679 -2.597358,0.81741 -0.742101,0.44453 -0.222263,1.41073 0.519838,1.48236 0.964366,1.26194 1.928729,0.59332 3.859299,0.22409 1.631153,-0.7421 1.559517,-0.81742 1.706467,-0.51798 1.482367,0.51798 2.004042,1.41074 0.742103,3.63519 0.964365,5.2682 0.297574,7.56797 -1.632989,1.92873 -0.593316,0.66862 1.55768,1.33541 1.335407,1.55769 1.188474,2.67083 -0.529026,2.43938 2.828806,2.9776 0.81559,-0.44637 1.3354,-0.96437 1.4842,-0.22226 1.85527,0.0735 2.07752,0.7421 2.7443,0.66862 4.15503,0.51983 4.74835,0.29575 3.1172,0.7421 2.29979,0.89089 3.56173,1.92872 2.52203,1.26195 0.51984,-0.44637 0.66863,-1.11314 0.14696,-1.4089 -0.51801,-1.77994 2.59552,-0.0753 -0.0734,-1.63116 -0.74209,-1.48419 0.22225,-2.22633 1.26194,-3.1172 2.74431,-3.04186 2.89493,-5.0441 0.88906,-2.00404 1.55951,-0.7421 2.49449,-1.35011 -1.74504,-2.0371 -1.16642,-2.03896 -1.7487,-4.66202 -2.62125,-4.36994 -0.57862,-2.04263 -1.46216,-1.16273 0.31962,-1.57789 1.64768,-1.03049 1.44194,-2.26673 1.85527,-2.2667 0.61719,-2.06099 0.41331,-1.85342 v -2.26673 l -1.0305,-2.88391 -0.82477,-2.06098 -1.0305,-2.88392 -1.23621,-2.67817 -0.20573,-1.44379 -0.61719,-2.47245 -0.4133,-2.05915 -0.41147,-2.47246 -0.20572,-2.67817 0.41146,-1.44196 1.64952,-2.06098 1.44195,-2.06099 2.05915,-2.883919 1.44381,-2.678185 0.20573,-1.855255 0.20573,-2.266716 1.44196,-1.853419 1.44194,-0.61903 1.44197,-1.441955 0.82475,-2.67818 0.41146,-1.441956 1.03049,-1.236225 1.23624,-0.411462 2.26671,-2.472447 1.0305,-2.680019 1.44195,-2.472447 1.23622,-2.883912 1.44196,-2.059148 0.82475,-1.443792 0.82477,-1.647688 1.02865,0.205731 h 2.47246 l 1.44378,-0.205731 1.64769,-1.030494 -0.20573,-1.441954 -0.4133,-0.824763 -1.44195,-1.853417 -0.6172,-0.411463 v -1.443791 l 0.41147,-1.853421 -0.20573,-3.297209 -1.23622,-3.708673 1.03048,-2.266717 -0.61902,-1.028655 -0.82478,-1.030495 -2.05914,-0.413298 -1.64953,-1.236225 -1.02865,-0.822925 -0.61903,0.205731 -0.71067,0.326177 -0.52555,0.08528 h -1.03049 l -1.03049,-1.441955 -0.41147,-0.617194 -1.23623,-2.266716 -1.44196,-1.441956 -1.23622,-1.443793 -0.39676,-1.379502 -0.81219,-1.92094 -0.6621,-1.56592 -1.76013,-3.077077 -0.66292,-2.408983 -0.60542,-2.199992 -1.65794,-0.525498 -2.096,-0.664344 -2.3157,-0.733978 z m 3.62677,21.622316 2.56246,0.09185 2.37877,1.73953 3.018,1.64585 3.29537,1.098458 3.65909,2.013227 0.83215,1.457524 -2.10328,2.6571 0.002,0.0019 -0.006,0.0037 -1.32991,1.114989 -2.61939,0.966204 -0.004,-0.0019 -1.90852,1.48604 -2.92799,0.639237 -1.28033,1.372155 -1.14803,0.692505 -0.008,0.0055 v -0.0074 l -2.00772,-0.236958 -1.87729,-0.192874 -2.00588,-0.0643 -0.78803,0.538208 -0.004,-0.0074 -0.85414,2.292433 -1.19031,3.019841 v 1.64585 l 0.91478,1.831375 0.29757,1.713816 0.65394,3.133726 -0.0643,3.558049 -0.97171,5.369217 -1.55218,4.142179 -2.65246,3.558048 -4.59405,4.463634 -2.07016,1.552168 -3.23475,1.877301 -1.1003,0.646577 -2.52205,-0.0643 -2.1363,-0.841288 -4.50589,-2.736964 -1.98934,1.533799 -3.01983,-1.555842 -3.65908,-2.378767 -1.82954,-1.463998 -1.73954,1.098458 -2.19507,0.36554 -2.470616,-0.36554 -2.19508,-1.098458 -2.28876,-1.372154 2.013227,-4.300149 -1.372153,-0.641074 -0.822925,-3.93461 0.273696,-1.921383 2.378768,-1.921383 1.098457,-1.09662 -2.196916,-1.831376 -1.737694,1.282146 -0.549228,-0.457383 v -1.831377 l -1.645851,-1.737694 -0.09185,-1.188465 1.921384,-1.006613 1.921383,-2.013227 0.457384,-2.196917 0.181852,-1.372154 2.196915,-1.463998 2.013229,-2.013226 3.109848,-0.547393 3.93462,-0.275532 3.93461,-1.006614 2.56245,-1.829538 3.29353,-0.54923 3.29354,0.09185 h 1.18847 l 3.66092,-0.641074 2.7443,-1.280309 h 1.73952 l 1.00478,-3.38538 3.20354,-0.641075 3.47722,-1.006613 3.65909,-1.645849 2.37876,-2.654301 z m -29.85123,52.174909 0.009,-0.0074 z m 25.58231,-35.161671 0.002,-0.0037 z m 6.68259,-0.03673 0.008,0.0019 z m 7.27223,-4.188098 0.006,-0.0037 z m 3.95298,-2.079357 0.004,-0.0055 z m -18.74175,16.803833 v 0.0037 z"
     id="SG"
     inkscape:connector-curvature="0"
     sodipodi:nodetypes="cccccccccccccccccccccccccccccccccccccccccccccccccccccccccccccccccccccccccccccccccccccccccccccccccccccccccccccccccccccccccccccccccccccccccccccccccccccccccccccccccccccccccccccccccccccccccccccccccccccccccccccccccccccccccccccccccccccccccccccccccccccccccccccccccccccccccccccccccccccccccccccccccccccccccccccccccccccccccccccccccccccccccccccccccccccccccccccccccc" />
</svg>
