<?xml version="1.0" encoding="UTF-8" standalone="no"?>
<!-- created with inkscape (http://www.inkscape.org/) -->

<svg
   xmlns:dc="http://purl.org/dc/elements/1.1/"
   xmlns:cc="http://creativecommons.org/ns#"
   xmlns:rdf="http://www.w3.org/1999/02/22-rdf-syntax-ns#"
   xmlns:svg="http://www.w3.org/2000/svg"
   xmlns="http://www.w3.org/2000/svg"
   xmlns:sodipodi="http://sodipodi.sourceforge.net/DTD/sodipodi-0.dtd"
   xmlns:inkscape="http://www.inkscape.org/namespaces/inkscape"
   version="1.1"
   width="200px"
   height="200px"
   viewBox="0 0 200 200"
   id="svg8"
   inkscape:version="0.92.4 (5da689c313, 2019-01-14)"
   sodipodi:docname="SO.svg">
  <defs
     id="defs4757" />
  <sodipodi:namedview
     pagecolor="#ffffff"
     bordercolor="#666666"
     borderopacity="1"
     objecttolerance="10"
     gridtolerance="10"
     guidetolerance="10"
     inkscape:pageopacity="0"
     inkscape:pageshadow="2"
     inkscape:window-width="1278"
     inkscape:window-height="1368"
     id="namedview4755"
     showgrid="false"
     inkscape:zoom="1.5272386"
     inkscape:cx="52.986617"
     inkscape:cy="-75.312622"
     inkscape:window-x="1273"
     inkscape:window-y="0"
     inkscape:window-maximized="0"
     inkscape:current-layer="svg8"
     showguides="false" />
  <metadata
     id="metadata4770">
    <rdf:RDF>
      <cc:Work
         rdf:about="">
        <dc:format>image/svg+xml</dc:format>
        <dc:type
           rdf:resource="http://purl.org/dc/dcmitype/StillImage" />
        <dc:title />
      </cc:Work>
    </rdf:RDF>
  </metadata>
  <path
     style="fill:#000000;stroke-width:0"
     d="m 70.073079,88.147204 -2.58676,4.013924 -2.31915,2.051562 -1.694733,2.497537 -2.675969,1.783974 -6.957461,1.962359 -3.300329,1.24877 -2.854353,2.40838 -0.802793,3.30032 -0.713555,1.24877 -1.605582,0.53522 -4.905872,1.07036 -4.192352,0.53518 -0.0892,3.56795 -4.013932,3.38951 -4.549085,2.76516 -6.868276,3.12194 -6.154667,2.49753 0.981178,7.84945 1.873178,2.22995 3.83553,1.15957 1.516349,0.71361 1.337995,5.44108 1.038395,1.96932 c 0.493023,-0.40983 1.398902,-0.56537 1.916231,-0.93825 0.436238,-0.31462 0.824216,-0.96309 1.267509,-1.2675 0.771759,-0.5301 2.101063,-0.70824 2.85193,-1.26756 0.702904,-0.52352 1.499046,-1.43944 1.901252,-2.21816 0.359634,-0.69647 0.247545,-1.85289 0.633804,-2.53501 0.264856,-0.46801 0.760071,-1.08955 1.267496,-1.26756 0.812319,-0.28475 1.997679,0.42326 2.851942,0.31679 0.805983,-0.10034 1.832917,-0.54234 2.535048,-0.95067 0.641793,-0.37348 1.288884,-1.16458 1.901253,-1.58438 0.80729,-0.55338 1.93912,-1.23132 2.851928,-1.58442 0.774231,-0.29948 2.034686,-0.12903 2.636409,-0.67686 l 0.341024,4.77907 0.356605,4.63829 3.478756,5.35192 -2.140748,4.19231 -1.87317,0.53516 -3.300325,-0.1783 -4.638336,-0.26745 -2.319138,3.03274 -1.694781,2.49754 v 3.30036 l -0.802789,2.40833 -5.262693,0.35662 -2.586727,0.26744 -1.605591,-1.33796 -3.300316,-0.53516 -1.248775,0.89194 -0.178302,2.58676 1.159562,2.76517 1.516363,3.30032 2.586756,4.3707 0.624369,0.80279 0.981178,-0.71359 3.478762,-2.49754 2.76511,-1.51638 2.765154,-0.8028 -0.0892,2.67597 -0.267453,2.05155 1.516349,2.05156 3.211126,-0.1783 3.300329,-1.24877 1.962364,-1.51638 0.44602,-2.40834 -1.248766,-1.78397 -1.159618,-2.14077 0.535214,-1.24875 4.281507,-2.05156 3.567947,-2.05157 3.478714,-2.31917 2.408336,-4.5491 1.248761,-4.99511 0.624405,-3.83553 3.478714,-1.07033 2.408383,-0.89199 2.943543,0.62436 2.943555,1.87318 2.497523,2.40833 6.154685,1.15957 6.154669,0.3566 3.478713,-1.07037 4.192321,-3.56795 2.675964,-3.56792 0.08916,-2.58676 -0.445972,-3.30032 -2.675965,-2.58672 -2.854351,-1.4272 -2.140754,-2.22995 -1.873166,-2.76516 -2.943507,-5.79787 0.178302,-1.42715 -0.624405,-2.31918 -2.408336,-1.33796 -1.605596,-1.24876 -2.140753,0.0892 -2.14075,-0.44602 v -3.12193 l -0.981177,-3.03274 0.446007,-2.67592 -0.0892,-1.87318 -0.267452,-2.14075 2.765157,0.26746 8.652208,0.89198 2.319185,-0.3566 3.478714,-1.4272 3.478679,-1.15957 2.319186,-1.337966 3.924686,0.445976 1.24877,1.5164 3.21117,4.4599 2.05156,5.08429 3.92469,0.53518 4.01392,-0.44598 4.10312,-1.96236 1.51639,-0.9812 2.09743,3.22421 c 0.67102,-0.56897 1.46295,-1.50436 2.1704,-2.07367 0.54516,-0.43875 1.39673,-0.86126 1.91606,-1.33026 0.45995,-0.41546 0.8301,-1.22267 1.34441,-1.5685 0.35271,-0.23716 0.92176,-0.40204 1.34441,-0.44814 1.27672,-0.13888 2.97323,0.42672 4.25731,0.44814 0.94336,0.0174 2.19407,-0.19042 3.13695,-0.22417 0.8733,-0.0303 2.10553,0.33453 2.91291,0 0.96607,-0.40032 1.8212,-1.64056 2.46473,-2.46477 0.96487,-1.23578 1.93437,-3.10702 2.68882,-4.481368 0.43398,-0.790583 0.81708,-1.957212 1.34441,-2.688813 0.61142,-0.848328 1.87274,-1.602777 2.46478,-2.464773 0.37478,-0.545724 0.49711,-1.488432 0.89626,-2.01659 0.63307,-0.837721 2.02452,-1.427539 2.68882,-2.240675 0.62796,-0.768661 1.43231,-1.929832 1.5685,-2.912911 0.17008,-1.227774 -1.04775,-2.803024 -0.89632,-4.033226 0.0918,-0.74593 0.79479,-1.563303 1.01658,-2.303614 l 2.1353,1.51393 2.20758,1.766025 2.7121,1.072235 3.46902,0.756876 6.68568,0.567617 4.35202,0.315491 1.89217,-0.315491 1.45069,-0.567617 1.3876,-2.018327 1.13529,-3.973582 2.20753,-6.24418 2.14448,-4.352006 2.20757,-5.17198 -0.50462,-2.459837 -3.15361,-3.027503 -2.71214,-0.441472 -2.08138,-0.946128 -2.33369,-1.387555 -3.72128,-2.018365 -2.14447,-2.081378 2.77519,-1.639905 -0.12594,-2.964407 -0.81993,-3.468989 -1.82911,-0.504608 -0.81998,-2.712096 -0.0631,-2.018327 -2.45979,-0.252306 -1.27772,-0.25144 -0.81907,2.613691 -1.15957,2.586769 -0.35661,3.478714 1.69475,2.140757 c 0,0 1.07041,2.40838 1.51638,2.40838 l -0.3566,3.032741 -4.72753,3.478714 -3.92472,1.873171 -5.1735,-0.624405 -3.21113,0.713598 -3.03273,3.657102 -4.19233,4.192356 -3.47871,2.319143 -4.01393,1.694738 -5.44112,2.051602 -3.5679,2.67592 -0.44598,2.765162 v 2.586723 l -2.67596,0.267456 -2.94355,-0.445975 -2.85435,-1.248769 -2.05156,-1.694773 -2.49753,-2.319149 -2.05156,-2.765157 -1.24876,-2.586725 -2.58677,-1.605587 -6.95748,0.981182 -6.333062,0.357037 h -4.281447 l -1.070377,-4.727522 -0.713556,-4.192313 -0.267453,-5.797899 5.797839,-0.356605 2.229948,-0.981182 2.586725,-1.337959 1.159613,-2.854353 0.26746,-4.638341 0.62436,-3.567903 2.8543,-2.854362 2.05156,-2.675967 2.49757,-4.905863 0.53517,-1.427194 -3.30032,-1.516358 -3.74635,0.356605 -4.90591,-0.802793 -2.319143,-3.389523 -1.427154,-0.535172 -2.497558,2.85431 -3.032693,0.178302 -5.530281,0.178302 -0.178302,4.103118 2.319137,3.032741 0.713604,3.032742 -1.427207,4.281502 -1.962321,3.300328 -0.267453,3.389502 -8.295435,0.624405 -1.248765,4.459896 -8.741438,1.248765 -1.427163,3.924729 -0.624357,2.051559 -4.103118,1.248765 -3.211173,2.58677 -3.8355,-2.58677 -0.535206,-2.497531 -4.103117,-0.08916 -3.657099,0.178302 -1.78398,1.159572 -0.981178,2.319142 -0.312028,1.783975 3.344952,5.619511 7.135858,1.605544 6.243871,-1.605544 4.995107,0.535167 v 5.084349 l 0.445973,3.478747 1.69478,4.103124 0.802789,1.78393 7.760221,-0.08916 -0.490595,3.166552 m -38.784739,-48.482146 1.276895,0.805688 1.962365,-0.802793 1.248765,1.337964 3.211174,2.408371 3.032742,3.032759 1.337959,2.67592 -0.178302,2.765158 -0.89198,2.140754 -1.070384,1.070376 -2.67596,0.267454 -3.211125,-1.605543 -4.370707,-1.070377 -7.827121,-1.092708 -0.691322,-5.864784 -0.02597,-0.02597 4.265875,-2.169061 z m 65.365763,109.092303 1.516392,-1.29338 1.828546,-1.07038 1.47178,0.22288 1.73936,1.73936 -0.0892,1.24876 -1.0258,2.14072 c 0,0 -1.47178,1.51643 -1.65017,1.56105 -0.1783,0.0446 -2.49757,1.02576 -2.49757,1.02576 l -1.560919,-0.13374 -0.802793,-1.11496 v -2.40841 z m -44.12939,-126.296745 2.250893,0.170511 2.408337,1.51635 0.178303,1.873166 0.178302,1.605547 -1.694781,2.675956 -0.891979,1.873169 -1.337961,1.516358 -1.338008,-0.178302 -2.497534,-0.0892 -2.140754,-0.267454 -3.389514,1.427151 -2.408381,0.356604 -2.319143,-0.802836 -1.605543,-0.624405 -0.908389,-1.599739 0.570004,-0.727102 1.937346,-1.93735 -2.905972,-2.66376 -2.663808,-1.695218 -2.179492,-0.726448 2.663808,-3.148161 2.179492,-0.241921 2.179443,1.210804 2.905972,2.905943 c 0,0 0.726495,1.937354 2.421667,2.179486 1.695135,0.242353 5.811925,-1.452991 5.811925,-1.452991 z"
     id="SO"
     inkscape:connector-curvature="0"
     inkscape:label="#SO-5-7" />
</svg>
