<?xml version="1.0" encoding="UTF-8" standalone="no"?>
<!-- created with inkscape (http://www.inkscape.org/) -->

<svg
   xmlns:dc="http://purl.org/dc/elements/1.1/"
   xmlns:cc="http://creativecommons.org/ns#"
   xmlns:rdf="http://www.w3.org/1999/02/22-rdf-syntax-ns#"
   xmlns:svg="http://www.w3.org/2000/svg"
   xmlns="http://www.w3.org/2000/svg"
   xmlns:sodipodi="http://sodipodi.sourceforge.net/DTD/sodipodi-0.dtd"
   xmlns:inkscape="http://www.inkscape.org/namespaces/inkscape"
   version="1.1"
   width="200px"
   height="200px"
   viewBox="0 0 200 200"
   id="svg8"
   inkscape:version="0.92.4 (5da689c313, 2019-01-14)"
   sodipodi:docname="SZ.svg">
  <defs
     id="defs4757" />
  <sodipodi:namedview
     pagecolor="#ffffff"
     bordercolor="#666666"
     borderopacity="1"
     objecttolerance="10"
     gridtolerance="10"
     guidetolerance="10"
     inkscape:pageopacity="0"
     inkscape:pageshadow="2"
     inkscape:window-width="1278"
     inkscape:window-height="1368"
     id="namedview4755"
     showgrid="false"
     inkscape:zoom="1.0799208"
     inkscape:cx="-37.07836"
     inkscape:cy="-83.997094"
     inkscape:window-x="1273"
     inkscape:window-y="0"
     inkscape:window-maximized="0"
     inkscape:current-layer="svg8"
     showguides="false" />
  <metadata
     id="metadata4770">
    <rdf:RDF>
      <cc:Work
         rdf:about="">
        <dc:format>image/svg+xml</dc:format>
        <dc:type
           rdf:resource="http://purl.org/dc/dcmitype/StillImage" />
        <dc:title />
      </cc:Work>
    </rdf:RDF>
  </metadata>
  <path
     style="fill:#000000;stroke-width:0"
     d="m 172.90984,160.6989 -12.72794,7.09926 -8.08472,2.44991 -2.08242,1.59245 -1.46999,2.69496 -2.20493,1.7149 -0.97998,-11.51461 -3.91986,2.4499 -1.3474,-3.06238 1.22495,-4.53239 0.48976,-4.28733 -1.71493,-2.81741 -4.40986,-1.34748 -3.42995,0.48976 -1.59239,1.22495 -2.69496,2.08242 -1.95989,0.24512 -2.81746,-2.69493 -1.5924,-0.61249 -5.02234,1.46994 -3.55241,1.95996 -4.53237,4.40986 -2.81741,1.10244 -3.42985,1.71497 -2.08247,-3.67486 0.49029,-3.30744 -1.225019,-9.79965 -8.084726,2.08242 -3.919852,0.61248 -2.178789,-0.25718 -4.417518,-1.64573 -6.756158,0.51961 -0.692935,-8.05545 -0.519621,-7.44915 -2.945,-4.50409 -3.287514,1.10877 -9.948887,3.74594 -10.657153,1.71492 -12.739585,-3.91985 -0.705138,-3.54114 2.452846,-1.2161 4.528241,0.60169 1.773322,-0.57001 1.520012,-1.52001 -0.253518,-9.24651 -2.153285,-1.07668 -2.216665,-1.32997 -2.279993,-2.53331 -4.116587,-3.6733 -2.199695,-2.78874 -2.328757,-0.62694 -1.970427,0.44784 -3.582628,0.17915 -4.231667,-0.88455 -5.573273,-1.26665 -3.1666277,-2.15328 -0.6333247,-0.88669 2.0266304,-2.15329 1.899977,-2.15332 1.393357,-3.41995 0.126767,-1.01333 4.939948,-4.559936 5.446566,-6.839922 2.406646,-1.773328 2.650528,-1.767915 3.552038,-1.75935 3.940905,-2.149569 2.328706,-0.53741 1.970428,6.807033 1.253921,3.045199 2.328768,0.895701 5.552987,2.149568 3.403543,-1.433057 4.120054,-0.358274 5.015685,-0.179154 1.074784,4.657464 3.761763,0.179137 3.582626,-1.791331 2.866134,-2.149569 3.224335,-1.074784 1.970485,-1.253921 4.836548,1.253921 3.940864,0.716511 1.612194,-1.074785 0.179137,-1.791348 0.358273,-3.761764 1.791296,-2.328705 2.686978,-1.970432 1.791349,-3.045252 1.074785,-5.732195 2.686925,-6.627896 -0.358273,-1.791278 -1.086947,-3.747518 -0.646263,-2.281891 -1.602454,-3.378079 0.259802,-2.641892 2.858422,-2.078787 2.944964,-3.637952 1.99221,-3.724565 1.03944,-2.165452 3.11822,-0.346218 13.14164,-4.34978 9.30319,-0.489759 11.42276,4.753158 17.18657,0.02618 10.84091,-1.898724 7.65601,-2.756176 2.4499,2.511208 2.26616,1.347406 0.30642,11.024669 0.91869,3.246131 3.49117,-0.612466 4.07663,1.002596 -1.19797,2.427283 -9.79971,21.314325 2.93993,3.062436 1.10244,4.042327 -0.85745,2.20493 -2.20493,1.102492 -2.93988,2.572428 -0.49027,2.082419 1.95994,1.714957 2.57238,0.489759 2.08247,0.612484 -3.0624,8.329712 -3.87046,7.09527 -5.97664,5.45694 -3.63794,-0.25981 -2.68516,-0.51962 -2.59852,0.25982 0.43319,6.75616 -1.99221,1.55915 1.73235,2.33866 1.99221,1.90563 1.99223,3.55131 0.86616,1.64572 1.29928,-0.43319 0.60635,1.81899 3.03158,3.5513 1.81901,1.73238 -1.73236,2.25206 1.29928,2.0788 3.37808,4.41752 4.33088,3.81121 2.4077,1.5726 -2.6949,2.20493 -1.59245,2.57239 -0.24515,2.20493 0.36771,1.83743 0.85751,2.20493 0.97993,0.97996 -3.42983,1.47001 -1.10249,1.83743 z"
     id="SZ"
     inkscape:connector-curvature="0"
     inkscape:label="#SZ-7-5" />
</svg>
