<?xml version="1.0" encoding="UTF-8" standalone="no"?>
<!-- created with inkscape (http://www.inkscape.org/) -->

<svg
   xmlns:dc="http://purl.org/dc/elements/1.1/"
   xmlns:cc="http://creativecommons.org/ns#"
   xmlns:rdf="http://www.w3.org/1999/02/22-rdf-syntax-ns#"
   xmlns:svg="http://www.w3.org/2000/svg"
   xmlns="http://www.w3.org/2000/svg"
   xmlns:sodipodi="http://sodipodi.sourceforge.net/DTD/sodipodi-0.dtd"
   xmlns:inkscape="http://www.inkscape.org/namespaces/inkscape"
   version="1.1"
   width="200px"
   height="200px"
   viewBox="0 0 200 200"
   id="svg8"
   inkscape:version="0.92.4 (5da689c313, 2019-01-14)"
   sodipodi:docname="TG.svg">
  <defs
     id="defs4757" />
  <sodipodi:namedview
     pagecolor="#ffffff"
     bordercolor="#666666"
     borderopacity="1"
     objecttolerance="10"
     gridtolerance="10"
     guidetolerance="10"
     inkscape:pageopacity="0"
     inkscape:pageshadow="2"
     inkscape:window-width="1278"
     inkscape:window-height="1368"
     id="namedview4755"
     showgrid="false"
     inkscape:zoom="1.2370577"
     inkscape:cx="333.98143"
     inkscape:cy="112.11991"
     inkscape:window-x="1273"
     inkscape:window-y="0"
     inkscape:window-maximized="0"
     inkscape:current-layer="svg8"
     showguides="false" />
  <metadata
     id="metadata4770">
    <rdf:RDF>
      <cc:Work
         rdf:about="">
        <dc:format>image/svg+xml</dc:format>
        <dc:type
           rdf:resource="http://purl.org/dc/dcmitype/StillImage" />
        <dc:title />
      </cc:Work>
    </rdf:RDF>
  </metadata>
  <path
     style="fill:#000000;stroke-width:0"
     d="m 67.15916,58.465031 c 0,0 -1.465421,0.765562 -2.354664,0.98325 -0.829741,0.203156 -1.982515,0.359517 -2.833333,0.283429 -0.616353,-0.05516 -1.41897,-0.313103 -1.983353,-0.566667 -1.010794,-0.454437 -2.108861,-1.52222 -3.116688,-1.983315 -0.806953,-0.369027 -1.987309,-0.582189 -2.833334,-0.850019 -0.768795,-0.243482 -1.845556,-0.457594 -2.550019,-0.85002 -0.579944,-0.322994 -1.192949,-0.98812 -1.700001,-1.416647 -0.598548,-0.505873 -1.379784,-1.200178 -1.983353,-1.700002 -0.41917,-0.347342 -0.986407,-0.800029 -1.416647,-1.133372 -0.33593,-0.260221 -0.749622,-0.66733 -1.133372,-0.849981 -0.632903,-0.301308 -1.566999,-0.524437 -2.266669,-0.566666 -0.684033,-0.04146 -1.58271,0.240819 -2.266667,0.283428 -0.848345,0.05288 -1.990885,0.112985 -2.833334,0 -0.960575,-0.128583 -2.203742,-0.524742 -3.116686,-0.849981 -0.788617,-0.280765 -1.839167,-0.691148 -2.550021,-1.133334 -0.563698,-0.350767 -1.093387,-1.146991 -1.7,-1.416686 -0.549243,-0.244243 -1.395533,-0.157883 -1.983353,-0.283428 -0.605205,-0.128971 -1.400289,-0.359517 -1.983353,-0.566667 -0.609922,-0.216852 -1.378261,-0.619929 -1.983315,-0.849982 -0.251091,-0.09549 -0.583254,-0.25033 -0.850019,-0.283428 -1.099969,-0.135437 -2.581711,0.162448 -3.683353,0.283428 -0.597445,0.06544 -1.394203,0.402316 -1.983353,0.28343 -0.485824,-0.09815 -0.94962,-0.684148 -1.416686,-0.849982 -0.566401,-0.201253 -1.406263,-0.451394 -1.983316,-0.283429 -0.752436,0.219134 -1.313054,1.294032 -1.983353,1.700001 -0.391511,0.237015 -1.006609,0.363321 -1.416686,0.566666 -0.444013,0.220276 -0.924739,0.910586 -1.4349857,0.8224 l -2.0646531,2.81941 -0.4448497,1.868345 1.5124816,3.380903 1.8697909,2.911858 1.824444,1.006571 2.013178,1.132421 4.403796,0.880759 4.215058,0.125931 2.956863,-1.887329 1.572781,-1.635707 1.00657,-0.754947 1.006571,-1.509856 0.566211,-1.069496 0.566211,0.188698 3.900508,0.440361 v 0.943684 l 2.516465,1.258233 3.082638,1.132382 2.831051,0.817872 0.692022,0.88076 -4.277982,7.801018 -3.963435,5.47329 -1.981717,-1.258232 0.125931,-0.817835 -4.718343,-0.754947 -2.610814,0.157123 -1.163883,1.006571 -0.220276,1.855904 0.3793,1.426236 0.85584,2.524377 c 0.804328,0.05706 1.767376,-0.655613 2.549982,-0.850018 0.501801,-0.124781 1.1834,-0.303973 1.700039,-0.283428 1.400745,0.05592 3.234889,0.604863 4.513855,1.1266 l 0.300549,4.333031 2.936015,1.95737 3.802699,1.169818 2.841817,2.562232 1.258232,1.635706 -0.251851,1.00657 -3.648886,0.125931 0.503324,2.642277 1.00657,2.264804 1.635706,1.00657 2.642277,-0.125932 2.01318,-0.629096 2.390615,1.258194 4.403794,2.013176 0.629135,3.52304 -1.13242,6.41697 -1.761518,4.02633 -0.629098,4.27797 2.624092,4.90466 -0.178046,2.93601 1.067669,2.93603 1.779399,1.60146 1.423534,1.15661 -2.758083,0.97868 -1.245602,3.2919 -1.79104,2.83833 c 1.616836,0.24309 3.715768,0.93686 5.209037,1.60275 0.640167,0.28533 1.366696,0.90921 2.003477,1.20208 1.036094,0.47654 2.586276,0.6921 3.606277,1.20212 0.849982,0.42499 2.107795,3.81773 2.092921,6.57561 l 1.955542,-1.07698 1.370805,-1.80372 1.226541,-0.50503 0.625635,-2.10908 1.12234,-3.2651 2.040685,-1.73455 0.918309,-4.99964 1.122338,-1.5305 5.20371,-0.6122 h 3.979298 l 1.326408,-2.24471 0.510172,-4.08134 -1.530476,-1.02033 -3.877265,-3.061 -1.836617,-1.32644 -1.938613,-3.36709 0.101954,-2.44879 1.734543,-1.83662 3.877265,-0.91832 2.856959,-1.3264 2.958956,0.51017 4.489471,2.14269 1.938613,2.04065 2.958952,1.73457 5.40778,-0.51016 2.75489,-0.91832 3.6732,-3.46912 1.12237,-3.26506 3.77523,3.16303 2.24472,0.61221 1.53051,0.10191 0.71424,1.83662 1.42844,1.53047 4.38743,-0.40814 2.04065,1.22442 3.77523,2.65285 3.3671,0.30625 2.85695,-1.22441 4.18338,-1.63255 4.18332,-0.51014 2.85695,-1.22444 -0.40813,-2.14269 -0.91831,-4.38744 -2.55082,-2.95895 -2.65289,0.20391 -1.6325,0.81628 -2.85693,-0.6122 0.20392,-1.22441 1.12238,-0.51018 2.14271,-1.12234 1.22438,-2.14272 2.24476,-0.408136 2.95895,-0.510168 2.65285,-0.305875 1.12238,-1.122376 2.75488,1.530477 -1.22437,2.448818 1.73455,0.40815 -0.91831,1.93861 -0.30626,0.30624 2.85696,2.55082 2.34675,0.40814 2.65285,3.6732 0.51018,2.5509 3.06099,0.91824 1.63254,0.61219 0.71424,-3.26505 1.02031,-3.46913 3.16306,-1.32645 2.95895,-2.75489 1.63252,-1.32644 2.74514,-5.521771 4.95852,-4.590301 3.98239,-6.12637 -2.71756,-1.735522 -0.50978,-1.699665 -3.00227,-1.614576 -4.94906,-0.918525 -7.47994,-2.215276 -11.66929,-6.363649 -4.38301,-9.226615 -15.33969,-4.532541 -14.46451,-0.283048 -4.50221,0.132773 -3.46217,-0.903166 -2.86008,-0.903167 -0.60212,-1.655832 -2.10742,-0.752663 -7.0749,-3.311664 -16.257199,-2.257917 -5.87066,2.107415 z m 121.22781,46.554039 -0.40813,1.6325 -1.53052,3.16306 -2.75488,2.14269 -2.55082,-0.51017 -2.14272,-1.83658 0.10191,-2.959 1.73458,-3.16303 2.24471,-1.6325 2.44879,0.91828 z"
     id="TG"
     inkscape:connector-curvature="0"
     inkscape:label="#TG-5-0"
     sodipodi:nodetypes="cccccccccccccccccccccccccccccccccccccccccccccccccccccccccccccccccccccccccccccccccccccccccccccccccccccccccccccccccccccccccccccccccccccccccccccccccccccccccccccccccccccccccccccccccccccccccccccccccc" />
</svg>
