<?xml version="1.0" encoding="UTF-8" standalone="no"?>
<!-- created with inkscape (http://www.inkscape.org/) -->

<svg
   xmlns:dc="http://purl.org/dc/elements/1.1/"
   xmlns:cc="http://creativecommons.org/ns#"
   xmlns:rdf="http://www.w3.org/1999/02/22-rdf-syntax-ns#"
   xmlns:svg="http://www.w3.org/2000/svg"
   xmlns="http://www.w3.org/2000/svg"
   xmlns:sodipodi="http://sodipodi.sourceforge.net/DTD/sodipodi-0.dtd"
   xmlns:inkscape="http://www.inkscape.org/namespaces/inkscape"
   version="1.1"
   width="200px"
   height="200px"
   viewBox="0 0 200 200"
   id="svg8"
   inkscape:version="0.92.4 (5da689c313, 2019-01-14)"
   sodipodi:docname="TI.svg">
  <defs
     id="defs4757" />
  <sodipodi:namedview
     pagecolor="#ffffff"
     bordercolor="#666666"
     borderopacity="1"
     objecttolerance="10"
     gridtolerance="10"
     guidetolerance="10"
     inkscape:pageopacity="0"
     inkscape:pageshadow="2"
     inkscape:window-width="1278"
     inkscape:window-height="1368"
     id="namedview4755"
     showgrid="false"
     inkscape:zoom="3.0544772"
     inkscape:cx="100.61613"
     inkscape:cy="6.4529983"
     inkscape:window-x="1273"
     inkscape:window-y="0"
     inkscape:window-maximized="0"
     inkscape:current-layer="svg8"
     showguides="false" />
  <metadata
     id="metadata4770">
    <rdf:RDF>
      <cc:Work
         rdf:about="">
        <dc:format>image/svg+xml</dc:format>
        <dc:type
           rdf:resource="http://purl.org/dc/dcmitype/StillImage" />
        <dc:title />
      </cc:Work>
    </rdf:RDF>
  </metadata>
  <path
     style="fill:#000000;stroke-width:0"
     d="m 84.585239,23.545038 -1.028488,1.79283 -2.050289,1.729941 -2.947277,0.1923 -0.768848,-1.153267 -1.794018,-0.768871 -5.061643,-0.512571 -1.409566,-1.025145 -2.947283,-0.704796 -3.588029,0.704796 -2.242487,2.178438 -0.961068,2.306561 0.448497,2.883233 -0.192302,1.729915 -0.83292,1.025143 -3.417738,1.122325 -2.550812,0.153171 -1.079823,2.286816 -2.493765,2.281513 -0.636705,1.804003 -0.848958,1.53872 -1.061184,0.31834 -2.069286,-0.212124 h -2.652935 l -1.379525,-0.371421 0.159093,2.918243 -0.05303,1.963174 -1.079462,4.316252 4.185735,-2.011468 3.457228,-0.576209 2.880942,1.00836 2.304785,4.321477 0.288169,1.872661 -0.288169,3.745269 v 4.033386 4.465536 l 0.43215,4.897687 -0.576132,3.745295 -1.872659,3.601236 -2.01672,2.448843 -0.576157,3.313144 2.448818,3.313118 0.864275,2.592903 -0.288066,1.440509 0.576209,2.016689 3.169085,2.73694 4.033386,2.304787 4.03336,2.16075 2.304811,3.45717 3.889353,5.76199 2.304785,2.16075 0.288094,2.59288 2.873659,3.03159 1.324123,2.75019 1.62977,0.20363 2.037162,0.40744 1.426017,1.22228 1.935294,1.12045 2.648299,0.3056 1.527858,1.12042 1.164951,0.55404 1.992704,0.872 3.870589,-3.36134 2.363603,1.62663 2.118201,1.12354 2.03718,1.73159 1.12045,-0.61115 1.52786,-1.32415 0.713,-0.81487 1.01861,0.30557 3.46315,3.56504 2.44462,2.9539 1.42596,2.03716 0.20363,2.13902 -1.32412,1.42602 -1.12045,0.81488 -0.5372,0.13643 -0.14417,1.08036 -0.36015,2.44884 -1.08033,0.93634 -2.73696,1.72857 -1.72858,1.51255 -0.64824,1.8006 0.86428,1.87263 h 0.93633 l 1.87266,0.28812 2.52084,0.93631 1.6566,1.80062 2.0887,1.80061 1.65659,1.80063 1.4765,0.34213 1.54853,0.88229 0.28809,1.94467 0.28812,3.67326 1.87263,2.66493 1.14619,1.50853 0.87048,1.08435 v 1.44051 l 1.15242,3.02502 2.01667,3.31315 -0.28807,1.87264 -1.87266,1.7286 -1.72858,2.73693 v 1.44051 l 1.00836,0.1439 1.72858,-1.72857 2.30481,0.1439 1.72857,1.7286 2.01667,0.43215 2.16078,-0.14415 1.29642,0.57621 0.2881,2.16075 1.87263,0.57618 2.59293,-1.29645 0.57618,-3.45718 0.43218,-2.0167 1.15236,-2.44884 0.72024,-2.88099 2.16078,-1.44049 1.44046,-1.58454 0.57621,-2.01672 -0.57621,-0.43212 c 0,0 -1.58452,-2.01672 -2.16075,-2.73696 -0.57619,-0.72024 -2.30479,-1.72858 -2.30479,-1.72858 h -3.02502 l -1.44049,-1.15241 -0.43215,-1.58455 0.28807,-2.16072 -1.00831,-1.7286 -1.15242,-1.44051 -0.86427,-2.44883 -0.28809,-1.15241 1.00831,-1.29643 1.29647,-1.29645 1.58452,-0.43215 0.0361,-1.4765 -0.18021,-3.56524 -0.72024,-0.86428 -0.8643,-1.7286 0.14416,-2.88099 1.1524,-3.02505 1.58454,-1.00834 2.73693,-1.00836 2.88099,-1.00834 1.29646,-0.8643 1.00833,-1.58454 0.57621,-2.16075 -0.14417,-2.30478 -1.15239,-2.44885 -0.43215,-1.7286 1.00836,-2.44884 4.17743,-1.7286 2.88099,-2.73694 1.7286,-1.72857 1.29645,-0.57621 1.44048,-2.44884 1.46572,-0.68897 -2.64249,-2.52247 -2.81915,-3.97245 -2.43471,-2.30656 -3.33171,-2.43471 -0.51257,-2.562867 0.51257,-3.45985 -1.28145,-3.459877 -2.05028,-3.459854 -0.89699,-2.434711 1.15329,-2.050287 1.15327,-3.331731 -0.12821,-3.588004 0.76885,-2.050288 1.53771,-1.281417 1.40957,-2.306587 -0.76884,-3.972426 0.1282,-2.947283 1.02514,-2.691009 0.38443,-2.050288 -1.92215,-2.306586 -0.51256,-2.306562 1.28141,-2.56286 0.32035,-3.588003 -2.24249,-2.498785 -2.37064,-0.768871 -1.47366,-0.128202 -2.24249,-2.242511 -1.66586,-2.498786 -1.85807,-4.228724 -0.25639,-3.395781 0.57664,-4.93352 1.47364,-1.089194 2.05029,-2.178437 -0.38442,-1.409566 -0.7048,-0.384448 -2.62693,-0.640697 -2.11435,-2.755083 -1.28144,-1.281443 -3.07542,0.89702 -2.56287,-0.256401 -0.38442,-1.601766 -0.25642,-2.178437 -0.32034,-3.203579 -0.38443,-2.178437 -0.4485,0.512572 -1.15329,0.832946 -4.0365,0.320348 -2.24251,1.793988 -0.76884,1.665863 1.34549,2.755084 0.57665,1.153268 -0.0641,1.794015 -1.72994,1.665865 -1.85807,1.281417 -1.85807,0.832946 -2.62693,0.448497 -2.62695,0.704771 h -1.34547 l -1.02517,-0.576647 -2.56286,1.922163 -2.30656,-0.384422 -2.242487,-1.281442 -1.537713,-0.83292 -3.13953,-0.576647 -2.434718,0.512572 -2.461348,-0.111725 -2.808942,-1.268546 z m 45.067441,132.002122 0.72024,0.72024 0.72024,-0.1439 0.57621,-0.72027 0.57621,-0.86427 -0.14417,-1.0804 -0.57621,-0.21598 -1.15239,1.1524 z"
     id="TI"
     inkscape:connector-curvature="0"
     inkscape:label="#TI-1-0" />
</svg>
