<?xml version="1.0" encoding="UTF-8" standalone="no"?>
<!-- created with inkscape (http://www.inkscape.org/) -->

<svg
   xmlns:dc="http://purl.org/dc/elements/1.1/"
   xmlns:cc="http://creativecommons.org/ns#"
   xmlns:rdf="http://www.w3.org/1999/02/22-rdf-syntax-ns#"
   xmlns:svg="http://www.w3.org/2000/svg"
   xmlns="http://www.w3.org/2000/svg"
   xmlns:sodipodi="http://sodipodi.sourceforge.net/DTD/sodipodi-0.dtd"
   xmlns:inkscape="http://www.inkscape.org/namespaces/inkscape"
   version="1.1"
   width="200px"
   height="200px"
   viewBox="0 0 200 200"
   id="svg8"
   inkscape:version="0.92.4 (5da689c313, 2019-01-14)"
   sodipodi:docname="UR.svg">
  <defs
     id="defs4757" />
  <sodipodi:namedview
     pagecolor="#ffffff"
     bordercolor="#666666"
     borderopacity="1"
     objecttolerance="10"
     gridtolerance="10"
     guidetolerance="10"
     inkscape:pageopacity="0"
     inkscape:pageshadow="2"
     inkscape:window-width="1278"
     inkscape:window-height="1368"
     id="namedview4755"
     showgrid="false"
     inkscape:zoom="4.3196831"
     inkscape:cx="101.20199"
     inkscape:cy="74.594108"
     inkscape:window-x="1273"
     inkscape:window-y="0"
     inkscape:window-maximized="0"
     inkscape:current-layer="svg8"
     showguides="false" />
  <metadata
     id="metadata4770">
    <rdf:RDF>
      <cc:Work
         rdf:about="">
        <dc:format>image/svg+xml</dc:format>
        <dc:type
           rdf:resource="http://purl.org/dc/dcmitype/StillImage" />
        <dc:title />
      </cc:Work>
    </rdf:RDF>
  </metadata>
  <path
     style="fill:#000000;stroke-width:0"
     d="m 154.89677,78.884524 -4.70123,4.78225 -3.24221,0.432493 -3.24222,1.513031 -2.37766,1.945347 1.51307,5.619824 -1.72918,4.971453 -3.67454,3.674538 -1.08076,4.97139 -3.24222,3.02606 -4.10681,-0.21624 -2.16151,-3.67449 -3.89065,0.43249 -0.64847,3.02611 -1.72919,5.83599 -4.75525,2.59378 -3.89069,4.10681 -5.836,0.21624 -3.24222,1.94535 -1.94535,4.10681 0.43249,2.59379 2.37764,5.18756 -2.16151,1.29691 -2.8099,3.89065 v 7.13291 l 3.24222,4.32296 3.89065,5.836 -1.50965,7.12614 -1.73257,3.03282 -3.45838,2.91802 -4.971398,0.32438 -1.296869,-1.9453 -3.026101,-1.29692 -8.537859,-0.8646 -2.377622,-1.72918 -4.971403,-1.18884 -6.052202,1.18884 -3.78257,3.67452 -1.621109,3.89067 0.756516,4.86337 -0.32437,2.91797 -1.404949,1.72919 -5.764958,1.89311 -4.300258,0.26748 -3.166313,-0.5371 -2.595433,-1.43195 -2.595475,-1.52151 -1.521451,-2.23744 -1.342464,-3.13245 -1.07398,-2.50594 -2.863958,-4.65393 -1.073979,-2.32695 1.968969,-5.72791 2.505937,-6.53338 0.626506,-12.26129 -0.357805,-2.68491 -2.602641,-1.67366 -2.051254,-0.54704 -2.237453,-3.68621 -1.07398,-2.77446 -0.716,-4.02744 -0.268354,-2.23745 2.416442,0.26835 3.579917,0.62651 2.953453,1.07397 2.953454,0.35781 2.147958,-1.34247 0.984485,-1.87946 v -3.49043 l -0.178902,-3.49043 -1.342464,-4.38545 -2.058464,-3.8484 -0.537011,-6.0859 0.268354,-2.23748 2.418439,-4.576827 3.207087,-0.326975 1.680076,0.210165 2.100108,0.525035 1.260089,0.840008 3.465192,-3.255151 -0.210166,-1.050055 -1.680076,-2.730132 -1.680076,-1.470074 0.419899,-2.205111 -4.830235,-1.155041 0.105074,-1.260087 2.100108,0.105104 1.365086,-0.525035 0.630023,-1.785077 -1.050052,-1.680076 -1.365044,-1.260087 1.785073,-5.14523 2.940123,-3.150195 4.410249,-2.310097 -0.419899,-2.940163 -2.415097,-0.735022 -1.470083,-0.630022 -4.959723,-0.0089 -0.02171,-7.655684 1.795103,-4.667401 -0.789819,-1.364303 -0.789863,0.215376 -0.215378,-1.723368 -2.082346,0.143722 2.728609,-3.949358 2.728654,-1.364305 4.308336,-1.579727 3.805758,-2.29781 2.513189,-2.08239 1.507948,-0.646263 3.590294,-2.36959 2.800431,-3.518516 4.16478,-3.015851 1.364305,-1.723327 -0.28746,-3.231273 0.215378,-2.800432 1.795191,-2.225989 1.579725,-1.651547 -0.287015,-1.292501 -0.727464,-2.312096 2.738032,-0.919177 2.441411,3.733938 0.430756,6.175303 0.574441,6.67797 5.600906,-0.430756 3.662116,1.364349 1.806176,0.212771 3.249549,-0.507744 6.70228,-1.726321 1.0155,8.123951 -0.40644,2.741811 1.72636,3.046464 2.84338,-1.421667 2.33564,-0.913921 3.75729,-3.655776 2.94494,-1.624799 4.16352,-1.218621 1.32014,0.507787 2.33564,2.234067 1.62475,-0.203219 2.23412,-1.726323 1.32014,-1.015488 2.84338,-0.406005 3.65578,1.117055 1.42167,2.335633 -0.40601,3.554209 -1.01549,3.757299 1.117,2.538765 3.24961,-2.03102 0.8124,9.545618 1.82789,-1.421667 1.21857,-2.234065 1.72633,-1.320144 6.70223,-2.030978 10.55269,-5.890579 2.3606,3.075123 3.0568,5.043791 0.7642,4.12661 -0.15285,3.286118 -2.5983,3.209605 -4.50877,3.056845 -5.80795,2.445449 -4.96727,1.604776 -4.27951,1.22271 -0.0391,1.528398 0.4585,1.719505 1.71946,4.737995 0.99348,4.241347"
     id="UR"
     inkscape:connector-curvature="0"
     inkscape:label="#UR-7-7" />
</svg>
