<?xml version="1.0" encoding="UTF-8" standalone="no"?>
<!-- created with inkscape (http://www.inkscape.org/) -->

<svg
   xmlns:dc="http://purl.org/dc/elements/1.1/"
   xmlns:cc="http://creativecommons.org/ns#"
   xmlns:rdf="http://www.w3.org/1999/02/22-rdf-syntax-ns#"
   xmlns:svg="http://www.w3.org/2000/svg"
   xmlns="http://www.w3.org/2000/svg"
   xmlns:sodipodi="http://sodipodi.sourceforge.net/DTD/sodipodi-0.dtd"
   xmlns:inkscape="http://www.inkscape.org/namespaces/inkscape"
   version="1.1"
   width="200px"
   height="200px"
   viewBox="0 0 200 200"
   id="svg8"
   inkscape:version="0.92.4 (5da689c313, 2019-01-14)"
   sodipodi:docname="VD.svg">
  <defs
     id="defs4757" />
  <sodipodi:namedview
     pagecolor="#ffffff"
     bordercolor="#666666"
     borderopacity="1"
     objecttolerance="10"
     gridtolerance="10"
     guidetolerance="10"
     inkscape:pageopacity="0"
     inkscape:pageshadow="2"
     inkscape:window-width="1278"
     inkscape:window-height="1368"
     id="namedview4755"
     showgrid="false"
     inkscape:zoom="4.9482307"
     inkscape:cx="93.944109"
     inkscape:cy="127.06384"
     inkscape:window-x="-8"
     inkscape:window-y="-8"
     inkscape:window-maximized="1"
     inkscape:current-layer="svg8"
     showguides="false" />
  <metadata
     id="metadata4770">
    <rdf:RDF>
      <cc:Work
         rdf:about="">
        <dc:format>image/svg+xml</dc:format>
        <dc:type
           rdf:resource="http://purl.org/dc/dcmitype/StillImage" />
        <dc:title />
      </cc:Work>
    </rdf:RDF>
  </metadata>
  <path
     style="fill:#000000;stroke-width:0"
     d="m 157.50094,9.0094009 3.61251,1.8300161 2.69874,0.858673 0.53017,0.289782 -0.65284,2.654306 v 3.802735 l 0.8587,1.104027 3.06673,5.397468 1.96269,4.048089 -2.08536,1.840035 -2.57607,1.962726 -0.36799,3.680071 -1.10402,2.330716 -2.0854,1.962726 -1.2267,1.472044 -1.34935,-0.8587 1.104,-2.821398 -0.12274,-3.434742 -1.71737,-1.226692 -1.59471,-1.717371 -2.82139,-2.330716 -1.10403,-2.944089 -0.85867,-3.312053 -2.20806,-1.104027 -0.12274,-0.122742 -4.19649,-3.462203 -3.9e-4,-0.0052 z m -39.44448,53.9645371 -1.34935,2.208054 0.36802,1.962724 1.59471,1.226691 1.22668,-1.104027 0.61335,-2.453406 -0.12274,-2.085363 z m -87.948387,92.247902 4.081317,2.35003 -4.322553,8.4799 -0.477201,-0.24076 -3.089937,-1.88019 -3.557407,-2.08537 -2.900394,-1.9274 -0.835068,-0.0301 1.907832,-3.22864 1.761092,-2.78839 0.146871,-2.78837 -1.027312,-2.34813 -4.549471,-4.69625 -4.696211,-3.37541 -3.3754176,-2.20137 1.4675586,-2.49487 0.587039,-2.93515 -0.293506,-5.13647 1.761066,-3.08191 2.494871,-3.81568 2.0546,-3.08191 1.907859,-2.05459 2.641612,-2.20134 -0.880547,-4.1092 -1.467559,-1.90786 -3.962431,-4.4027 1.761066,-2.49487 3.375418,-3.081918 7.044342,-6.457291 8.805434,-8.071633 2.935145,-3.081911 3.081885,-2.788378 3.522184,-1.467585 7.044316,-4.696211 5.136509,-4.696237 0.440274,-1.907833 1.320818,-0.733779 3.375419,-0.733806 2.494872,-1.467559 2.054599,-2.201364 2.054598,-2.935146 -0.880545,-2.201339 -2.348132,-1.174079 -1.027287,-1.174053 -0.587039,-1.467558 1.467586,-1.027314 0.293506,-3.522157 0.146872,-1.614325 1.467559,-1.320821 2.247734,-2.619187 11.402618,-1.617997 6.378832,-4.170753 3.925424,-1.840062 5.397443,-1.472016 2.576064,-3.312081 4.53877,-2.944061 3.68009,-3.434744 2.20804,-0.858699 1.59472,3.802762 -0.98137,2.821397 2.20805,1.349354 0.49069,5.029451 1.84003,1.349381 1.73563,5.424377 0.34593,7.723281 1.35321,1.081997 2.82138,2.085363 -1.10403,0.736035 3.18941,2.330716 3.43475,1.472018 1.47203,0.245223 1.59471,-0.858698 1.59469,-1.717373 1.96273,1.22669 2.69874,1.104027 h 2.08535 l 1.47204,-1.472017 0.73601,-2.698734 v -2.698735 l 0.61335,-1.594708 -0.85867,-0.490682 -1.22672,0.122742 -0.36799,1.226691 -1.71737,-0.122743 1.22668,-3.312079 0.12275,-1.349381 1.59471,-3.802734 1.84003,-1.594708 -2.33071,-3.557406 -2.33072,0.981335 -0.12274,-0.736008 3.5574,-1.962726 -1.71733,-1.840035 -1.47205,0.122743 -3.61895,-3.279558 5.31002,-4.369894 3.70639,5.196044 3.31206,3.680098 2.82139,2.330716 1.47204,0.613345 v 3.680071 l 1.10403,2.453408 -0.12273,4.293415 -2.82141,2.085389 -0.61334,2.944062 -1.10403,3.925424 -1.71737,1.962726 -3.06674,3.434744 -0.61336,1.840035 1.84007,1.594708 -0.36802,2.576045 -5.76547,7.114841 -4.29343,4.661432 -0.24523,3.189417 -0.98133,1.840034 -2.33074,0.122744 -1.10404,-0.981363 -1.47201,-0.122743 -1.84003,1.34938 -2.45341,2.330717 -1.10402,0.367992 v 4.293437 l 0.61333,3.925431 v 6.133474 l 0.49069,1.47202 2.20805,-0.98134 1.22669,-0.49068 0.98136,1.71737 2.33072,-1.22669 1.96272,-0.36801 2.20803,1.96269 2.20805,0.98137 2.08539,0.49068 1.01464,0.76926 -0.64662,1.07077 -2.08539,1.84003 -1.22668,1.7174 -0.85871,1.10402 -1.10402,0.12275 -0.61334,1.22669 0.12273,1.84004 -2.45338,-0.73601 -2.20805,-2.08539 -2.69873,-0.12274 -0.61335,1.59471 -0.36802,2.08536 2.0854,1.34938 0.61334,1.34935 1.10403,2.33072 2.4534,0.36802 2.69871,-1.47201 1.34938,-2.0854 2.69871,-2.33075 0.98136,0.36802 1.71738,1.71737 3.06673,2.69874 2.82141,1.34935 3.18939,0.85871 0.24522,2.57606 1.10403,4.7841 0.8587,3.55741 -0.49069,1.47204 2.94407,-0.98136 2.20805,-1.84003 c 0,0 2.20806,-2.57607 2.08539,-3.18942 -0.12274,-0.61335 2.20805,-3.06673 2.20805,-3.06673 l 2.33072,-2.20805 2.57606,-0.61335 4.29342,-0.49067 2.57605,-1.59472 2.8214,-3.06672 1.84006,-2.94409 2.33071,-1.22669 1.9627,-1.10403 2.33072,-1.9627 2.57607,1.34936 4.57827,-2.39464 0.81917,2.88532 0.49069,4.29344 0.24548,3.92543 -1.59469,2.33071 -2.20807,2.8214 c 0,0 0.49069,2.94407 0.36802,3.68008 -0.12274,0.73603 0,3.06674 0,3.06674 0,0 -1.22668,1.34936 -1.71738,1.71738 -0.49067,0.36799 -2.57606,0.36799 -2.57606,0.36799 l -0.85867,1.10402 0.12273,2.45341 1.47202,2.08537 0.12275,2.33071 -1.22667,2.20805 v 5.15215 l 2.33072,2.08536 -0.12274,1.96272 0.98137,4.41608 -0.74643,1.99598 -2.93365,2.05214 -1.96273,1.84004 1.47205,3.18939 -1.22669,2.20804 -1.34937,2.57608 -2.69875,3.92542 -3.31204,3.06673 -4.17079,4.04809 -3.80275,3.06675 -4.97748,3.0085 -4.01897,2.87956 -0.46512,0.46168 c -0.4876,-1.41628 -1.54584,-3.15857 -1.92036,-4.60887 -0.13034,-0.50511 -0.12248,-1.21129 -0.19198,-1.72833 -0.14766,-1.09829 -0.15919,-2.62192 -0.57612,-3.64871 -0.45093,-1.11077 -1.60621,-2.29015 -2.30445,-3.26464 -0.45641,-0.63694 -0.97103,-1.56971 -1.53631,-2.11237 -0.29969,-0.28771 -0.87725,-0.45671 -1.15219,-0.76816 -0.51154,-0.57946 -0.84683,-1.59442 -1.15224,-2.30444 -0.26644,-0.61946 -0.65113,-1.44831 -0.76813,-2.1124 -0.11986,-0.68085 0,-1.61313 0,-2.30446 0,-0.51849 0.0752,-1.21531 0,-1.72832 -0.0873,-0.59512 -0.36314,-1.35788 -0.57611,-1.92037 -0.29208,-0.77143 -0.79492,-1.75304 -1.15223,-2.49649 -0.27903,-0.58054 -0.6039,-1.38376 -0.96019,-1.92037 -0.2938,-0.44248 -0.86537,-0.89723 -1.15224,-1.34427 -0.44546,-0.69419 -0.71156,-1.79917 -1.1522,-2.49647 -0.48074,-0.76074 -1.251,-1.70294 -1.92037,-2.30444 -0.46351,-0.41651 -1.32982,-0.67313 -1.72833,-1.1522 -0.28058,-0.33733 -0.40532,-0.94013 -0.57611,-1.34427 -0.29154,-0.68988 -0.72468,-1.59349 -0.96017,-2.30446 -0.1495,-0.45097 -0.15002,-1.12288 -0.3841,-1.53627 -0.28099,-0.4963 -0.9546,-0.92779 -1.34423,-1.34427 -0.41841,-0.44723 -0.96423,-1.05606 -1.34427,-1.5363 -0.23421,-0.29602 -0.73121,-1.02409 -0.7818,-1.10751 l -2.32094,-5.5972 -9.31529,-0.72921 -23.328358,-5.14611 -23.77464,1.17405 -25.829237,9.24568 -12.321691,10.131 -4.954546,-2.1529 -3.676034,-2.07416 -3.312078,-0.98135 -0.736035,2.82139 1.717371,0.736 2.698734,1.22672 -0.245222,2.20806 1.840062,0.736"
     id="VD"
     inkscape:connector-curvature="0"
     inkscape:label="#VD-6-1"
     sodipodi:nodetypes="ccccccccccccccccccccccccccccccccccccccccccccccccccccccccccccccccccccccccccccccccccccccccccccccccccccccccccccccccccccccccccccccccccccccccccccccccccccccccccccccccccccccccccccccccccccccccccccccccccccccccccccccccccccccccccccccccccccccccccccccccccccccccccccscccccccccccccccccccccccccccc" />
</svg>
