<?xml version="1.0" encoding="UTF-8" standalone="no"?>
<!-- created with inkscape (http://www.inkscape.org/) -->

<svg
   xmlns:dc="http://purl.org/dc/elements/1.1/"
   xmlns:cc="http://creativecommons.org/ns#"
   xmlns:rdf="http://www.w3.org/1999/02/22-rdf-syntax-ns#"
   xmlns:svg="http://www.w3.org/2000/svg"
   xmlns="http://www.w3.org/2000/svg"
   xmlns:sodipodi="http://sodipodi.sourceforge.net/DTD/sodipodi-0.dtd"
   xmlns:inkscape="http://www.inkscape.org/namespaces/inkscape"
   version="1.1"
   width="200px"
   height="200px"
   viewBox="0 0 200 200"
   id="svg8"
   inkscape:version="0.92.4 (5da689c313, 2019-01-14)"
   sodipodi:docname="VS.svg">
  <defs
     id="defs4757" />
  <sodipodi:namedview
     pagecolor="#ffffff"
     bordercolor="#666666"
     borderopacity="1"
     objecttolerance="10"
     gridtolerance="10"
     guidetolerance="10"
     inkscape:pageopacity="0"
     inkscape:pageshadow="2"
     inkscape:window-width="2560"
     inkscape:window-height="1377"
     id="namedview4755"
     showgrid="false"
     inkscape:zoom="2.8284271"
     inkscape:cx="-80.791706"
     inkscape:cy="115.71756"
     inkscape:window-x="-8"
     inkscape:window-y="-8"
     inkscape:window-maximized="1"
     inkscape:current-layer="svg8"
     showguides="false" />
  <metadata
     id="metadata4770">
    <rdf:RDF>
      <cc:Work
         rdf:about="">
        <dc:format>image/svg+xml</dc:format>
        <dc:type
           rdf:resource="http://purl.org/dc/dcmitype/StillImage" />
        <dc:title />
      </cc:Work>
    </rdf:RDF>
  </metadata>
  <path
     style="fill:#000000;stroke-width:0"
     d="m 180.33525,80.854478 0.72986,-2.918555 0.0359,-1.327455 -0.1076,-1.973252 0.93281,0.251148 h 1.79385 l 1.39922,0.143433 0.71754,-0.215255 0.57404,-1.040448 0.43054,-1.219825 1.6862,-1.542709 0.75248,-1.546331 -1.29062,-0.211668 -1.04044,-0.574029 -1.04045,-0.609923 -0.60993,-0.896927 -0.53812,-1.255703 -0.43054,-1.004557 -1.14808,-1.865625 -0.43053,-0.932803 0.78931,-2.296152 1.00455,-2.619033 0.25116,-4.915184 -0.14344,-1.076306 -1.04334,-0.670915 -0.82452,-0.223785 -1.79163,2.006884 -1.14808,1.578599 -1.07631,1.865626 -0.57403,2.583158 v 2.439652 l -0.35877,1.435084 -1.65036,1.50685 -1.43509,1.004555 -1.65034,0.86107 -0.64581,1.076305 -3.44419,2.152633 -2.22441,0.789301 -4.7358,1.219828 -2.43964,0.430523 -1.65036,-1.578601 -2.94193,-0.574029 -2.72664,-1.793874 -2.08092,-0.789282 -1.79386,0.143434 -2.29612,-1.076309 -1.72213,-0.932819 -1.43509,0.07171 -1.29157,0.861068 -1.79388,0.932805 -2.0091,0.789285 -0.35879,4.592302 -3.22895,1.578583 -1.00454,1.363349 -2.43967,2.009129 -2.65491,0.430524 -4.37704,0.215256 -5.95562,5.166333 -6.81668,5.59684 -2.08087,-3.157187 -3.58773,-2.583174 -2.58316,-0.50228 -1.21983,1.219829 -1.00456,1.865625 -1.363336,1.722105 -2.29613,-0.07171 h -2.080852 l -1.076309,0.574028 -0.86105,0.861052 2.080878,1.363331 -0.502274,0.7893 -1.219828,1.291579 -1.937382,0.932821 -2.00912,0.645776 -3.731211,-1.21982 -2.224382,-0.502278 -3.946503,1.076323 -3.085434,2.296137 -2.08088,1.435099 -2.080878,1.291571 -1.291577,-0.502278 -0.645801,-1.004565 v -2.941932 l -1.86561,-0.358776 -1.793873,1.14808 -1.219827,0.932801 -0.358758,2.009131 -0.574044,1.793836 -1.363331,0.932823 -2.695955,-0.05897 -1.946008,1.358262 -1.302669,1.22125 0.977,2.11681 -0.81416,1.46549 -0.895584,1.70973 -1.791143,2.60532 -2.198239,2.03544 -2.768155,2.6867 -2.523895,2.0354 -3.303579,1.99675 -2.667406,1.9112 -0.308695,0.30642 -1.274554,-3.05894 -0.127419,-1.14709 -0.382381,-2.42166 -1.529461,-2.16674 -1.019647,-1.40201 -0.764724,-0.50983 -0.764739,-1.52948 -0.509814,-1.402 v -1.52944 -1.1471 l -0.382421,-1.27457 -0.764753,-1.65692 -0.637286,-1.27455 -0.764721,-0.892202 -0.764741,-1.65693 -1.274554,-1.529451 -1.147102,-0.764726 -0.382361,-0.892193 -0.637286,-1.529463 -0.254908,-1.019645 -0.892175,-0.892196 -0.892194,-1.019646 -0.518885,-0.735061 -1.540409,-3.71487 -6.203856,-0.467499 0.414893,3.970665 0.389603,2.532487 -0.681813,1.168825 -1.07145,1.071433 -1.850655,0.584417 0.389621,0.974046 1.168841,1.461031 0.779223,1.655852 0.58442,0.876636 0.779222,0.194799 1.655855,1.168831 0.681814,0.97406 0.681829,0.8766 1.363643,0.38963 0.876615,1.26624 v 2.33767 l -0.389602,2.14286 -1.266234,2.14287 -1.948065,2.62987 -1.363643,2.72733 0.292211,2.43505 0.1948,2.62989 -1.655854,0.97402 -1.363643,1.94808 -0.389621,1.07141 0.974043,0.77925 1.071432,1.26624 2.629878,-0.0975 1.363643,-0.19479 1.363641,-0.19481 1.948067,0.77922 2.337685,0.58443 0.779221,1.36363 -0.68183,1.16886 0.29221,2.82467 -0.1948,1.46105 -0.974024,0.77923 -0.29221,2.14285 0.09746,1.36364 1.168825,-0.19478 0.68183,-0.77924 0.681813,-1.36363 0.292212,-0.68184 1.655853,-0.0973 0.87663,0.29218 0.876632,1.75327 0.876633,0.29221 1.266233,1.85066 1.655855,2.72729 2.142866,2.62989 1.558445,2.82468 0.48703,2.04546 -0.681833,1.85066 1.558446,0.38963 1.558445,0.38961 0.194818,2.24025 v 2.14288 l 1.266234,1.36366 2.045474,2.82467 1.071432,1.85066 1.071435,1.75326 0.681812,1.94808 0.38962,0.87661 0.779223,-0.0973 0.974042,-1.85065 1.168824,-1.26625 2.240275,-0.19479 1.948064,1.55843 1.071434,1.36363 0.876633,0.19481 v -2.04544 l 0.09748,-1.26625 1.168822,-1.07141 h 1.266254 l 1.753228,-0.19482 1.065256,-0.15614 1.37748,-0.27551 0.826502,-0.82649 1.101997,-1.653 0.550999,-1.23974 2.076004,0.29914 2.331962,0.52736 1.847759,-0.0975 2.009187,0.78616 1.790737,0.82649 0.826483,-0.68873 0.826514,-0.41325 1.239747,-0.27552 0.688724,-1.37747 1.790734,-0.82651 2.203981,-1.23974 0.964247,-0.41325 -0.275507,-0.41324 0.688751,-2.06624 0.964234,-0.13769 0.964242,-0.68873 0.964241,-0.41324 1.652982,-0.2755 h 1.239741 l 1.239759,-0.82649 -0.275518,-1.10201 0.826516,-1.65299 0.732692,-0.18559 0.876638,-0.38959 1.461033,0.68179 1.55845,1.75327 1.753269,0.29221 2.82467,-0.48702 2.33769,0.29221 1.36362,0.87664 0.68184,0.87662 1.36362,0.97405 1.55848,0.97404 0.58441,2.43506 0.77922,0.38961 0.48701,-0.1948 2.24027,-1.07144 1.46105,-0.0973 1.94805,0.58442 2.14288,2.04547 1.85065,-1.26625 2.04547,0.38961 1.75326,0.0975 1.26624,-0.68179 v -0.48705 l -0.29222,-3.5065 0.58443,-2.14286 1.85065,-2.04549 1.94806,-1.26621 7.98707,-0.48703 1.26625,-1.16884 1.16883,-2.43508 0.97404,-2.14285 1.36364,-1.16884 -0.87663,-1.65587 0.0975,-3.70132 0.58442,-0.97401 1.75325,-1.65586 2.62989,-1.36366 2.04548,-0.1948 h 1.75323 l 0.29224,-1.36363 0.97402,-1.65587 1.46105,-1.26622 1.36363,-0.38962 0.0975,-0.77924 -0.38959,-2.14286 1.46103,-1.36364 -0.29222,-1.85067 -1.07143,-1.07144 -0.68181,-2.33764 -0.1948,-1.75329 -1.46105,-2.04546 -1.85069,-1.55845 -2.53247,-1.26624 0.19482,-1.65585 1.36363,-1.26624 1.65586,-2.53247 1.55843,-1.55845 1.46107,-0.58442 1.75326,0.19479 1.75325,0.68184 1.85065,-0.48703 2.14289,-2.72729 0.8766,-1.461034 v -0.876637 l 0.87665,-0.681827 1.75325,-0.584417 1.07144,-1.753239 1.55845,-0.974025 3.50651,-1.461055 0.77922,-1.558445 -0.48703,-1.363663 -1.55842,-0.3896 -1.16885,-1.071433 0.48701,-1.948066 0.87662,-1.168841 2.04549,-0.487012 2.24025,-1.558445 z"
     id="VS"
     inkscape:connector-curvature="0"
     inkscape:label="#VS-6-4"
     sodipodi:nodetypes="ccccccccccccccccccccccccccccccccccccccccccccccccccccccccccccccccccccccccccccccccccccccccccccccccccccccccccccccccccccccccccccccccccccccccccccccccccccccccccccccccccccccccccccccccccccccccccccccccccccccccccccccccccccccccccccccccccccccccccccccccccccccccccccccccccccccccccccccccccccccccccccccccccccccccccccccccccc" />
</svg>
