<?xml version="1.0" encoding="UTF-8" standalone="no"?>
<!-- created with inkscape (http://www.inkscape.org/) -->

<svg
   xmlns:dc="http://purl.org/dc/elements/1.1/"
   xmlns:cc="http://creativecommons.org/ns#"
   xmlns:rdf="http://www.w3.org/1999/02/22-rdf-syntax-ns#"
   xmlns:svg="http://www.w3.org/2000/svg"
   xmlns="http://www.w3.org/2000/svg"
   xmlns:sodipodi="http://sodipodi.sourceforge.net/DTD/sodipodi-0.dtd"
   xmlns:inkscape="http://www.inkscape.org/namespaces/inkscape"
   version="1.1"
   width="200px"
   height="200px"
   viewBox="0 0 200 200"
   id="svg8"
   inkscape:version="0.92.4 (5da689c313, 2019-01-14)"
   sodipodi:docname="ZG.svg">
  <defs
     id="defs4757" />
  <sodipodi:namedview
     pagecolor="#ffffff"
     bordercolor="#666666"
     borderopacity="1"
     objecttolerance="10"
     gridtolerance="10"
     guidetolerance="10"
     inkscape:pageopacity="0"
     inkscape:pageshadow="2"
     inkscape:window-width="1278"
     inkscape:window-height="1368"
     id="namedview4755"
     showgrid="false"
     inkscape:zoom="2.1598416"
     inkscape:cx="79.327082"
     inkscape:cy="-90.151874"
     inkscape:window-x="-8"
     inkscape:window-y="-8"
     inkscape:window-maximized="1"
     inkscape:current-layer="svg8"
     showguides="false" />
  <metadata
     id="metadata4770">
    <rdf:RDF>
      <cc:Work
         rdf:about="">
        <dc:format>image/svg+xml</dc:format>
        <dc:type
           rdf:resource="http://purl.org/dc/dcmitype/StillImage" />
        <dc:title />
      </cc:Work>
    </rdf:RDF>
  </metadata>
  <path
     style="fill:#000000;stroke-width:0"
     d="m 180.67863,101.44043 -7.58582,4.62328 -7.94096,-0.66177 -1.98534,-2.31613 -1.98525,-7.279314 -2.31613,-0.330885 -9.26453,-0.992558 -3.30871,-1.323475 -1.98525,-3.639705 -0.33088,-5.62482 -1.65436,-5.294062 -1.32356,-5.955731 -0.33089,-5.294047 -3.30871,-1.323462 -3.63969,0.661777 -2.64702,-6.286619 -6.28662,0.992672 -3.30871,-4.301476 -2.64702,-2.647023 -10.5881,0.66178 -8.271856,-0.66178 -5.29405,1.985341 -5.62484,4.963158 -7.94107,2.977816 -11.91146,0.661781 -7.941072,0.66178 -9.926316,-2.977915 -3.639599,-2.977915 -10.987967,0.317334 c -1.660643,-2.621095 -2.85233,-6.65602 -4.299151,-9.392152 -1.178435,-2.228476 -3.203153,-4.947192 -4.323342,-7.205468 -1.034661,-2.085767 -2.165973,-4.99044 -2.882323,-7.205661 -0.273819,-0.848511 -0.710157,-2.162204 -0.715959,-2.16201 -0.465377,2.177778 -2.652154,4.475434 -3.607767,6.485444 -0.999636,2.102605 -2.9426,4.878114 -2.882225,7.205566 0.07739,3.093919 3.130684,6.511181 4.323338,9.367188 0.712091,1.704375 1.762715,3.961295 2.161717,5.764452 0.60857,2.751999 0.612438,6.551042 0.720801,9.367382 0.116106,3.024065 -0.439252,7.09353 0,10.08789 0.327991,2.232917 1.615555,5.015708 2.161717,7.205471 0.5331,2.138979 0.725635,5.120466 1.441114,7.205669 0.627915,1.828782 2.838397,3.831457 2.882224,5.764537 0.04838,2.12846 -2.303264,4.43627 -2.882224,6.48506 -0.889148,3.14792 -0.450863,7.69058 -1.45853,10.85445 l 7.039446,11.55852 4.679287,7.01901 5.147177,1.63772 3.74351,-3.50946 2.339645,-0.70242 1.169821,3.97737 0.831098,7.70384 6.647985,-3.45673 7.279295,-3.9704 4.30137,-0.99279 3.6396,12.57335 2.31614,5.62495 4.30147,1.65443 10.25711,3.97039 6.28662,-2.64692 7.610176,-0.66177 9.26453,-0.33088 1.98524,8.60285 6.9484,0.33089 6.61752,-3.30882 5.29404,-3.9705 5.95573,-1.98524 3.6397,-2.31623 8.93364,2.31623 7.27919,1.32347 2.97792,-1.98524 0.33089,-3.30889 0.66178,-6.94839 3.30871,-4.30131 4.96316,-3.63958 3.30879,-5.62505 1.98525,-10.5879 4.96305,-12.24253 -0.66177,-3.30872 z"
     id="ZG"
     inkscape:connector-curvature="0"
     inkscape:label="#ZG-8-0" />
</svg>
