<?xml version="1.0" encoding="UTF-8" standalone="no"?>
<!-- created with inkscape (http://www.inkscape.org/) -->

<svg
   xmlns:dc="http://purl.org/dc/elements/1.1/"
   xmlns:cc="http://creativecommons.org/ns#"
   xmlns:rdf="http://www.w3.org/1999/02/22-rdf-syntax-ns#"
   xmlns:svg="http://www.w3.org/2000/svg"
   xmlns="http://www.w3.org/2000/svg"
   xmlns:sodipodi="http://sodipodi.sourceforge.net/DTD/sodipodi-0.dtd"
   xmlns:inkscape="http://www.inkscape.org/namespaces/inkscape"
   version="1.1"
   width="200px"
   height="200px"
   viewBox="0 0 200 200"
   id="svg8"
   inkscape:version="0.92.4 (5da689c313, 2019-01-14)"
   sodipodi:docname="ZH.svg">
  <defs
     id="defs4757" />
  <sodipodi:namedview
     pagecolor="#ffffff"
     bordercolor="#666666"
     borderopacity="1"
     objecttolerance="10"
     gridtolerance="10"
     guidetolerance="10"
     inkscape:pageopacity="0"
     inkscape:pageshadow="2"
     inkscape:window-width="1278"
     inkscape:window-height="1368"
     id="namedview4755"
     showgrid="false"
     inkscape:zoom="2.6664831"
     inkscape:cx="101.81234"
     inkscape:cy="43.44301"
     inkscape:window-x="1273"
     inkscape:window-y="0"
     inkscape:window-maximized="0"
     inkscape:current-layer="svg8"
     showguides="false" />
  <metadata
     id="metadata4770">
    <rdf:RDF>
      <cc:Work
         rdf:about="">
        <dc:format>image/svg+xml</dc:format>
        <dc:type
           rdf:resource="http://purl.org/dc/dcmitype/StillImage" />
        <dc:title></dc:title>
      </cc:Work>
    </rdf:RDF>
  </metadata>
  <g
     id="Canton_highlighted-3-1"
     transform="matrix(1.0354501,0,0,1.0354501,-556.48334,-41.573508)"
     style="fill:#000000">
    <path
       inkscape:connector-curvature="0"
       id="ZH"
       d="m 641.9985,223.19813 -2.96502,1.8109 -3.1021,-0.25851 -0.77553,-0.90478 -0.77552,-2.84359 -0.90478,-0.12926 -3.61913,-0.38776 -1.29254,-0.51702 -0.77553,-1.42179 -0.12925,-2.19733 -0.64627,-2.06807 -0.51702,-2.32658 -0.12925,-2.06807 -1.29255,-0.51701 -1.4218,0.25851 -1.03403,-2.45583 -2.45583,0.38776 -1.29255,-1.68031 -1.03403,-1.03404 -4.13614,0.25851 -3.23136,-0.25851 -2.06807,0.77553 -2.19732,1.93882 -3.10211,1.16329 -4.65315,0.2585 -3.10211,0.25851 -3.87763,-1.16329 -1.42179,-1.16329 -4.29239,0.12389 c -0.6487,-1.0239 -1.11424,-2.6001 -1.67943,-3.66893 -0.46035,-0.87056 -1.25129,-1.9326 -1.68889,-2.81482 -0.40415,-0.81477 -0.84611,-1.94943 -1.12593,-2.81481 -0.10712,-0.33129 -0.33226,-0.86421 -0.30687,-0.85433 0.2182,-0.90269 -0.0528,-2.17612 -0.25609,-3.08642 -0.21542,-0.96463 -0.82109,-2.15608 -1.12593,-3.09629 -0.18961,-0.58479 -0.37335,-1.38558 -0.56296,-1.97037 -0.30485,-0.94021 -0.69273,-2.20789 -1.12593,-3.0963 -0.34916,-0.71606 -1.21542,-1.71757 -1.62171,-2.42349 l 3.28602,-0.65791 2.37631,-1.09676 2.37631,-2.6505 1.7614,-3.1859 1.76062,-3.01799 -0.95642,-0.44589 -1.97477,2.79734 -2.72162,-0.50055 -1.37095,-1.12083 -1.70977,-2.07917 -0.47266,-7.76904 0.57428,-2.58546 -6.85048,-3.61912 -0.38777,-2.19732 6.07496,-7.23825 0.77552,-1.80956 -0.64627,-3.1021 -3.61912,-2.06807 -2.19732,-1.03404 -0.25851,-0.90478 -0.90478,-5.04092 -0.51702,-2.84359 -0.38776,-1.68031 -1.55106,-1.29254 -1.80956,-5.42868 2.06807,-6.46272 1.80956,-3.36061 v -4.13614 l 3.36062,-2.8436 4.13614,-4.13614 2.32657,-5.945697 0.25851,-3.87763 -0.64627,-0.743213 1.30537,-2.057535 c 0.52958,0.242592 1.15843,0.694542 1.70171,0.854979 0.73337,0.216574 1.76885,0.264626 2.53334,0.281481 1.26917,0.02798 2.96811,-0.08453 4.22222,-0.281481 1.03187,-0.162051 2.36445,-0.591111 3.37778,-0.844445 1.35111,-0.337778 3.33158,-0.373779 4.5037,-1.125926 0.45507,-0.292019 0.62321,-1.208316 1.14899,-1.411272 0.5321,-0.215996 1.3517,0.243016 1.94731,0.285345 0.67386,0.04789 1.58502,-0.108212 2.25185,0 0.79077,0.128324 1.77816,0.577088 2.53334,0.844445 0.68013,0.240786 1.58232,0.575602 2.25185,0.844445 0.5968,0.239636 1.43783,0.483898 1.97037,0.844444 0.69223,0.468662 1.51779,1.26752 1.97037,1.970371 0.39061,0.606614 0.59112,1.576297 0.84445,2.251853 0.25333,0.675555 0.20566,1.916429 0.84444,2.251853 0.30826,0.161867 0.8329,-0.09344 1.12593,-0.281482 0.45507,-0.292019 0.8779,-0.926937 1.12592,-1.407408 0.28199,-0.546278 0.5115,-1.357764 0.56297,-1.970371 0.064,-0.761992 -0.62813,-1.851744 -0.28148,-2.533334 0.30863,-0.606838 1.54489,-0.594442 1.97037,-1.125926 0.7178,-0.896643 0.58323,-2.646986 1.12592,-3.659261 0.56707,-1.057764 1.72801,-2.206419 2.45178,-3.060638 0.64249,-0.655481 1.54451,-1.341689 2.05193,-2.00603 0.41325,-0.541047 0.91863,-1.321886 1.12593,-1.970371 0.25841,-0.808357 0.28614,-1.966172 0.28148,-2.814816 -0.004,-0.764666 -0.0956,-1.791601 -0.28148,-2.533334 -0.11056,-0.441104 -0.45241,-0.966304 -0.56297,-1.407408 -0.18591,-0.741733 -0.29342,-1.76875 -0.28148,-2.533334 0.009,-0.59704 0.13356,-1.391871 0.28148,-1.970371 0.17873,-0.699005 0.12308,-2.265209 0.84445,-2.251853 0.53398,0.0099 0.42588,1.172708 0.56296,1.68889 0.11052,0.416159 -0.003,1.084609 0.28148,1.407408 0.17673,0.200193 0.58806,0.20682 0.84445,0.281481 0.33429,0.09734 0.78386,0.346428 1.12592,0.281482 0.71367,-0.135503 1.60621,-0.77886 1.97037,-1.407408 0.42544,-0.734317 0.34309,-1.968398 0.28149,-2.814816 -0.0506,-0.69451 -0.19277,-1.662061 -0.56297,-2.251852 -0.35063,-0.55861 -1.34564,-0.844233 -1.72321,-1.326732 -0.40211,-0.659534 -0.49194,-1.836337 -0.52864,-2.614011 -0.0321,-0.680056 0.0166,-1.624662 0.28148,-2.251852 0.21034,-0.498121 0.90548,-0.91368 1.12593,-1.407408 0.20942,-0.469025 0.20739,-1.180605 0.28148,-1.688889 0.0982,-0.673693 0.23918,-1.572355 0.28148,-2.251853 0.0157,-0.252844 -0.16375,-0.651147 0,-0.844445 0.33201,-0.39193 1.18061,-0.207388 1.68889,-0.281481 0.67369,-0.09821 1.57149,-0.30634 2.25185,-0.281482 0.4303,0.01572 1.01433,0.105731 1.40741,0.281482 0.38545,0.172338 0.79215,0.585865 1.12593,0.844444 0.42745,0.331141 0.98858,0.783945 1.4074,1.125927 0.51086,0.417136 1.20187,0.962661 1.68889,1.407408 0.17637,0.161063 0.32591,0.533781 0.56408,0.563131 l -2.07049,2.773352 -0.44194,1.856155 1.5026,3.358757 1.85758,2.892816 1.8125,1 2,1.125 4.375,0.875 4.1875,0.125 2.9375,-1.875 1.5625,-1.625 1,-0.75 1,-1.5 0.5625,-1.0625 0.5625,0.1875 3.875,0.4375 v 0.9375 l 2.5,1.25 3.0625,1.125 2.8125,0.8125 0.6875,0.875 -4.25,7.75 -3.9375,5.437499 -1.96875,-1.25 0.125,-0.8125 -4.6875,-0.75 -2.59375,0.15625 -1.15625,1 -0.21875,1.84375 0.37685,1.416898 0.85022,2.507883 c 0.79909,0.05679 1.75584,-0.651336 2.53333,-0.844445 0.49851,-0.123818 1.17564,-0.301978 1.68889,-0.281481 1.39159,0.05558 3.21376,0.600917 4.48436,1.119225 l 0.2985,4.304721 2.91681,1.944544 3.77782,1.162161 2.82322,2.545495 1.25,1.625 -0.25,1 -3.625,0.125 0.5,2.625 1,2.249996 1.625,1 2.625,-0.125 2,-0.625 2.375,1.25 4.375,2 0.625,3.5 -1.125,6.375 -1.75,4 -0.625,4.25 2.60696,4.87256 -0.17677,2.91682 1.06066,2.91681 1.76776,1.59099 1.41422,1.14905 -2.74004,0.97227 -1.23744,3.27037 -1.77932,2.81972 c 1.60626,0.24153 3.69146,0.93077 5.17497,1.5923 0.63598,0.2836 1.35774,0.90325 1.99038,1.19422 1.02929,0.47341 2.56934,0.68756 3.58267,1.19423 0.84444,0.42223 2.094,3.79277 2.08686,6.52574 l 1.05365,2.40692 2.56326,5.48007 3.09359,4.86136 0.7955,5.83363 -0.88389,3.88909 -4.15425,0.70711 -2.91682,2.74004 -2.03293,2.29809 0.61872,2.03294 1.41421,-0.44195 0.44195,1.14905 -1.67938,3.71231 0.0884,3.00521 -5.74525,1.5026 -4.65766,1.62095 -2.1875,1.625 -1.5625,0.9375 h -2.25 l -4,-0.5625 -2.25,-1.25 -2.5625,-0.5625 -2.375,0.75 -1.9375,2 -1.25,2.0625 0.5,1.6875 0.0625,4.5625 M 642,223.06323 l -0.46875,-1.5 -1.15625,-2.4375 0.1875,-1.90625 2.0625,-1.5 2.125,-2.625 1.4375,-2.6875 0.75,-1.5625 2.25,-0.25 9.48247,-3.13859 6.72065,-0.34578"
       inkscape:label="#ZH-4-2"
       style="fill:#000000" />
  </g>
</svg>
